<svg width="1256" height="1030" fill="none" xmlns="http://www.w3.org/2000/svg"><mask id="a" maskUnits="userSpaceOnUse" x="0" y="0" width="1256" height="1030"><path fill="#CFD6D9" d="M0 0h1256v1030H0z"/></mask><g mask="url(#a)"><path fill="#CFD6D9" d="M0 0h935v1030H0z"/><path fill="#246046" d="M0 0h935v317H0z"/><path d="M1199.5 235.5C1258 175 1226-44 1226-44s-19.81-114.979 10-153.5-419.692 72.978-486.192 118.978c-53.2 36.8-36.808 28.522-108.5 98-71.691 69.479-135 132.001-202.5 146.001S-12 214.5-65.5 235.5c-42.8 16.8 10.5 440.5 38 649l422.808-26.021 60-5C647.808 824.479 715 988 783 1113.5h218c35.17-48.67 131-97.5 131-237 0-40.509-5.5-150-44-213-32-67-131.412-195.543-59.19-290.022C1101.03 279 1141 296 1199.5 235.5z" fill="#2B1726" stroke="#92594F" stroke-width="42"/></g></svg>