<svg width="88" height="94" viewBox="0 0 88 94" fill="none" xmlns="http://www.w3.org/2000/svg">
<path d="M85.0715 8.83692C86.6406 8.83692 87.9172 7.56039 87.9172 5.99121V2.8457C87.9172 1.27653 86.6406 0 85.0715 0H2.8457C1.27653 0 0 1.27653 0 2.8457V5.99121C0 7.56039 1.27653 8.83692 2.8457 8.83692H3.04141V16.8723C3.04141 17.6327 3.65774 18.2492 4.41837 18.2492C5.179 18.2492 5.79532 17.6327 5.79532 16.8723V8.83692H82.1215V63.8723H5.7955V22.3801C5.7955 21.6196 5.17918 21.0031 4.41855 21.0031C3.65792 21.0031 3.0416 21.6196 3.0416 22.3801V63.8723H2.84589C1.27671 63.8723 0.000183493 65.1488 0.000183493 66.718V69.8635C0.000183493 71.4327 1.27671 72.7092 2.84589 72.7092H11.7269L6.69107 90.305C6.43863 91.1873 6.61066 92.1139 7.16328 92.8467C7.71589 93.5796 8.55914 94 9.47711 94H15.438C16.7247 94 17.8703 93.1362 18.2241 91.8995L19.3638 87.917H38.0193V91.1023C38.0193 92.7002 39.3192 94 40.917 94H47C48.5978 94 49.8977 92.7002 49.8977 91.1023V87.917H68.5532L69.6929 91.8993C70.0467 93.1362 71.1923 94 72.479 94H78.4399C79.3578 94 80.2011 93.5796 80.7535 92.8467C81.3061 92.1138 81.4782 91.1873 81.2257 90.305L76.1899 72.7092H85.0711C86.6403 72.7092 87.9168 71.4327 87.9168 69.8635V66.718C87.9168 65.1488 86.6403 63.8723 85.0711 63.8723H84.8754V8.83692H85.0715ZM15.438 91.2461H9.47729C9.45948 91.2461 9.40551 91.2461 9.36236 91.1888C9.3194 91.1317 9.33409 91.0798 9.33905 91.0627L14.5814 72.7446H20.8417L15.5765 91.142C15.5588 91.2033 15.5019 91.2461 15.438 91.2461V91.2461ZM47.1439 91.1023C47.1439 91.1817 47.0793 91.2461 47.0002 91.2461H40.9172C40.8379 91.2461 40.7734 91.1815 40.7734 91.1023V87.917H47.1439V91.1023ZM20.152 85.1631L21.1048 81.834H66.8123L67.765 85.1631H20.152ZM47.1439 72.7446V79.0799H40.7732V72.7446H47.1439ZM78.555 91.1888C78.5117 91.2461 78.4577 91.2461 78.4401 91.2461H72.4791C72.4152 91.2461 72.3585 91.2033 72.3409 91.1418L67.0756 72.7446H73.336L78.5783 91.0627C78.5833 91.0798 78.598 91.1315 78.555 91.1888V91.1888ZM66.0243 79.0799H49.8978V72.7092H64.2011L66.0243 79.0799ZM85.1633 66.718V69.8635C85.1633 69.9142 85.122 69.9553 85.0715 69.9553H31.8967C31.136 69.9553 30.5197 70.5718 30.5197 71.3322C30.5197 72.0927 31.136 72.7092 31.8967 72.7092H38.0195V79.0799H21.893L23.7163 72.7092H26.3887C27.1493 72.7092 27.7656 72.0927 27.7656 71.3322C27.7656 70.5718 27.1493 69.9553 26.3887 69.9553H2.8457C2.79522 69.9553 2.75391 69.9142 2.75391 69.8635V66.718C2.75391 66.6673 2.79522 66.6262 2.8457 66.6262H85.0713C85.122 66.6262 85.1633 66.6673 85.1633 66.718V66.718ZM2.8457 6.08301C2.79522 6.08301 2.75391 6.04189 2.75391 5.99121V2.8457C2.75391 2.79503 2.79522 2.75391 2.8457 2.75391H85.0713C85.1218 2.75391 85.1631 2.79503 85.1631 2.8457V5.99121C85.1631 6.04189 85.1218 6.08301 85.0713 6.08301H2.8457Z" fill="#CBCB90"/>
<path d="M18.2495 56.1246C18.2495 58.5611 20.2316 60.543 22.6679 60.543C25.1042 60.543 27.0864 58.5611 27.0864 56.1246C27.0864 53.6883 25.1043 51.7061 22.6681 51.7061C20.2318 51.7061 18.2495 53.6883 18.2495 56.1246V56.1246ZM22.6679 54.46C23.5857 54.46 24.3323 55.2066 24.3323 56.1246C24.3323 57.0424 23.5857 57.7891 22.6679 57.7891C21.7501 57.7891 21.0034 57.0424 21.0034 56.1246C21.0034 55.2068 21.7501 54.46 22.6679 54.46Z" fill="#CBCB90"/>
<path d="M65.2496 21.1107C67.6861 21.1107 69.668 19.1286 69.668 16.6922C69.668 14.2559 67.6859 12.2738 65.2496 12.2738C62.8133 12.2738 60.8311 14.2557 60.8311 16.6922C60.8311 19.1286 62.8131 21.1107 65.2496 21.1107V21.1107ZM65.2496 15.0277C66.1674 15.0277 66.9141 15.7744 66.9141 16.6922C66.9141 17.6101 66.1674 18.3568 65.2496 18.3568C64.3318 18.3568 63.5851 17.6101 63.5851 16.6922C63.585 15.7744 64.3318 15.0277 65.2496 15.0277Z" fill="#CBCB90"/>
<path d="M21.2905 47C21.2905 47.7604 21.9069 48.3769 22.6675 48.3769C23.4281 48.3769 24.0444 47.7604 24.0444 47V43.9584C24.0444 43.1979 23.4281 42.5814 22.6675 42.5814C21.9069 42.5814 21.2905 43.1979 21.2905 43.9584V47Z" fill="#CBCB90"/>
<path d="M22.6675 39.2524C23.4281 39.2524 24.0444 38.6358 24.0444 37.8754V34.834C24.0444 34.0735 23.4281 33.457 22.6675 33.457C21.9069 33.457 21.2905 34.0735 21.2905 34.834V37.8754C21.2905 38.6358 21.907 39.2524 22.6675 39.2524Z" fill="#CBCB90"/>
<path d="M18.6528 29.7243C18.9217 29.9931 19.2742 30.1277 19.6266 30.1277C19.9789 30.1277 20.3314 29.9933 20.6003 29.7243L22.6682 27.6565L24.736 29.7243C25.0049 29.9933 25.3573 30.1277 25.7098 30.1277C26.0621 30.1277 26.4146 29.9933 26.6835 29.7243C27.2213 29.1865 27.2213 28.3147 26.6835 27.7771L24.6157 25.7093L26.6835 23.6415C27.2213 23.1037 27.2213 22.2318 26.6835 21.6943C26.1456 21.1565 25.2739 21.1565 24.7362 21.6943L22.6683 23.7621L20.6005 21.6943C20.0628 21.1565 19.1911 21.1563 18.6531 21.6943C18.1154 22.232 18.1154 23.1039 18.6531 23.6415L20.721 25.7093L18.6531 27.7771C18.115 28.3148 18.115 29.1867 18.6528 29.7243Z" fill="#CBCB90"/>
<path d="M44.9322 41.464C44.3943 40.9263 43.5226 40.9263 42.9849 41.464L40.917 43.5319L38.8492 41.464C38.3115 40.9263 37.4398 40.9261 36.9018 41.464C36.3641 42.0018 36.3641 42.8737 36.9018 43.4112L38.9697 45.4792L36.9018 47.5471C36.3641 48.0848 36.3641 48.9567 36.9018 49.4943C37.1708 49.763 37.5233 49.8976 37.8756 49.8976C38.2279 49.8976 38.5804 49.7632 38.8494 49.4943L40.9172 47.4264L42.985 49.4943C43.254 49.7632 43.6063 49.8976 43.9588 49.8976C44.3111 49.8976 44.6636 49.7632 44.9326 49.4943C45.4704 48.9565 45.4704 48.0846 44.9326 47.5471L42.8648 45.4792L44.9326 43.4112C45.4698 42.8735 45.4698 42.0016 44.9322 41.464V41.464Z" fill="#CBCB90"/>
<path d="M69.2648 41.464C68.7268 40.9263 67.8551 40.9263 67.3174 41.464L65.2496 43.5319L63.1817 41.464C62.644 40.9263 61.7723 40.9261 61.2344 41.464C60.6966 42.0018 60.6966 42.8737 61.2344 43.4112L63.3022 45.4792L61.2344 47.5471C60.6966 48.0848 60.6966 48.9567 61.2344 49.4943C61.5033 49.763 61.8558 49.8976 62.2081 49.8976C62.5605 49.8976 62.913 49.7632 63.1819 49.4943L65.2497 47.4264L67.3176 49.4943C67.5865 49.7632 67.9388 49.8976 68.2913 49.8976C68.6437 49.8976 68.9962 49.7632 69.2651 49.4943C69.8029 48.9565 69.8029 48.0846 69.2651 47.5471L67.1973 45.4792L69.2651 43.4112C69.8025 42.8735 69.8025 42.0016 69.2648 41.464V41.464Z" fill="#CBCB90"/>
<path d="M28.751 33.4568C27.9903 33.4568 27.374 34.0734 27.374 34.8338C27.374 35.5942 27.9903 36.2108 28.751 36.2108H65.2494C66.01 36.2108 66.6264 35.5942 66.6264 34.8338V28.9608L67.3172 29.6517C67.5862 29.9205 67.9387 30.055 68.291 30.055C68.6433 30.055 68.9958 29.9206 69.2648 29.6517C69.8025 29.1139 69.8025 28.2421 69.2648 27.7045L66.2234 24.6631C65.6854 24.1253 64.8137 24.1253 64.276 24.6631L61.2342 27.7043C60.6965 28.242 60.6965 29.1139 61.2342 29.6515C61.7721 30.1892 62.6439 30.1892 63.1816 29.6515L63.8725 28.9606V33.4567H28.751V33.4568Z" fill="#CBCB90"/>
</svg>
