<svg width="901" height="641" viewBox="0 0 901 641" fill="none" xmlns="http://www.w3.org/2000/svg">
<path d="M722.668 440.949C697.62 460.029 690.906 540.022 660.788 549.214C660.788 549.214 501.646 593.714 469.282 620.432C423.392 658.254 351.908 639.035 306.003 601.155C260.098 563.276 125.381 595.048 72.3381 549.214C19.2949 503.379 46.3083 395.606 19.2948 375.436C-7.71867 355.266 -0.873384 325.221 7.21399 298.045C17.7204 262.784 31.018 223.959 63.5106 206.687C87.3863 194.008 119.12 194.723 136.784 174.245C144.527 165.258 148.149 153.538 153.302 142.833C177.45 92.6607 233.231 67.417 284.704 46.1373C347.242 20.2639 430.133 16.3428 497.608 11.0336C532.348 8.30029 550.628 -10.2318 578.24 11.0336C608.571 34.3883 624.503 76.7331 660.788 88.9686C696.659 101.061 745.241 80.8546 768.844 110.434C774.57 117.59 777.705 126.834 784.876 132.472C798.975 143.563 823.209 136.637 834.316 150.718C842.275 160.822 861.971 209.663 861.971 209.663C870.599 238.621 845.184 255.313 845.71 279.627C843.689 293.093 872.028 290.55 886.047 293.093C949.335 327.75 780.338 393.081 723.297 441.035" fill="white"/>
</svg>
