<svg width="98" height="94" viewBox="0 0 98 94" fill="none" xmlns="http://www.w3.org/2000/svg">
<path d="M5.19303 58.015C5.5103 58.875 6.0102 59.6492 6.64987 60.2835C7.78414 61.4178 9.34339 62.1219 11.0635 62.1219C12.7784 62.1219 14.3428 61.4178 15.4769 60.2835C16.6111 59.1495 17.3153 57.5851 17.3153 55.8701V52.3921C15.9984 52.5049 14.8425 52.2201 13.9394 51.8436C13.8586 52.236 13.7674 52.6177 13.6491 52.994C13.2028 54.4453 12.4556 55.7679 11.273 56.7194C10.0743 57.6871 8.48316 58.2462 6.37565 58.1385C5.99939 58.1224 5.60683 58.0795 5.19303 58.015ZM42.039 48.6989H54.543L56.7689 44.7691H44.915C44.1247 44.7691 43.4042 45.0972 42.8829 45.6185C42.3614 46.1401 42.039 46.855 42.039 47.6453V48.6989ZM54.5428 51.5426H42.0388V55.8699C42.0388 57.5849 42.743 59.1493 43.8772 60.2833C45.0113 61.4176 46.5757 62.1218 48.2906 62.1218C50.0107 62.1218 51.5751 61.4176 52.7042 60.2833C53.8383 59.1493 54.5426 57.5849 54.5426 55.8699L54.5428 51.5426ZM93.5175 61.0362C94.2809 61.4394 94.9528 61.9879 95.5065 62.6382C96.501 63.8102 97.0978 65.3207 97.0978 66.9602V76.5505C97.0978 77.3354 96.4635 77.9696 95.6787 77.9696C94.894 77.9696 94.2541 77.3352 94.2541 76.5505V66.9602C94.2541 66.0142 93.9099 65.1432 93.3402 64.4713C92.8348 63.8745 92.1521 63.4337 91.3727 63.2242C89.873 64.3207 88.0287 64.9659 86.0399 64.9659C83.9811 64.9659 82.0778 64.2778 80.5457 63.1113C80.2555 63.1436 79.9758 63.2243 79.7071 63.348C79.3414 63.5198 79.0082 63.7834 78.7393 64.1381L71.1003 74.2554C70.8315 74.6102 70.4122 74.8253 69.9662 74.8253H60.177C59.4512 74.8253 58.7954 75.1154 58.3224 75.5884C57.8493 76.0669 57.5536 76.7227 57.5536 77.4431C57.5536 78.1687 57.8493 78.8247 58.3224 79.2976C58.7954 79.7706 59.4512 80.0665 60.177 80.0665H71.8691C72.3371 80.0665 72.6971 80.0181 73.1435 79.7922C73.9713 79.3782 74.7454 78.1205 75.3098 77.3678L80.3686 70.6751C80.8415 70.0462 81.7285 69.9224 82.3574 70.3956C82.9809 70.8685 83.1046 71.7608 82.6316 72.3845L77.8203 78.76V91.1565H94.2541V82.9906C94.2541 82.2056 94.8938 81.5715 95.6787 81.5715C96.4637 81.5715 97.0978 82.2058 97.0978 82.9906V92.5809C97.0978 93.3658 96.4635 94 95.6787 94C64.257 94 32.8409 94 1.42461 94C0.63986 94 0 93.3656 0 92.5809V82.9906C0 82.2056 0.63986 81.5715 1.42461 81.5715C2.20954 81.5715 2.84371 82.2058 2.84371 82.9906V91.1565H19.283V78.76L14.4664 72.3845C13.9935 71.7608 14.1171 70.8685 14.7462 70.3956C15.3697 69.9224 16.262 70.046 16.7352 70.6751L21.6807 77.2227C22.1322 77.8194 22.584 78.4213 23.0353 79.0236C23.2932 79.3621 23.6105 79.6202 23.96 79.7922C24.3524 79.9912 24.718 80.0665 25.1481 80.0665H36.9264C37.6468 80.0665 38.3026 79.7706 38.7809 79.2976C39.2541 78.8247 39.5442 78.1687 39.5442 77.4431C39.5442 76.7227 39.2541 76.0669 38.7809 75.5884C38.3026 75.1154 37.6468 74.8253 36.9264 74.8253H27.1318C26.7017 74.8253 26.2771 74.6263 25.9978 74.2554L18.3587 64.1381C17.9231 63.5629 17.2726 63.1921 16.5525 63.1113C15.0257 64.2725 13.1228 64.9659 11.0638 64.9659C9.07485 64.9659 7.22544 64.3209 5.72574 63.2297C4.96242 63.4286 4.28501 63.864 3.77961 64.4445C3.19892 65.1217 2.84409 65.9981 2.84409 66.9603V76.5507C2.84409 77.3356 2.20973 77.9698 1.42499 77.9698C0.640239 77.9698 0.000379288 77.3354 0.000379288 76.5507V66.9603C0.000379288 65.2992 0.618619 63.7673 1.63454 62.59C2.18299 61.9611 2.84409 61.4288 3.58598 61.0364C2.52701 59.5151 1.96794 57.7195 1.96794 55.8703V47.6455C1.96794 46.0703 2.60761 44.6404 3.64515 43.603C4.68288 42.571 6.1073 41.9258 7.6823 41.9258H14.4395C16.0147 41.9258 17.4446 42.5708 18.482 43.603C19.5197 44.6405 20.1594 46.0705 20.1594 47.6455V55.8703C20.1594 57.6926 19.6164 59.397 18.6862 60.8214C19.455 61.2084 20.1053 61.7406 20.6268 62.4288L27.836 71.9761H33.5287V66.208C33.5287 64.5739 34.3943 63.0954 35.7972 61.8428C36.8833 60.8752 38.3132 60.0311 39.8937 59.3647C39.4422 58.2841 39.1951 57.1068 39.1951 55.8703V50.1235V47.6453C39.1951 46.0701 39.8401 44.6402 40.8725 43.6028C41.91 42.5708 43.34 41.9256 44.915 41.9256H60.9706L57.3922 50.1237V55.8703C57.3922 57.0368 57.1665 58.1552 56.7634 59.1872C58.462 59.8538 59.9994 60.7138 61.1608 61.7136C62.6497 62.9932 63.5691 64.5198 63.5691 66.2078V71.9759H69.2619L76.471 62.4286C77.0033 61.7296 77.6697 61.1921 78.4171 60.8267C77.4816 59.3968 76.9387 57.6926 76.9387 55.8701V47.6453C76.9387 46.0701 77.5838 44.6402 78.6161 43.6028C79.6536 42.5708 81.0835 41.9256 82.6585 41.9256H89.4161C90.9911 41.9256 92.4212 42.5706 93.4586 43.6028C94.4906 44.6404 95.1358 46.0703 95.1358 47.6453V55.8701C95.1356 57.7192 94.5712 59.5147 93.5175 61.0362ZM91.9048 58.015C91.4963 58.0795 91.0984 58.1224 90.7222 58.1385C88.6202 58.246 87.0289 57.6869 85.8301 56.7194C84.642 55.7679 83.8948 54.4455 83.4486 52.994C83.3355 52.6177 83.239 52.236 83.1635 51.8436C82.2551 52.2199 81.1048 52.5047 79.7824 52.3921V55.8701C79.7824 57.5851 80.4865 59.1495 81.6208 60.2835C82.7549 61.4178 84.3194 62.1219 86.0397 62.1219C87.7544 62.1219 89.319 61.4178 90.4533 60.2835C91.0878 59.6492 91.5875 58.875 91.9048 58.015ZM79.7824 49.5428C81.6799 49.8116 83.0668 48.7096 83.3141 48.4945C83.5938 48.258 83.8571 48.1129 84.2388 48.0966C85.0238 48.0591 85.6849 48.6612 85.7224 49.4459C85.771 50.3706 85.8997 51.3062 86.1631 52.1607C86.4535 53.1121 86.9103 53.9507 87.6041 54.5098C88.2868 55.0583 89.2492 55.37 90.5877 55.3054C91.1037 55.2784 91.6681 55.198 92.2917 55.0581V47.6449C92.2917 46.8546 91.9638 46.1397 91.4423 45.6182C90.9209 45.0968 90.2058 44.7687 89.4157 44.7687H82.6583C81.8681 44.7687 81.1529 45.0968 80.6316 45.6182C80.1101 46.1397 79.7824 46.8546 79.7824 47.6449V49.5428ZM17.3155 49.5428V47.6451C17.3155 46.8548 16.9931 46.1399 16.4715 45.6183C15.9502 45.097 15.2298 44.7689 14.4395 44.7689H7.68192C6.89717 44.7689 6.17671 45.097 5.65519 45.6183C5.13386 46.1399 4.81127 46.8548 4.81127 47.6451V55.0583C5.42951 55.198 5.99389 55.2786 6.51011 55.3056C7.8488 55.3702 8.81106 55.0583 9.49359 54.51C10.1871 53.9511 10.644 53.1123 10.9398 52.1609C11.2032 51.3062 11.3322 50.3708 11.3752 49.4461C11.4128 48.6612 12.0794 48.0593 12.8588 48.0968C13.2245 48.1131 13.5038 48.2474 13.7727 48.4839C13.9718 48.6612 15.3803 49.8169 17.3155 49.5428ZM41.4154 61.8104C39.9315 62.3856 38.6199 63.1166 37.6844 63.9554C36.8727 64.6757 36.3726 65.4498 36.3726 66.2078V71.9759H36.9264C38.4318 71.9759 39.8025 72.5886 40.7917 73.5778C41.7809 74.567 42.3936 75.9324 42.3936 77.4431C42.3936 78.3946 42.1463 79.287 41.7217 80.0665H55.3761C54.9515 79.287 54.7095 78.3946 54.7095 77.4431C54.7095 75.9324 55.3223 74.567 56.3116 73.5778C57.3008 72.5886 58.6661 71.9759 60.1768 71.9759H60.7252V66.2078C60.7252 65.4229 60.1876 64.6165 59.3167 63.8693C58.2953 62.9932 56.876 62.2352 55.2955 61.66C55.1127 61.8803 54.9193 62.0954 54.7203 62.2943C53.07 63.9446 50.796 64.966 48.291 64.966C45.7911 64.966 43.512 63.9446 41.867 62.2943C41.7109 62.1381 41.5603 61.9771 41.4154 61.8104ZM11.8537 10.5309C11.0688 10.5309 10.4346 9.89127 10.4346 9.10634C10.4346 8.3214 11.069 7.68723 11.8537 7.68723H38.1843C38.9692 7.68723 39.6036 8.32159 39.6036 9.10634C39.6036 9.89127 38.969 10.5309 38.1843 10.5309H11.8537ZM11.8537 25.4971C11.0688 25.4971 10.4346 24.8574 10.4346 24.0725C10.4346 23.2876 11.069 22.6479 11.8537 22.6479H25.0192C25.8041 22.6479 26.4438 23.2876 26.4438 24.0725C26.4438 24.8574 25.8041 25.4971 25.0192 25.4971H11.8537ZM11.8537 18.0141C11.0688 18.0141 10.4346 17.3743 10.4346 16.5895C10.4346 15.8046 11.069 15.1704 11.8537 15.1704H38.1843C38.9692 15.1704 39.6036 15.8048 39.6036 16.5895C39.6036 17.3743 38.969 18.0141 38.1843 18.0141H11.8537ZM39.6411 33.179C39.8401 33.7328 40.1572 34.2272 40.5605 34.6304C41.281 35.3561 42.2808 35.8077 43.3934 35.8077H51.7528C52.5377 35.8077 53.1719 36.442 53.1719 37.2323C53.1719 38.0172 52.5375 38.6514 51.7528 38.6514H43.3934C41.4959 38.6514 39.7862 37.8775 38.5497 36.6302C37.6252 35.7003 36.9692 34.5069 36.6897 33.179H16.8586L10.4185 39.6191C10.1606 39.8772 9.80574 40.0384 9.40787 40.0384C8.62293 40.0384 7.98326 39.4041 7.98326 38.6193V33.0609C6.1769 32.7597 4.55867 31.8944 3.31707 30.6471C1.75269 29.088 0.785127 26.9323 0.785127 24.5563V8.62274C0.785127 6.252 1.75288 4.09631 3.31707 2.53213C4.87594 0.973064 7.03163 0 9.40787 0H40.6307C43.0066 0 45.1624 0.973064 46.7213 2.53213C48.2857 4.09631 49.2533 6.252 49.2533 8.62274V11.2569H73.4124C75.2992 11.2569 77.0088 12.0257 78.2506 13.2675C79.4924 14.5093 80.2612 16.2188 80.2612 18.1057V31.8031C80.2612 33.6901 79.4924 35.3996 78.2506 36.6413C77.3312 37.5607 76.1488 38.2218 74.8317 38.5016V44.0923C74.8317 44.4524 74.6973 44.8179 74.4177 45.0976C73.864 45.6512 72.9609 45.6512 72.4069 45.0976L65.9615 38.652H58.1935C57.4085 38.652 56.7689 38.0176 56.7689 37.2328C56.7689 36.4426 57.4085 35.8082 58.1935 35.8082H66.5528C66.9507 35.8082 67.3053 35.9696 67.5634 36.2329L71.9876 40.6571V37.2327C71.9876 36.4424 72.6273 35.808 73.4124 35.808C74.5089 35.808 75.5142 35.3565 76.24 34.6307C76.9658 33.9052 77.4173 32.9052 77.4173 31.8031V18.1057C77.4173 17.0037 76.9658 16.0039 76.24 15.2781C75.5142 14.5523 74.5089 14.1008 73.4124 14.1008H49.2531V24.5567C49.2531 26.9327 48.2855 29.0884 46.7211 30.6475C45.1621 32.2116 43.0064 33.1794 40.6305 33.1794H39.6411V33.179ZM16.2671 30.3353H40.6305C42.2218 30.3353 43.6624 29.6848 44.7107 28.6367C45.7589 27.5883 46.4094 26.1423 46.4094 24.5563V8.62274C46.4094 7.03694 45.7589 5.5909 44.7107 4.54255C43.6625 3.49419 42.2218 2.84372 40.6305 2.84372H9.40768C7.81638 2.84372 6.37565 3.49419 5.3273 4.54255C4.27913 5.59071 3.62846 7.03675 3.62846 8.62274V24.5565C3.62846 26.1423 4.27913 27.5883 5.3273 28.6368C6.37546 29.685 7.81638 30.3355 9.40768 30.3355C10.1926 30.3355 10.8268 30.9752 10.8268 31.7601V35.1845L15.2618 30.755C15.5415 30.4751 15.9017 30.3353 16.2671 30.3353ZM74.9764 82.91H22.1269V91.1563H74.9766V82.91H74.9764Z" fill="#CBCB90"/>
</svg>
