<svg width="900" height="640" viewBox="0 0 900 640" fill="none" xmlns="http://www.w3.org/2000/svg">
<path d="M177.349 199.996C202.397 180.916 209.111 100.923 239.228 91.7312C239.228 91.7312 398.371 47.2311 430.734 20.5134C476.625 -17.3092 548.109 1.90976 594.014 39.7896C639.918 77.6695 774.635 45.8967 827.678 91.7312C880.722 137.566 853.708 245.339 880.722 265.509C907.735 285.68 900.89 315.725 892.803 342.9C882.296 378.161 868.999 416.986 836.506 434.258C812.63 446.937 780.896 446.222 763.233 466.7C755.489 475.687 751.868 487.408 746.715 498.112C722.567 548.284 666.786 573.528 615.313 594.808C552.775 620.681 469.884 624.602 402.408 629.911C367.668 632.645 349.388 651.177 321.777 629.911C291.445 606.557 275.514 564.212 239.228 551.976C203.357 539.884 154.776 560.09 131.172 530.511C125.447 523.355 122.312 514.111 115.141 508.473C101.041 497.382 76.8079 504.308 65.7003 490.227C57.7418 480.124 38.0458 431.282 38.0458 431.282C29.418 402.324 54.8328 385.633 54.3064 361.318C56.3278 347.852 27.9887 350.395 13.9697 347.852C-49.3181 313.196 119.678 247.864 176.719 199.91" fill="white"/>
</svg>
