<svg width="875" height="520" viewBox="0 0 875 520" fill="none" xmlns="http://www.w3.org/2000/svg">
<path d="M80.2428 37.4296C147.713 -4.98254 195.065 32.8658 225.562 25.5286C225.562 25.5286 367.044 46.8545 399.816 25.5286C446.286 -4.66128 677.498 -10.0849 723.982 20.1506C770.466 50.3861 748.054 45.7895 801.766 82.3743C855.479 118.959 828.124 204.983 855.479 221.083C882.833 237.183 875.901 261.165 867.712 282.856C857.073 311.002 843.608 341.991 810.705 355.778C786.529 365.898 754.394 365.327 736.508 381.673C728.667 388.846 725 398.201 719.782 406.745C695.329 446.793 638.845 466.942 586.723 483.928C523.396 504.58 439.46 507.71 371.133 511.947C335.955 514.129 317.444 528.921 289.485 511.947C258.771 493.306 242.639 459.506 205.895 449.74C169.572 440.088 120.378 456.217 96.4766 432.606C90.6788 426.895 87.5046 419.516 80.2428 415.015C65.9658 406.163 41.4267 411.691 30.179 400.452C22.1201 392.387 26.135 380.793 25.8307 370.536C25.5263 360.278 13.1191 307.218 13.1191 307.218C-1.51468 289.154 -2.01938 255.381 9.08213 244.778C49.9275 193.322 -29.8138 114.007 13.1199 78.2709" fill="white"/>
</svg>
