<svg width="104" height="94" viewBox="0 0 104 94" fill="none" xmlns="http://www.w3.org/2000/svg">
<path d="M97.7725 0H5.60703C2.51524 0 0 2.51524 0 5.60703V25.9088C0 26.7527 0.684612 27.4381 1.52933 27.4381C2.37406 27.4381 3.05867 26.7527 3.05867 25.9088V5.60703C3.05867 4.20232 4.20232 3.05867 5.60703 3.05867H97.7725C99.178 3.05867 100.321 4.20232 100.321 5.60703V66.7788C100.321 68.1843 99.1772 69.3272 97.7725 69.3272H66.1108C66.2141 68.6284 66.2685 67.9138 66.2685 67.1858C66.2685 66.4586 66.2141 65.744 66.1108 65.0452H85.9456C86.7903 65.0452 87.4749 64.3606 87.4749 63.5159C87.4749 59.6369 90.6306 56.4812 94.5095 56.4812C95.3542 56.4812 96.0389 55.7966 96.0389 54.9519V28.9375C96.0389 28.0927 95.3542 27.4081 94.5095 27.4081C93.6648 27.4081 92.9802 28.0927 92.9802 28.9375V53.5385C88.6367 54.2018 85.1947 57.643 84.5322 61.9865H65.307C63.2083 56.5088 57.897 52.607 51.6897 52.607C45.4825 52.607 40.1712 56.5088 38.0724 61.9865H18.8473C18.1848 57.643 14.7428 54.2018 10.3993 53.5385V18.8473C14.7428 18.184 18.1848 14.7428 18.8473 10.3993H84.5322C85.1955 14.7428 88.6367 18.184 92.9802 18.8473V21.805C92.9802 22.6498 93.6656 23.3344 94.5095 23.3344C95.3542 23.3344 96.0389 22.6498 96.0389 21.805V17.4339C96.0389 16.5892 95.3542 15.9046 94.5095 15.9046C90.6306 15.9046 87.4749 12.7489 87.4749 8.86998C87.4749 8.02526 86.7903 7.34064 85.9456 7.34064H17.4339C16.5892 7.34064 15.9046 8.02526 15.9046 8.86998C15.9046 12.7489 12.7489 15.9046 8.86998 15.9046C8.02526 15.9046 7.34064 16.5892 7.34064 17.4339V54.9519C7.34064 55.7966 8.02526 56.4812 8.86998 56.4812C12.7489 56.4812 15.9046 59.6369 15.9046 63.5159C15.9046 64.3606 16.5892 65.0452 17.4339 65.0452H37.2687C37.1654 65.7448 37.111 66.4594 37.111 67.1866C37.111 67.9138 37.1654 68.6284 37.2687 69.328H5.60703C4.20153 69.328 3.05867 68.1843 3.05867 66.7788V33.0199C3.05867 32.1752 2.37406 31.4906 1.52933 31.4906C0.684612 31.4906 0 32.1752 0 33.0199V66.7788C0 69.8706 2.51524 72.3858 5.60703 72.3858H38.0724C38.5883 73.733 39.2989 74.9839 40.1689 76.1055V92.4707C40.1689 92.9802 40.4228 93.4558 40.8456 93.7397C41.2684 94.0237 41.8047 94.0789 42.2763 93.8864L51.6897 90.0438L61.1032 93.8864C61.2893 93.9621 61.4857 94 61.6805 94C61.9802 94 62.2784 93.9117 62.5339 93.7397C62.9567 93.4558 63.2106 92.9802 63.2106 92.4707V88.0964C63.2106 87.2517 62.5252 86.5671 61.6813 86.5671C60.8366 86.5671 60.152 87.2517 60.152 88.0964V90.1944L52.2679 86.9764C51.8972 86.8258 51.4823 86.8258 51.1116 86.9764L43.2275 90.1944V79.0474C45.6158 80.7558 48.5364 81.7653 51.6897 81.7653C54.8431 81.7653 57.7637 80.7558 60.152 79.0474V80.9498C60.152 81.7945 60.8366 82.4791 61.6813 82.4791C62.5252 82.4791 63.2106 81.7945 63.2106 80.9498V76.1055C64.0806 74.9839 64.7912 73.733 65.307 72.3858H97.7725C100.864 72.3858 103.379 69.8706 103.379 66.7788V5.60703C103.379 2.51524 100.864 0 97.7725 0ZM51.6897 78.7067C45.3374 78.7067 40.1689 73.539 40.1689 67.1866C40.1689 60.8342 45.3374 55.6657 51.6897 55.6657C58.0421 55.6657 63.2106 60.8342 63.2106 67.1866C63.2106 73.539 58.0421 78.7067 51.6897 78.7067Z" fill="#CBCB90"/>
<path d="M65.1479 20.1866C65.9927 20.1866 66.6773 19.502 66.6773 18.6573C66.6773 17.8125 65.9927 17.1279 65.1479 17.1279H38.232C37.3872 17.1279 36.7026 17.8125 36.7026 18.6573C36.7026 19.502 37.3872 20.1866 38.232 20.1866H65.1479Z" fill="#CBCB90"/>
<path d="M75.3427 25.2841H28.0367C27.1919 25.2841 26.5073 25.9687 26.5073 26.8134C26.5073 27.6581 27.1919 28.3427 28.0367 28.3427H75.3427C76.1874 28.3427 76.872 27.6581 76.872 26.8134C76.872 25.9687 76.1874 25.2841 75.3427 25.2841Z" fill="#CBCB90"/>
<path d="M75.3427 33.4403H28.0367C27.1919 33.4403 26.5073 34.1249 26.5073 34.9696C26.5073 35.8144 27.1919 36.499 28.0367 36.499H75.3427C76.1874 36.499 76.872 35.8144 76.872 34.9696C76.872 34.1249 76.1874 33.4403 75.3427 33.4403Z" fill="#CBCB90"/>
<path d="M75.3426 42.8197H68.002C67.1573 42.8197 66.4727 43.5043 66.4727 44.349C66.4727 45.1938 67.1573 45.8784 68.002 45.8784H75.3426C76.1874 45.8784 76.872 45.1938 76.872 44.349C76.872 43.5043 76.1874 42.8197 75.3426 42.8197V42.8197Z" fill="#CBCB90"/>
<path d="M28.0367 42.8197C27.1919 42.8197 26.5073 43.5043 26.5073 44.349C26.5073 45.1938 27.1919 45.8784 28.0367 45.8784H35.3773C36.222 45.8784 36.9066 45.1938 36.9066 44.349C36.9066 43.5043 36.222 42.8197 35.3773 42.8197H28.0367Z" fill="#CBCB90"/>
<path d="M51.6897 59.1322C47.2484 59.1322 43.6353 62.7453 43.6353 67.1866C43.6353 71.6279 47.2484 75.2411 51.6897 75.2411C56.131 75.2411 59.7441 71.6279 59.7441 67.1866C59.7441 62.7453 56.131 59.1322 51.6897 59.1322ZM51.6897 72.1824C48.9347 72.1824 46.6939 69.9409 46.6939 67.1866C46.6939 64.4316 48.9347 62.1909 51.6897 62.1909C54.4447 62.1909 56.6855 64.4316 56.6855 67.1866C56.6855 69.9409 54.4447 72.1824 51.6897 72.1824Z" fill="#CBCB90"/>
<path d="M46.4907 44.3492C46.4907 47.2162 48.823 49.5484 51.69 49.5484C54.557 49.5484 56.8892 47.2162 56.8892 44.3492C56.8892 41.4822 54.557 39.1499 51.69 39.1499C48.823 39.1499 46.4907 41.4822 46.4907 44.3492ZM53.8314 44.3492C53.8314 45.5299 52.8707 46.4905 51.69 46.4905C50.5093 46.4905 49.5486 45.5299 49.5486 44.3492C49.5486 43.1684 50.5093 42.2078 51.69 42.2078C52.8707 42.2078 53.8314 43.1684 53.8314 44.3492Z" fill="#CBCB90"/>
</svg>
