<svg width="96" height="94" viewBox="0 0 96 94" fill="none" xmlns="http://www.w3.org/2000/svg">
<path d="M68.378 37.561C66.5107 35.0774 63.9874 33.1082 61.1465 31.8849C61.757 30.7589 62.1044 29.4702 62.1044 28.1016V22.2003V19.3901V18.9218C62.1044 15.0479 58.9529 11.8964 55.079 11.8964H42.6595L46.1803 21.0562V28.1018C46.1803 29.4702 46.5275 30.7589 47.1382 31.8851C44.2973 33.1084 41.774 35.0774 39.9067 37.5612C37.5763 40.6605 36.3447 44.3538 36.3447 48.2413V52.8313H39.1549V48.2413C39.1549 41.8795 43.0732 36.3216 48.9873 34.1673C49.0152 34.1909 49.0442 34.213 49.0723 34.2362C49.0813 34.2437 49.0905 34.2508 49.0995 34.2583C49.181 34.325 49.2634 34.39 49.3474 34.4532C49.3768 34.4755 49.4064 34.497 49.4362 34.5189C49.4984 34.5645 49.5609 34.6092 49.6244 34.6529C49.6733 34.6868 49.7228 34.72 49.7724 34.7527C49.8148 34.7805 49.8573 34.8078 49.9002 34.8346C49.9692 34.8783 50.0388 34.9212 50.1093 34.9626C50.1288 34.974 50.1483 34.985 50.1679 34.9963C50.9456 35.4465 51.8057 35.7683 52.7199 35.9339C52.7347 35.9366 52.7493 35.9392 52.7641 35.9418C52.8593 35.9585 52.955 35.9739 53.0513 35.9872C53.0873 35.9922 53.1235 35.9963 53.1594 36.001C53.2396 36.0109 53.3196 36.0205 53.4006 36.0282C53.462 36.034 53.5236 36.0379 53.5853 36.0422C53.645 36.0464 53.7044 36.0514 53.7646 36.0544C53.8903 36.0604 54.0162 36.064 54.1424 36.064C54.2687 36.064 54.3946 36.0604 54.5203 36.0544C54.5804 36.0516 54.6398 36.0465 54.6996 36.0422C54.7612 36.0379 54.8229 36.034 54.8843 36.0282C54.9651 36.0207 55.0452 36.0109 55.1254 36.001C55.1616 35.9965 55.1976 35.9922 55.2335 35.9872C55.3298 35.9739 55.4256 35.9587 55.5207 35.942C55.5355 35.9394 55.5503 35.9368 55.5651 35.9341C56.4794 35.7685 57.3393 35.4467 58.1168 34.9967C58.1364 34.9854 58.1561 34.9742 58.1758 34.9628C58.2462 34.9212 58.3155 34.8784 58.3845 34.8348C58.4274 34.8078 58.4699 34.7807 58.5122 34.7527C58.5619 34.72 58.6112 34.6868 58.6601 34.6531C58.7236 34.6094 58.7863 34.5645 58.8487 34.5189C58.8783 34.4972 58.9079 34.4757 58.9371 34.4534C59.0211 34.39 59.1037 34.325 59.1852 34.2583C59.1942 34.251 59.2034 34.2437 59.2123 34.2362C59.2404 34.213 59.2695 34.1909 59.2974 34.1673C65.2115 36.3216 69.1298 41.8797 69.1298 48.2413H71.94C71.94 44.3538 70.7084 40.6605 68.378 37.561ZM59.2944 28.1018C59.2944 29.5125 58.7239 30.7923 57.8022 31.7238C57.7936 31.7326 57.785 31.7416 57.7764 31.7502C57.7216 31.8045 57.666 31.8579 57.6091 31.9098C57.6068 31.9119 57.6047 31.9139 57.6025 31.9158C56.6873 32.7467 55.4731 33.2538 54.1424 33.2538C52.8117 33.2538 51.5975 32.7468 50.6824 31.9158C50.6801 31.9137 50.6781 31.9117 50.6758 31.9098C50.6189 31.8579 50.563 31.8047 50.5085 31.7502C50.4997 31.7416 50.4913 31.7326 50.4827 31.7238C49.5609 30.7925 48.9905 29.5125 48.9905 28.1018V22.2005H59.2944V28.1018ZM59.2944 19.3903H48.5506L46.7504 14.7067H55.0792C57.4035 14.7067 59.2944 16.5976 59.2944 18.922V19.3903Z" fill="#CBCB90"/>
<path d="M44.7755 47.0237H41.9653V52.8314H44.7755V47.0237Z" fill="#CBCB90"/>
<path d="M14.7066 86.3188H11.8965V94H14.7066V86.3188Z" fill="#CBCB90"/>
<path d="M36.2511 86.3188H33.4409V94H36.2511V86.3188Z" fill="#CBCB90"/>
<path d="M62.4791 86.3188H59.6689V94H62.4791V86.3188Z" fill="#CBCB90"/>
<path d="M84.024 86.3188H81.2139V94H84.024V86.3188Z" fill="#CBCB90"/>
<path d="M38.3093 76.8563C36.4421 74.3726 33.9187 72.4035 31.0778 71.1803C31.5694 70.2724 31.8802 69.2759 31.9896 68.2401H32.0357V67.3971V58.2172C32.0357 54.3433 28.8842 51.1918 25.0103 51.1918H12.5909L13.5836 53.7749C13.6861 54.0415 13.7854 54.309 13.8817 54.5773C13.9223 54.6906 13.9606 54.8049 14.0001 54.9186C14.0537 55.0724 14.1082 55.226 14.1597 55.3804C14.2099 55.5309 14.2573 55.6819 14.3056 55.8329C14.3433 55.9501 14.3819 56.0672 14.4182 56.1847C14.4728 56.361 14.5245 56.538 14.5764 56.7151C14.6031 56.8065 14.6311 56.8975 14.6573 56.9891C14.7137 57.1868 14.7673 57.385 14.8203 57.5834C14.8392 57.654 14.8591 57.7245 14.8774 57.7951C14.9336 58.0102 14.9872 58.2258 15.0395 58.4416C15.0526 58.4954 15.0663 58.549 15.079 58.6027C15.1339 58.833 15.186 59.064 15.2366 59.2952C15.245 59.3341 15.254 59.3729 15.2624 59.4117C15.3149 59.6552 15.3645 59.8995 15.4121 60.144C15.4172 60.1704 15.4226 60.1967 15.4276 60.2231C15.4765 60.4779 15.5228 60.7334 15.5667 60.9891C15.5695 61.0051 15.5723 61.021 15.5749 61.0371C15.6199 61.3022 15.662 61.5678 15.7014 61.8341C15.7023 61.8402 15.7032 61.8464 15.7042 61.8526C15.947 63.5029 16.0809 65.1725 16.1051 66.8553L16.1058 66.9058C16.1079 67.0696 16.1115 67.2333 16.1115 67.3972C16.1115 67.4489 16.1141 67.5003 16.115 67.5518L16.1248 68.2403H16.1574C16.267 69.2761 16.5776 70.2726 17.0692 71.1805C14.2283 72.4038 11.7049 74.3728 9.83767 76.8566C7.50748 79.9557 6.27588 83.649 6.27588 87.5366V93.9999H9.08604V87.5366C9.08604 80.9728 13.2578 75.2644 19.4885 73.2673H28.6587C34.8893 75.2644 39.0611 80.9728 39.0611 87.5366V93.9999H41.8713V87.5366C41.8713 83.649 40.6397 79.9557 38.3093 76.8563ZM28.2173 70.4571H19.9301C19.4439 69.8009 19.124 69.0423 18.9915 68.2401H29.1559C29.0234 69.0423 28.7034 69.8009 28.2173 70.4571ZM29.2256 65.4299H18.8729C18.7466 62.7908 18.366 60.1845 17.7348 57.6308C17.7202 57.5718 17.7061 57.5128 17.6913 57.4539C17.6494 57.2872 17.6057 57.1208 17.5615 56.9547C17.5368 56.8614 17.5119 56.7679 17.4866 56.6748C17.4461 56.5264 17.4047 56.3782 17.3625 56.2302C17.3301 56.1161 17.2968 56.0024 17.2632 55.8885C17.2241 55.7557 17.1849 55.6228 17.1443 55.4902C17.1023 55.3529 17.0589 55.2159 17.0154 55.079C16.98 54.9675 16.9455 54.856 16.9092 54.7449C16.835 54.5177 16.7585 54.2912 16.6802 54.0651C16.6729 54.0441 16.6664 54.0229 16.6591 54.0021H25.0103V54.0019C27.3347 54.0019 29.2256 55.8928 29.2256 58.2172V65.4299Z" fill="#CBCB90"/>
<path d="M86.0821 76.8563C84.2152 74.3726 81.692 72.4035 78.851 71.1801C79.3426 70.2722 79.6532 69.2757 79.7628 68.2401H79.8089V67.3971V58.2172C79.8089 54.3433 76.6574 51.1918 72.7834 51.1918H60.3636L61.3568 53.7749C61.4592 54.0415 61.5583 54.309 61.6548 54.5773C61.6958 54.6916 61.7343 54.8066 61.7742 54.921C61.8275 55.0741 61.8817 55.2268 61.9328 55.3802C61.9834 55.532 62.0314 55.6845 62.0801 55.8368C62.1172 55.9526 62.1554 56.0682 62.1914 56.1843C62.2463 56.3617 62.2983 56.5397 62.3504 56.7177C62.377 56.8082 62.4046 56.8983 62.4304 56.989C62.4868 57.1866 62.5404 57.3848 62.5934 57.5832C62.6123 57.654 62.6322 57.7247 62.6507 57.7955C62.7068 58.0094 62.76 58.2239 62.812 58.4386C62.8255 58.4937 62.8396 58.5488 62.8527 58.6039C62.9072 58.8328 62.9591 59.0623 63.0091 59.292C63.0179 59.3324 63.0273 59.3727 63.0359 59.413C63.088 59.655 63.1373 59.8975 63.1845 60.1405C63.1899 60.1686 63.1957 60.1967 63.2012 60.225C63.2497 60.4779 63.2956 60.7313 63.339 60.9852C63.3422 61.0034 63.3454 61.0214 63.3484 61.0395C63.3928 61.3018 63.4346 61.5646 63.4736 61.8281C63.4749 61.8376 63.4764 61.8472 63.4779 61.8565C63.5176 62.1271 63.5545 62.3981 63.5884 62.6698C63.5886 62.672 63.589 62.6741 63.5893 62.6764C63.7617 64.0578 63.8582 65.4519 63.8782 66.8551L63.8784 66.874C63.8808 67.0484 63.8844 67.2224 63.8844 67.3971C63.8844 67.4519 63.8872 67.5066 63.8883 67.5615L63.8981 68.2401H63.9305C64.0401 69.2759 64.3507 70.2722 64.8423 71.1801C62.0014 72.4035 59.4781 74.3724 57.6108 76.8563C55.2806 79.9557 54.0488 83.6488 54.0488 87.5366V93.9999H56.859V87.5366C56.859 80.9728 61.0308 75.2644 67.2613 73.2673H76.4316C82.6623 75.2644 86.8339 80.9728 86.8339 87.5366V93.9999H89.6441V87.5366C89.6441 83.649 88.4125 79.9557 86.0821 76.8563ZM75.9904 70.4571H67.703C67.2171 69.8007 66.8971 69.0423 66.7646 68.2401H76.9288C76.7964 69.0423 76.4764 69.8007 75.9904 70.4571ZM76.9987 65.4299H66.646C66.52 62.7946 66.14 60.192 65.5105 57.6415C65.4948 57.5778 65.4796 57.5141 65.4635 57.4504C65.4223 57.287 65.3796 57.1238 65.3363 56.9609C65.3107 56.8638 65.2848 56.767 65.2584 56.6703C65.2187 56.5249 65.1782 56.3799 65.1368 56.2349C65.1031 56.1169 65.0688 55.999 65.034 55.8812C64.9959 55.7521 64.9579 55.623 64.9184 55.4943C64.8745 55.3506 64.829 55.2075 64.7835 55.0644C64.7501 54.9593 64.7175 54.8542 64.6832 54.7493C64.6017 54.4995 64.5182 54.2504 64.4318 54.0021H72.7834V54.0019C75.1076 54.0019 76.9987 55.8928 76.9987 58.2172V65.4299Z" fill="#CBCB90"/>
<path d="M3.74689 83.2277H0V86.0378H3.74689V83.2277Z" fill="#CBCB90"/>
<path d="M95.9202 83.2277H92.1733V86.0378H95.9202V83.2277Z" fill="#CBCB90"/>
<path d="M50.7702 83.2277H45.1499V86.0378H50.7702V83.2277Z" fill="#CBCB90"/>
<path fill-rule="evenodd" clip-rule="evenodd" d="M0.09375 0H90.7684V47.5854H77.1824V45.15H88.3329V2.43548H2.52923V45.15H33.0628V47.5854H0.09375V0Z" fill="#CBCB90"/>
<path d="M70.6288 10.7723C72.385 10.7723 73.8136 9.3436 73.8136 7.58737C73.8136 5.83128 72.3849 4.40259 70.6288 4.40259C68.8727 4.40259 67.4438 5.83115 67.4438 7.58737C67.4438 9.3436 68.8725 10.7723 70.6288 10.7723V10.7723ZM70.6288 6.38762C71.2903 6.38762 71.8285 6.92583 71.8285 7.58737C71.8285 8.24905 71.2903 8.78726 70.6288 8.78726C69.9672 8.78726 69.429 8.24905 69.429 7.58737C69.4289 6.92583 69.9672 6.38762 70.6288 6.38762Z" fill="#CBCB90"/>
<path d="M11.7217 40.2129C11.7217 40.9889 12.3506 41.618 13.1268 41.618C13.9029 41.618 14.5318 40.9889 14.5318 40.2129V37.1092C14.5318 36.3332 13.9029 35.7041 13.1268 35.7041C12.3506 35.7041 11.7217 36.3332 11.7217 37.1092V40.2129Z" fill="#CBCB90"/>
<path d="M13.1268 33.3596C13.9029 33.3596 14.5318 32.7305 14.5318 31.9546V28.851C14.5318 28.075 13.9029 27.4459 13.1268 27.4459C12.3506 27.4459 11.7217 28.075 11.7217 28.851V31.9546C11.7217 32.7305 12.3508 33.3596 13.1268 33.3596Z" fill="#CBCB90"/>
<path d="M16.1786 24.8899C15.9733 25.0951 15.7043 25.1978 15.4354 25.1978C15.1665 25.1978 14.8975 25.0952 14.6922 24.8899L13.1141 23.3117L11.5361 24.8899C11.3308 25.0952 11.0619 25.1978 10.7929 25.1978C10.524 25.1978 10.255 25.0952 10.0497 24.8899C9.63934 24.4795 9.63934 23.8141 10.0497 23.4038L11.6278 21.8256L10.0497 20.2474C9.63934 19.837 9.63934 19.1715 10.0497 18.7612C10.4603 18.3508 11.1255 18.3508 11.5359 18.7612L13.114 20.3394L14.6921 18.7612C15.1025 18.3508 15.7678 18.3507 16.1783 18.7612C16.5887 19.1717 16.5887 19.8371 16.1783 20.2474L14.6002 21.8256L16.1783 23.4038C16.589 23.8142 16.589 24.4796 16.1786 24.8899Z" fill="#CBCB90"/>
<path d="M29.1222 34.2937C28.7345 33.9061 28.1062 33.9061 27.7186 34.2937L26.2282 35.7842L24.7378 34.2937C24.3502 33.9061 23.7219 33.9059 23.3341 34.2937C22.9466 34.6813 22.9466 35.3098 23.3341 35.6972L24.8246 37.1879L23.3341 38.6784C22.9466 39.066 22.9466 39.6944 23.3341 40.0819C23.528 40.2756 23.7821 40.3726 24.036 40.3726C24.29 40.3726 24.544 40.2758 24.7379 40.0819L26.2283 38.5914L27.7187 40.0819C27.9126 40.2758 28.1665 40.3726 28.4206 40.3726C28.6745 40.3726 28.9286 40.2758 29.1225 40.0819C29.5101 39.6943 29.5101 39.0658 29.1225 38.6784L27.6321 37.1879L29.1225 35.6972C29.5097 35.3096 29.5097 34.6812 29.1222 34.2937V34.2937Z" fill="#CBCB90"/>
<path d="M82.3365 31.2877C81.9602 30.9115 81.3504 30.9115 80.9742 31.2877L79.5276 32.7344L78.081 31.2877C77.7048 30.9115 77.095 30.9114 76.7187 31.2877C76.3425 31.6639 76.3425 32.2739 76.7187 32.65L78.1652 34.0967L76.7187 35.5434C76.3425 35.9196 76.3425 36.5296 76.7187 36.9057C76.9068 37.0937 77.1534 37.1879 77.3999 37.1879C77.6464 37.1879 77.893 37.0938 78.0811 36.9057L79.5277 35.459L80.9743 36.9057C81.1624 37.0938 81.4089 37.1879 81.6555 37.1879C81.902 37.1879 82.1486 37.0938 82.3367 36.9057C82.7129 36.5295 82.7129 35.9195 82.3367 35.5434L80.8902 34.0967L82.3367 32.65C82.7127 32.2738 82.7127 31.6638 82.3365 31.2877V31.2877Z" fill="#CBCB90"/>
<path fill-rule="evenodd" clip-rule="evenodd" d="M70.1676 12.5009C70.5334 12.1351 71.1265 12.1351 71.4923 12.5009L74.7635 15.911C75.1293 16.2768 75.1293 16.8699 74.7635 17.2357C74.3977 17.6015 73.8046 17.6015 73.4388 17.2357L71.7667 15.4247V27.9143H65.1956V26.0409H69.8932V15.4247L68.0822 17.2357C67.7164 17.6015 67.1233 17.6015 66.7575 17.2357C66.3917 16.8699 66.3917 16.2768 66.7575 15.911L70.1676 12.5009ZM41.5903 27.9143H22.1064V26.0409H41.5903V27.9143Z" fill="#CBCB90"/>
</svg>
