<svg width="40" height="40" viewBox="0 0 40 40" fill="none" xmlns="http://www.w3.org/2000/svg">
<g clip-path="url(#clip0)">
<path d="M35.0938 3.4375H31.3698V2.34375C31.3698 1.05141 30.3184 0 29.026 0C27.7337 0 26.6823 1.05141 26.6823 2.34375V3.4375H13.5573V2.34375C13.5573 1.05141 12.5059 0 11.2135 0C9.92117 0 8.86977 1.05141 8.86977 2.34375V3.46641C8.80336 3.44805 8.73375 3.4375 8.66148 3.4375H5.54867C3.39477 3.4375 1.64242 5.18984 1.64242 7.34375V20.651C1.64242 21.0825 1.99227 21.4323 2.42367 21.4323C2.85508 21.4323 3.20492 21.0825 3.20492 20.651V11.4844H31.3698C31.8012 11.4844 32.151 11.1346 32.151 10.7031C32.151 10.2716 31.8012 9.92188 31.3698 9.92188H3.20492V7.34375C3.20492 6.05141 4.25633 5 5.54867 5H8.66148C8.73375 5 8.80336 4.98938 8.86977 4.97109V5.97656C8.86977 7.26891 9.92117 8.32031 11.2135 8.32031C12.5059 8.32031 13.5573 7.26891 13.5573 5.97656V5H26.6823V5.97656C26.6823 7.26891 27.7337 8.32031 29.026 8.32031C30.3184 8.32031 31.3698 7.26891 31.3698 5.97656V5H35.0938C36.3861 5 37.4375 6.05141 37.4375 7.34375V37.0308C37.4375 37.8064 36.8065 38.4375 36.0308 38.4375C35.2551 38.4375 34.6241 37.8064 34.6241 37.0308V35.0098C34.6241 34.5783 34.2742 34.2285 33.8428 34.2285H24.7552C24.3238 34.2285 23.974 34.5783 23.974 35.0098C23.974 35.4412 24.3238 35.791 24.7552 35.791H33.0616V37.0308C33.0616 37.5395 33.1903 38.0185 33.4166 38.4375H1.96875C1.19336 38.4375 0.5625 37.8066 0.5625 37.0312V35.791H18.0488C18.4802 35.791 18.8301 35.4412 18.8301 35.0098C18.8301 34.5783 18.4802 34.2285 18.0488 34.2285H10.2429C11.608 33.0528 12.4749 31.3137 12.4749 29.375C12.4749 25.8426 9.60109 22.9688 6.06867 22.9688C2.53625 22.9688 -0.337578 25.8426 -0.337578 29.375C-0.337578 31.3137 0.529297 33.0528 1.89445 34.2285H-0.21875C-0.650156 34.2285 -1 34.5783 -1 35.0098V37.0312C-1 38.6682 0.331797 40 1.96875 40H36.0308C37.668 40 39 38.668 39 37.0308V7.34375C39 5.18984 37.2477 3.4375 35.0938 3.4375ZM11.9948 5.97656C11.9948 6.40734 11.6443 6.75781 11.2135 6.75781C10.7827 6.75781 10.4323 6.40734 10.4323 5.97656V2.34375C10.4323 1.91297 10.7827 1.5625 11.2135 1.5625C11.6443 1.5625 11.9948 1.91297 11.9948 2.34375V5.97656ZM29.8073 5.97656C29.8073 6.40734 29.4568 6.75781 29.026 6.75781C28.5952 6.75781 28.2448 6.40734 28.2448 5.97656V2.34375C28.2448 1.91297 28.5952 1.5625 29.026 1.5625C29.4568 1.5625 29.8073 1.91297 29.8073 2.34375V5.97656ZM1.22492 29.375C1.22492 26.7041 3.39781 24.5312 6.06867 24.5312C8.73953 24.5312 10.9124 26.7041 10.9124 29.375C10.9124 32.0459 8.73953 34.2188 6.06867 34.2188C3.39781 34.2188 1.22492 32.0459 1.22492 29.375Z" fill="white"/>
<path d="M35.5867 10.1508C35.4415 10.0055 35.2399 9.92188 35.0344 9.92188C34.8289 9.92188 34.6274 10.0055 34.4821 10.1508C34.3368 10.2961 34.2532 10.4977 34.2532 10.7031C34.2532 10.9086 34.3367 11.1102 34.4821 11.2555C34.6275 11.4008 34.8289 11.4844 35.0344 11.4844C35.2399 11.4844 35.4415 11.4008 35.5867 11.2555C35.732 11.1102 35.8157 10.9086 35.8157 10.7031C35.8157 10.4977 35.7321 10.2961 35.5867 10.1508Z" fill="white"/>
<path d="M22.3318 34.457C22.1866 34.3117 21.985 34.2289 21.7795 34.2289C21.5741 34.2289 21.3725 34.3117 21.2272 34.457C21.0819 34.6031 20.9983 34.8039 20.9983 35.0094C20.9983 35.2156 21.0818 35.4164 21.2272 35.5625C21.3725 35.7078 21.5741 35.7906 21.7795 35.7906C21.985 35.7906 22.1866 35.7078 22.3318 35.5625C22.4771 35.4164 22.5608 35.2149 22.5608 35.0094C22.5608 34.8039 22.4772 34.6031 22.3318 34.457Z" fill="white"/>
<path d="M16.6753 23.75C15.0383 23.75 13.7065 25.0818 13.7065 26.7188C13.7065 28.3557 15.0383 29.6875 16.6753 29.6875C18.3122 29.6875 19.644 28.3557 19.644 26.7188C19.644 25.0818 18.3122 23.75 16.6753 23.75ZM16.6753 28.125C15.8999 28.125 15.269 27.4941 15.269 26.7188C15.269 25.9434 15.8999 25.3125 16.6753 25.3125C17.4507 25.3125 18.0815 25.9434 18.0815 26.7188C18.0815 27.4941 17.4507 28.125 16.6753 28.125Z" fill="white"/>
<path d="M23.9668 23.75C22.3298 23.75 20.998 25.0818 20.998 26.7188C20.998 28.3557 22.3298 29.6875 23.9668 29.6875C25.6037 29.6875 26.9355 28.3557 26.9355 26.7188C26.9355 25.0818 25.6037 23.75 23.9668 23.75ZM23.9668 28.125C23.1914 28.125 22.5605 27.4941 22.5605 26.7188C22.5605 25.9434 23.1914 25.3125 23.9668 25.3125C24.7422 25.3125 25.373 25.9434 25.373 26.7188C25.373 27.4941 24.7422 28.125 23.9668 28.125Z" fill="white"/>
<path d="M31.2585 23.75C29.6216 23.75 28.2898 25.0818 28.2898 26.7188C28.2898 28.3557 29.6216 29.6875 31.2585 29.6875C32.8955 29.6875 34.2273 28.3557 34.2273 26.7188C34.2273 25.0818 32.8955 23.75 31.2585 23.75ZM31.2585 28.125C30.4832 28.125 29.8523 27.4941 29.8523 26.7188C29.8523 25.9434 30.4832 25.3125 31.2585 25.3125C32.0339 25.3125 32.6648 25.9434 32.6648 26.7188C32.6648 27.4941 32.0339 28.125 31.2585 28.125Z" fill="white"/>
<path d="M9.38379 15.625C7.74684 15.625 6.41504 16.9568 6.41504 18.5938C6.41504 20.2307 7.74684 21.5625 9.38379 21.5625C11.0207 21.5625 12.3525 20.2307 12.3525 18.5938C12.3525 16.9568 11.0207 15.625 9.38379 15.625ZM9.38379 20C8.6084 20 7.97754 19.3691 7.97754 18.5938C7.97754 17.8184 8.6084 17.1875 9.38379 17.1875C10.1592 17.1875 10.79 17.8184 10.79 18.5938C10.79 19.3691 10.1592 20 9.38379 20Z" fill="white"/>
<path d="M23.9668 15.625C22.3298 15.625 20.998 16.9568 20.998 18.5938C20.998 20.2307 22.3298 21.5625 23.9668 21.5625C25.6037 21.5625 26.9355 20.2307 26.9355 18.5938C26.9355 16.9568 25.6037 15.625 23.9668 15.625ZM23.9668 20C23.1914 20 22.5605 19.3691 22.5605 18.5938C22.5605 17.8184 23.1914 17.1875 23.9668 17.1875C24.7422 17.1875 25.373 17.8184 25.373 18.5938C25.373 19.3691 24.7422 20 23.9668 20Z" fill="white"/>
<path d="M31.2585 15.625C29.6216 15.625 28.2898 16.9568 28.2898 18.5938C28.2898 20.2307 29.6216 21.5625 31.2585 21.5625C32.8955 21.5625 34.2273 20.2307 34.2273 18.5938C34.2273 16.9568 32.8955 15.625 31.2585 15.625ZM31.2585 20C30.4832 20 29.8523 19.3691 29.8523 18.5938C29.8523 17.8184 30.4832 17.1875 31.2585 17.1875C32.0339 17.1875 32.6648 17.8184 32.6648 18.5938C32.6648 19.3691 32.0339 20 31.2585 20Z" fill="white"/>
<path d="M16.6753 15.625C15.0383 15.625 13.7065 16.9568 13.7065 18.5938C13.7065 20.2307 15.0383 21.5625 16.6753 21.5625C18.3122 21.5625 19.644 20.2307 19.644 18.5938C19.644 16.9568 18.3122 15.625 16.6753 15.625ZM16.6753 20C15.8999 20 15.269 19.3691 15.269 18.5938C15.269 17.8184 15.8999 17.1875 16.6753 17.1875C17.4507 17.1875 18.0815 17.8184 18.0815 18.5938C18.0815 19.3691 17.4507 20 16.6753 20Z" fill="white"/>
<path d="M8.85195 27.471C8.54679 27.1659 8.05226 27.1659 7.74703 27.471L5.20281 30.0153L4.33336 29.1459C4.02821 28.8408 3.53368 28.8408 3.22844 29.1459C2.92336 29.451 2.92336 29.9456 3.22844 30.2508L4.65039 31.6726C4.79696 31.8191 4.99563 31.9014 5.20281 31.9014C5.41 31.9014 5.60867 31.8191 5.75524 31.6726L8.85195 28.5759C9.15703 28.2708 9.15703 27.7761 8.85195 27.471Z" fill="white"/>
</g>
<defs>
<clipPath id="clip0">
<rect width="40" height="40" fill="white"/>
</clipPath>
</defs>
</svg>
