<svg width="623" height="704" viewBox="0 0 623 704" fill="none" xmlns="http://www.w3.org/2000/svg">
<mask id="path-1-inside-1" fill="white">
<path fill-rule="evenodd" clip-rule="evenodd" d="M493.866 0.385108C490.406 1.1119 486.329 2.49539 479.297 5.32918C467.463 10.0982 462.976 11.4521 452.791 13.3267C444.014 14.9421 433.971 15.7926 416.79 16.3764C397.211 17.0416 395.327 17.1822 380.837 19.062C369.474 20.5358 367.287 20.6873 359.923 20.5128C352.992 20.3481 350.441 20.0673 343.708 18.729C336.515 17.2994 334.899 17.139 327.494 17.1216C320.551 17.1046 318.647 17.2608 315.275 18.1231C313.078 18.6847 304.829 20.445 296.946 22.035C289.062 23.6255 280.022 25.5575 276.856 26.3285C268.176 28.443 257.349 32.1297 251.855 34.8421C247.398 37.0422 246.383 37.8114 240.81 43.2108C236.868 47.0301 233.497 49.8394 231.384 51.0658C223.091 55.8796 212.579 60.5014 205.504 62.4447C194.872 65.3641 190.717 65.6299 175.691 64.3522C155.035 62.5962 146.924 63.5751 135.997 69.1439C133.919 70.2033 131.478 71.7519 130.573 72.5859C129.669 73.4195 128.257 74.6129 127.437 75.2376C126.079 76.2721 117.211 86.3145 114.903 89.431C114.375 90.1446 112.305 92.111 110.304 93.8016C105.437 97.9126 101.337 104.49 98.4406 112.831C96.8455 117.425 94.8608 130.275 94.8344 136.178C94.8213 139.155 94.5567 141.496 94.0975 142.703C93.7032 143.738 93.1881 145.355 92.9522 146.298C92.7162 147.24 91.4826 149.523 90.2103 151.372C88.8272 153.382 87.1921 156.663 86.1422 159.537C85.1769 162.18 83.1738 166.776 81.6906 169.752C80.2073 172.727 77.9933 177.49 76.7699 180.336C75.5466 183.182 73.113 188.686 71.3619 192.567C69.6107 196.448 68.0241 200.152 67.8356 200.799C67.6476 201.446 65.9059 205.997 63.9658 210.913C62.0258 215.829 59.5382 222.391 58.4375 225.496C55.8188 232.884 53.3293 239.306 52.3456 241.209C51.9118 242.049 51.1688 244.149 50.6941 245.876C50.2194 247.604 49.295 250.499 48.6394 252.31C46.3741 258.567 44.5985 265.498 44.1201 269.95C43.8559 272.408 43.4503 275.072 43.2191 275.87C42.9874 276.668 42.6528 278.679 42.4756 280.339C42.2984 281.999 41.444 286.215 40.5774 289.708C37.1414 303.558 36.8462 308.544 38.1274 331.104C39.6811 358.467 40.0181 368.184 39.6802 375.871C39.4945 380.098 39.1599 388.636 38.9372 394.846C38.3737 410.52 37.0098 417.195 29.8013 439.556C24.0821 457.296 23.6704 458.375 19.4951 466.571C6.34419 492.385 5.77223 493.72 4.3355 501.948C2.9674 509.783 3.72359 515.769 7.71183 528.679C9.48552 534.42 9.52876 534.731 9.54145 541.85C9.5532 548.594 9.43477 549.619 7.96421 555.492C7.08958 558.985 5.25995 565.037 3.89843 568.941C0.702108 578.103 -0.259939 582.805 0.0572962 587.707C0.376411 592.644 0.848739 594.059 3.79785 598.92C8.26358 606.279 15.2413 612.924 23.1558 617.354C30.4649 621.445 42.4108 625.288 54.6043 627.47C60.9439 628.605 66.7194 630.58 69.7028 632.635C74.843 636.174 77.7512 641.522 83.7777 658.513C85.6581 663.815 91.0004 677.108 92.8869 681.179C95.6094 687.054 97.8846 690.34 102.11 694.5C107.827 700.127 112.379 702.523 119.564 703.685C125.722 704.681 131.335 703.443 144.617 698.162C163.251 690.753 173.555 688.91 203.185 687.685C223.938 686.826 231.584 686.251 244.778 684.554C259.035 682.721 266.095 682.607 272.888 684.1C281.273 685.944 288.784 686.856 295.536 686.848C301.602 686.842 303.228 686.651 310.34 685.115C314.734 684.167 322.031 682.665 326.554 681.778C350.96 676.995 367.4 671.92 375.071 666.801C376.433 665.893 379.992 662.757 382.981 659.831C387.838 655.076 389.034 654.18 394.26 651.381C411.829 641.971 424.261 638.368 437.234 638.924C440.594 639.068 445.459 639.414 448.043 639.693C454.395 640.377 468.976 640.397 472.607 639.726C484.316 637.563 493.319 632.036 501.661 621.892C503.928 619.136 508.453 614.236 511.717 611.001C517.105 605.665 517.907 604.645 520.391 599.965C521.897 597.129 523.638 593.319 524.26 591.498C525.88 586.755 527.704 575.744 528.149 568.014C528.592 560.311 529.494 557.328 533.018 551.903C534.217 550.058 535.707 546.989 536.331 545.082C536.954 543.175 539.254 537.911 541.44 533.383C543.627 528.855 545.961 523.88 546.629 522.328C547.296 520.776 548.901 517.177 550.197 514.331C553.084 507.988 554.646 504.183 556.377 499.278C557.107 497.208 558.541 493.5 559.563 491.037C560.585 488.574 562.389 483.811 563.57 480.452C566.186 473.016 569.382 465.247 573.477 456.37C577.805 446.988 580.384 439.748 582.858 430.039C585.561 419.426 587.254 410.109 587.843 402.607C588.097 399.373 588.541 394.092 588.831 390.872C589.427 384.226 588.839 371.304 587.631 364.504C587.241 362.305 586.702 358.177 586.436 355.331C586.169 352.485 585.519 347.722 584.993 344.746C584.205 340.299 583.987 336.49 583.767 323.342C583.315 296.408 584.275 290.976 595.538 256.779C599.623 244.375 601.241 240.68 608.255 227.75C620.276 205.586 621.593 196.399 615.557 176.806C613.805 171.12 612.771 165.714 612.771 162.245C612.771 156.359 615.01 146.599 619.328 133.664C622.652 123.706 623.492 119.004 622.749 114.515C621.737 108.403 617.659 101.74 610.849 95.0732C601.739 86.1541 590.845 81.1917 571.413 77.1108C559.46 74.6007 556.798 73.7568 553.191 71.3322C548.669 68.2929 546.06 64.0281 541.603 52.383C530.277 22.7924 528.602 19.0192 524.272 13.3385C519.6 7.20802 512.647 2.4173 505.87 0.65842C502.994 -0.0876595 496.79 -0.228784 493.866 0.385108Z"/>
</mask>
<path fill-rule="evenodd" clip-rule="evenodd" d="M493.866 0.385108C490.406 1.1119 486.329 2.49539 479.297 5.32918C467.463 10.0982 462.976 11.4521 452.791 13.3267C444.014 14.9421 433.971 15.7926 416.79 16.3764C397.211 17.0416 395.327 17.1822 380.837 19.062C369.474 20.5358 367.287 20.6873 359.923 20.5128C352.992 20.3481 350.441 20.0673 343.708 18.729C336.515 17.2994 334.899 17.139 327.494 17.1216C320.551 17.1046 318.647 17.2608 315.275 18.1231C313.078 18.6847 304.829 20.445 296.946 22.035C289.062 23.6255 280.022 25.5575 276.856 26.3285C268.176 28.443 257.349 32.1297 251.855 34.8421C247.398 37.0422 246.383 37.8114 240.81 43.2108C236.868 47.0301 233.497 49.8394 231.384 51.0658C223.091 55.8796 212.579 60.5014 205.504 62.4447C194.872 65.3641 190.717 65.6299 175.691 64.3522C155.035 62.5962 146.924 63.5751 135.997 69.1439C133.919 70.2033 131.478 71.7519 130.573 72.5859C129.669 73.4195 128.257 74.6129 127.437 75.2376C126.079 76.2721 117.211 86.3145 114.903 89.431C114.375 90.1446 112.305 92.111 110.304 93.8016C105.437 97.9126 101.337 104.49 98.4406 112.831C96.8455 117.425 94.8608 130.275 94.8344 136.178C94.8213 139.155 94.5567 141.496 94.0975 142.703C93.7032 143.738 93.1881 145.355 92.9522 146.298C92.7162 147.24 91.4826 149.523 90.2103 151.372C88.8272 153.382 87.1921 156.663 86.1422 159.537C85.1769 162.18 83.1738 166.776 81.6906 169.752C80.2073 172.727 77.9933 177.49 76.7699 180.336C75.5466 183.182 73.113 188.686 71.3619 192.567C69.6107 196.448 68.0241 200.152 67.8356 200.799C67.6476 201.446 65.9059 205.997 63.9658 210.913C62.0258 215.829 59.5382 222.391 58.4375 225.496C55.8188 232.884 53.3293 239.306 52.3456 241.209C51.9118 242.049 51.1688 244.149 50.6941 245.876C50.2194 247.604 49.295 250.499 48.6394 252.31C46.3741 258.567 44.5985 265.498 44.1201 269.95C43.8559 272.408 43.4503 275.072 43.2191 275.87C42.9874 276.668 42.6528 278.679 42.4756 280.339C42.2984 281.999 41.444 286.215 40.5774 289.708C37.1414 303.558 36.8462 308.544 38.1274 331.104C39.6811 358.467 40.0181 368.184 39.6802 375.871C39.4945 380.098 39.1599 388.636 38.9372 394.846C38.3737 410.52 37.0098 417.195 29.8013 439.556C24.0821 457.296 23.6704 458.375 19.4951 466.571C6.34419 492.385 5.77223 493.72 4.3355 501.948C2.9674 509.783 3.72359 515.769 7.71183 528.679C9.48552 534.42 9.52876 534.731 9.54145 541.85C9.5532 548.594 9.43477 549.619 7.96421 555.492C7.08958 558.985 5.25995 565.037 3.89843 568.941C0.702108 578.103 -0.259939 582.805 0.0572962 587.707C0.376411 592.644 0.848739 594.059 3.79785 598.92C8.26358 606.279 15.2413 612.924 23.1558 617.354C30.4649 621.445 42.4108 625.288 54.6043 627.47C60.9439 628.605 66.7194 630.58 69.7028 632.635C74.843 636.174 77.7512 641.522 83.7777 658.513C85.6581 663.815 91.0004 677.108 92.8869 681.179C95.6094 687.054 97.8846 690.34 102.11 694.5C107.827 700.127 112.379 702.523 119.564 703.685C125.722 704.681 131.335 703.443 144.617 698.162C163.251 690.753 173.555 688.91 203.185 687.685C223.938 686.826 231.584 686.251 244.778 684.554C259.035 682.721 266.095 682.607 272.888 684.1C281.273 685.944 288.784 686.856 295.536 686.848C301.602 686.842 303.228 686.651 310.34 685.115C314.734 684.167 322.031 682.665 326.554 681.778C350.96 676.995 367.4 671.92 375.071 666.801C376.433 665.893 379.992 662.757 382.981 659.831C387.838 655.076 389.034 654.18 394.26 651.381C411.829 641.971 424.261 638.368 437.234 638.924C440.594 639.068 445.459 639.414 448.043 639.693C454.395 640.377 468.976 640.397 472.607 639.726C484.316 637.563 493.319 632.036 501.661 621.892C503.928 619.136 508.453 614.236 511.717 611.001C517.105 605.665 517.907 604.645 520.391 599.965C521.897 597.129 523.638 593.319 524.26 591.498C525.88 586.755 527.704 575.744 528.149 568.014C528.592 560.311 529.494 557.328 533.018 551.903C534.217 550.058 535.707 546.989 536.331 545.082C536.954 543.175 539.254 537.911 541.44 533.383C543.627 528.855 545.961 523.88 546.629 522.328C547.296 520.776 548.901 517.177 550.197 514.331C553.084 507.988 554.646 504.183 556.377 499.278C557.107 497.208 558.541 493.5 559.563 491.037C560.585 488.574 562.389 483.811 563.57 480.452C566.186 473.016 569.382 465.247 573.477 456.37C577.805 446.988 580.384 439.748 582.858 430.039C585.561 419.426 587.254 410.109 587.843 402.607C588.097 399.373 588.541 394.092 588.831 390.872C589.427 384.226 588.839 371.304 587.631 364.504C587.241 362.305 586.702 358.177 586.436 355.331C586.169 352.485 585.519 347.722 584.993 344.746C584.205 340.299 583.987 336.49 583.767 323.342C583.315 296.408 584.275 290.976 595.538 256.779C599.623 244.375 601.241 240.68 608.255 227.75C620.276 205.586 621.593 196.399 615.557 176.806C613.805 171.12 612.771 165.714 612.771 162.245C612.771 156.359 615.01 146.599 619.328 133.664C622.652 123.706 623.492 119.004 622.749 114.515C621.737 108.403 617.659 101.74 610.849 95.0732C601.739 86.1541 590.845 81.1917 571.413 77.1108C559.46 74.6007 556.798 73.7568 553.191 71.3322C548.669 68.2929 546.06 64.0281 541.603 52.383C530.277 22.7924 528.602 19.0192 524.272 13.3385C519.6 7.20802 512.647 2.4173 505.87 0.65842C502.994 -0.0876595 496.79 -0.228784 493.866 0.385108Z" stroke="#91584E" stroke-width="20" mask="url(#path-1-inside-1)"/>
</svg>
