<svg width="24" height="24" viewBox="0 0 24 24" fill="none" xmlns="http://www.w3.org/2000/svg">
<path d="M1.43807 1.43807C2.02385 0.852285 2.9736 0.852285 3.55939 1.43807L23.5579 21.4366C24.1437 22.0224 24.1437 22.9721 23.5579 23.5579C22.9721 24.1437 22.0224 24.1437 21.4366 23.5579L1.43807 3.55939C0.852279 2.9736 0.85228 2.02386 1.43807 1.43807Z" fill="white"/>
<path d="M23.5577 1.43806C24.1435 2.02384 24.1435 2.97359 23.5577 3.55938L3.55919 23.5579C2.97341 24.1437 2.02366 24.1437 1.43787 23.5579C0.852089 22.9721 0.852089 22.0223 1.43787 21.4366L21.4364 1.43806C22.0222 0.852271 22.9719 0.852272 23.5577 1.43806Z" fill="white"/>
</svg>
