<svg width="13" height="16" viewBox="0 0 13 16" fill="none" xmlns="http://www.w3.org/2000/svg">
<path d="M3.04225 10.2938C3.04225 10.0281 2.86838 9.86963 2.56161 9.86963C2.43634 9.86963 2.3515 9.88274 2.30713 9.89528V10.7478C2.35967 10.7603 2.42426 10.7645 2.51329 10.7645C2.84028 10.7645 3.04225 10.5893 3.04225 10.2938Z" fill="#CBCB90"/>
<path d="M4.94127 9.87842C4.80389 9.87842 4.71511 9.891 4.6626 9.90404V11.7921C4.71514 11.8052 4.79998 11.8052 4.87668 11.8052C5.43399 11.8094 5.79747 11.4841 5.79747 10.7947C5.80142 10.1953 5.4702 9.87842 4.94127 9.87842Z" fill="#CBCB90"/>
<path d="M8.46975 0H2.40978C1.52448 0 0.803939 0.764626 0.803939 1.70291V7.99998H0.647095C0.289781 7.99998 0 8.30698 0 8.68622V12.8478C0 13.227 0.28975 13.534 0.647095 13.534H0.803939V14.2971C0.803939 15.2364 1.52448 16 2.40978 16H10.6783C11.5631 16 12.2837 15.2364 12.2837 14.2971V4.03034L8.46975 0ZM1.6976 9.43724C1.88724 9.40326 2.1538 9.37764 2.52936 9.37764C2.90889 9.37764 3.17939 9.45447 3.36115 9.60878C3.53477 9.7542 3.65193 9.99423 3.65193 10.2767C3.65193 10.5591 3.56315 10.7992 3.40161 10.9619C3.1915 11.1716 2.88079 11.2657 2.51731 11.2657C2.43642 11.2657 2.36391 11.2615 2.3072 11.2532V12.2851H1.6976V9.43724ZM10.6783 14.9571H2.40978C2.06699 14.9571 1.78785 14.6611 1.78785 14.2971V13.534H9.49584C9.85322 13.534 10.143 13.227 10.143 12.8478V8.68622C10.143 8.30698 9.85322 7.99998 9.49584 7.99998H1.78785V1.70291C1.78785 1.33993 2.06702 1.04391 2.40978 1.04391L8.10182 1.03761V3.26877C8.10182 3.92046 8.60046 4.44974 9.21548 4.44974L11.2766 4.44347L11.2997 14.2971C11.2997 14.6611 11.0211 14.9571 10.6783 14.9571ZM4.04501 12.272V9.43724C4.27111 9.39908 4.56581 9.37764 4.8768 9.37764C5.39365 9.37764 5.72881 9.47597 5.99143 9.68567C6.27404 9.90848 6.45157 10.2636 6.45157 10.7735C6.45157 11.3258 6.26193 11.7071 5.99928 11.9424C5.71273 12.1951 5.27652 12.3149 4.74362 12.3149C4.42448 12.3149 4.19839 12.2934 4.04501 12.272ZM8.45203 10.5937V11.1245H7.47473V12.2851H6.85699V9.39908H8.52057V9.9341H7.47473V10.5937H8.45203Z" fill="#CBCB90"/>
</svg>
