<svg width="32" height="42" viewBox="0 0 32 42" fill="none" xmlns="http://www.w3.org/2000/svg">
<path d="M7.92579 26.8165C7.92579 26.1243 7.47285 25.7114 6.67368 25.7114C6.34735 25.7114 6.12634 25.7456 6.01074 25.7783V27.9993C6.14762 28.032 6.31588 28.0429 6.54781 28.0429C7.39964 28.0429 7.92579 27.5865 7.92579 26.8165Z" fill="#CBCB90"/>
<path d="M12.8729 25.7346C12.515 25.7346 12.2838 25.7674 12.147 25.8014V30.7202C12.2839 30.7542 12.5049 30.7542 12.7047 30.7542C14.1565 30.7651 15.1034 29.9176 15.1034 28.1218C15.1137 26.5602 14.2508 25.7346 12.8729 25.7346Z" fill="#CBCB90"/>
<path d="M22.0643 0H6.27767C3.97139 0 2.09432 1.99191 2.09432 4.43621V20.8406H1.68573C0.754902 20.8406 0 21.6403 0 22.6283V33.4695C0 34.4574 0.75482 35.257 1.68573 35.257H2.09432V37.245C2.09432 39.692 3.97139 41.6812 6.27767 41.6812H27.8179C30.1227 41.6812 32 39.6919 32 37.245V10.4993L22.0643 0ZM4.42237 24.5847C4.9164 24.4962 5.61081 24.4295 6.58917 24.4295C7.57787 24.4295 8.28256 24.6296 8.75604 25.0316C9.20833 25.4104 9.51355 26.0357 9.51355 26.7716C9.51355 27.5073 9.28227 28.1327 8.86145 28.5564C8.31411 29.1028 7.50467 29.3481 6.55778 29.3481C6.34704 29.3481 6.15815 29.337 6.01043 29.3153V32.0036H4.42237V24.5847ZM27.8179 38.9644H6.27767C5.38467 38.9644 4.65748 38.1933 4.65748 37.245V35.257H24.7374C25.6684 35.257 26.4232 34.4574 26.4232 33.4695V22.6283C26.4232 21.6403 25.6684 20.8406 24.7374 20.8406H4.65748V4.43621C4.65748 3.49061 5.38475 2.71948 6.27767 2.71948L21.1059 2.70305V8.51538C21.1059 10.2131 22.4048 11.5919 24.007 11.5919L29.3763 11.5756L29.4367 37.2449C29.4367 38.1933 28.7108 38.9644 27.8179 38.9644ZM10.5376 31.9695V24.5847C11.1266 24.4853 11.8943 24.4295 12.7044 24.4295C14.0509 24.4295 14.924 24.6856 15.6081 25.2319C16.3444 25.8123 16.8068 26.7375 16.8068 28.0658C16.8068 29.5046 16.3128 30.4979 15.6286 31.111C14.8821 31.769 13.7457 32.0811 12.3575 32.0811C11.5261 32.0811 10.9371 32.0253 10.5376 31.9695ZM22.0182 27.5973V28.9801H19.4722V32.0036H17.863V24.4853H22.1967V25.8791H19.4722V27.5973H22.0182Z" fill="#CBCB90"/>
</svg>
