<svg width="2560" height="765" viewBox="0 0 2560 765" fill="none" xmlns="http://www.w3.org/2000/svg">
<path d="M512 26.8428C793.5 108.116 1626 -62.929 2048 26.8428C2048 211.698 2048 473.047 2048 731.208C1554.5 692.962 878 823.636 512 731.208C512 499.075 512 287.127 512 26.8428Z" fill="white"/>
<path d="M-1023 26.8428C-741.5 108.116 90.9998 -62.929 513 26.8428C513 211.698 513 473.047 513 731.207C19.4998 692.962 -657 823.636 -1023 731.207C-1023 499.075 -1023 287.127 -1023 26.8428Z" fill="white"/>
<path d="M2048 26.8428C2329.5 108.116 3162 -62.929 3584 26.8428C3584 211.698 3584 473.047 3584 731.207C3090.5 692.962 2414 823.636 2048 731.207C2048 499.075 2048 287.127 2048 26.8428Z" fill="white"/>
</svg>
