<svg width="101" height="110" viewBox="0 0 101 110" fill="none" xmlns="http://www.w3.org/2000/svg">
<path d="M97.3499 37.7487L65.6832 2.91578C63.9738 1.03559 61.6942 0 59.264 0C56.834 0 54.5542 1.03516 52.8447 2.91535L2.6507 58.129C0.941448 60.0094 0 62.5168 0 65.19C0 67.8632 0.941448 70.3709 2.6507 72.2509L6.55557 76.5462C6.55596 76.5465 6.55615 76.5469 6.55654 76.5473C6.55693 76.5478 6.55733 76.5482 6.55772 76.5486L32.8011 105.416H29.1673C28.0169 105.416 27.084 106.442 27.084 107.708C27.084 108.973 28.0169 110 29.1673 110H40.7282C40.7309 110 40.7335 110 40.7362 110C40.7389 110 40.7415 110 40.7442 110L70.834 110C71.9845 110 72.9173 108.974 72.9173 107.708C72.9173 106.443 71.9845 105.417 70.834 105.417L48.6721 105.416L97.3501 51.8706C100.889 47.977 100.889 41.6418 97.3499 37.7487ZM94.4036 48.6297L44.2092 103.844C43.2887 104.856 42.0581 105.414 40.7438 105.416H40.728C39.4141 105.414 38.1839 104.856 37.2638 103.844L10.9761 74.9269L59.1804 21.9017C59.9939 21.0069 59.9939 19.5557 59.1804 18.6609C58.3667 17.766 57.0479 17.766 56.234 18.6611L8.02966 71.6863L5.59674 69.0101C4.67462 67.9957 4.16679 66.6391 4.16679 65.1902C4.16679 63.7412 4.67462 62.3844 5.59693 61.3699L55.791 6.15641C56.7133 5.14209 57.9467 4.58347 59.264 4.58347C60.5812 4.58347 61.8147 5.14209 62.737 6.15662L74.0076 18.5541L25.8027 71.5799C24.9892 72.4746 24.9892 73.9257 25.8027 74.821C26.2096 75.2683 26.7428 75.492 27.2758 75.492C27.8089 75.492 28.3421 75.2681 28.7489 74.8208L76.9538 21.7952L94.4036 40.9893C96.3184 43.0957 96.3182 46.5233 94.4036 48.6297Z" fill="black"/>
<path d="M51.3311 66.1864C50.5175 65.2916 49.1987 65.2918 48.3846 66.1864L31.9905 84.2196C31.177 85.1145 31.177 86.5654 31.9905 87.4607C32.3974 87.9082 32.9306 88.1319 33.4636 88.1319C33.9967 88.1319 34.5299 87.908 34.9367 87.4607L51.3309 69.4275C52.1446 68.5322 52.1446 67.0813 51.3311 66.1864Z" fill="black"/>
<path d="M44.6051 83.305L37.8811 90.7014C37.0676 91.5963 37.0676 93.0474 37.8811 93.9425C38.288 94.3899 38.8212 94.6138 39.3542 94.6138C39.8877 94.6138 40.4205 94.3899 40.8274 93.9425L47.5513 86.5461C48.3648 85.6512 48.3648 84.2001 47.5513 83.305C46.7378 82.4099 45.4192 82.4099 44.6051 83.305Z" fill="black"/>
<path d="M50.7949 76.4993L49.9111 77.4712C49.0974 78.3661 49.0974 79.817 49.9109 80.7123C50.3176 81.1598 50.851 81.3837 51.384 81.3837C51.917 81.3837 52.4503 81.1598 52.8569 80.7123L53.7408 79.7403C54.5545 78.8454 54.5545 77.3946 53.741 76.4995C52.9278 75.6046 51.6084 75.6044 50.7949 76.4993Z" fill="black"/>
<path d="M79.509 35.1894C79.1183 34.7597 78.5884 34.5182 78.0358 34.5182C77.4833 34.5182 76.9536 34.7597 76.5627 35.1894L67.7235 44.9124C67.3328 45.3423 67.1133 45.925 67.1133 46.5329C67.1133 47.1407 67.3328 47.7236 67.7235 48.1533L73.6163 54.6348C74.0232 55.0823 74.5564 55.306 75.0894 55.306C75.6228 55.306 76.1557 55.0821 76.5625 54.6348L85.4014 44.9122C86.2149 44.0173 86.2149 42.5662 85.4014 41.6713L79.509 35.1894ZM75.0892 49.7737L72.1428 46.5329L78.0356 40.0509L80.9819 43.292L75.0892 49.7737Z" fill="black"/>
<path d="M62.5697 17.2259C63.1031 17.2259 63.6363 17.002 64.043 16.5542L64.9268 15.5816C65.7402 14.6865 65.74 13.2353 64.9262 12.3406C64.1127 11.446 62.7933 11.4462 61.98 12.3413L61.0962 13.3139C60.2829 14.209 60.283 15.6602 61.0968 16.5549C61.5036 17.0024 62.0365 17.2259 62.5697 17.2259Z" fill="black"/>
<path d="M20.9407 76.9271L20.0569 77.8993C19.2434 78.7939 19.2434 80.2451 20.0569 81.1404C20.4638 81.5877 20.997 81.8114 21.53 81.8114C22.0631 81.8114 22.5963 81.5877 23.0032 81.1404L23.887 80.1681C24.7005 79.2731 24.7005 77.8219 23.887 76.9271C23.0733 76.032 21.7545 76.032 20.9407 76.9271Z" fill="black"/>
</svg>
