<svg width="2560" height="765" viewBox="0 0 2560 765" fill="none" xmlns="http://www.w3.org/2000/svg">
<g clip-path="url(#clip0)">
<path d="M2722.91 745.919C2492.95 801.728 2477.75 717.298 2237.74 717.298C1997.72 717.298 1997.74 746.531 1757.73 746.531C1517.73 746.531 1517.73 717.298 1277.72 717.298C1037.72 717.298 1037.71 746.531 797.706 746.531C557.702 746.531 557.691 717.298 317.687 717.298C77.6833 717.298 62.4728 801.747 -167.484 745.919C-236.201 729.274 -144.331 673.749 -144.331 615.473C-144.331 557.198 -180.332 557.234 -180.332 498.995C-180.332 440.756 -144.331 440.756 -144.331 382.517C-144.331 324.278 -180.332 324.278 -180.332 266.039C-180.332 207.8 -144.331 207.8 -144.331 149.561C-144.331 91.322 -236.213 35.7506 -167.484 19.0691C62.4728 -36.7307 77.6721 47.6907 317.676 47.6907C557.679 47.6907 557.691 18.457 797.694 18.457C1037.7 18.457 1037.7 47.6907 1277.7 47.6907C1517.71 47.6907 1517.71 18.457 1757.72 18.457C1997.74 18.457 1997.72 47.6907 2237.74 47.6907C2477.75 47.6907 2492.94 -36.7216 2722.91 19.0691C2791.63 35.7506 2699.76 91.3129 2699.76 149.552C2699.76 207.791 2735.76 207.791 2735.76 266.03C2735.76 324.269 2699.76 324.269 2699.76 382.508C2699.76 440.747 2735.76 440.747 2735.76 498.986C2735.76 557.225 2682.25 562.788 2700.33 619.146C2722.98 689.745 2791.63 729.274 2722.91 745.919Z" fill="white"/>
</g>
<defs>
<clipPath id="clip0">
<rect width="2560" height="765" fill="white"/>
</clipPath>
</defs>
</svg>
