<svg width="1431" height="1055" viewBox="0 0 1431 1055" fill="none" xmlns="http://www.w3.org/2000/svg">
<path d="M281.985 329.68C321.811 298.229 332.486 166.366 380.373 151.213C380.373 151.213 633.409 77.8575 684.868 33.8151C757.834 -28.5332 871.493 3.14813 944.482 65.5907C1017.47 128.033 1231.67 75.6579 1316.01 151.213C1400.35 226.768 1357.4 404.425 1400.35 437.675C1443.3 470.925 1432.42 520.452 1419.56 565.25C1402.85 623.375 1381.71 687.375 1330.04 715.848C1292.08 736.749 1241.63 735.569 1213.54 769.326C1201.23 784.141 1195.47 803.461 1187.28 821.106C1148.88 903.813 1060.19 945.425 978.347 980.504C878.912 1023.15 747.116 1029.62 639.829 1038.37C584.592 1042.88 555.527 1073.42 511.625 1038.37C463.398 999.871 438.067 930.068 380.373 909.899C323.338 889.965 246.094 923.274 208.564 874.514C199.46 862.719 194.476 847.48 183.074 838.185C160.656 819.903 122.125 831.321 104.464 808.108C91.8094 791.454 60.4928 710.941 60.4928 710.941C46.7746 663.206 87.1841 635.691 86.3472 595.61C89.5612 573.412 44.502 577.604 22.2119 573.412C-78.4158 516.283 190.288 408.589 280.984 329.539" fill="white"/>
</svg>
