<svg width="1431" height="1055" viewBox="0 0 1431 1055" fill="none" xmlns="http://www.w3.org/2000/svg">
<path d="M264.167 323.294C304.582 292.49 315.416 163.341 364.011 148.5C364.011 148.5 620.794 76.6543 673.014 33.5184C747.061 -27.5464 862.403 3.48273 936.472 64.64C1010.54 125.797 1227.91 74.5 1313.5 148.5C1399.09 222.5 1355.5 396.5 1399.09 429.065C1442.67 461.631 1431.63 510.139 1418.58 554.014C1401.63 610.943 1380.17 673.625 1327.74 701.512C1289.22 721.983 1238.02 720.827 1209.51 753.89C1197.02 768.399 1191.18 787.322 1182.86 804.604C1143.9 885.608 1053.89 926.364 970.839 960.72C869.932 1002.49 766.946 1044.75 658.071 1053.32C602.017 1057.74 541.759 1051.73 497.207 1017.4C448.266 979.689 422.56 911.323 364.011 891.569C306.132 872.046 227.744 904.669 189.658 856.912C180.42 845.36 175.362 830.435 163.791 821.331C141.041 803.426 101.939 814.608 84.0168 791.873C71.1753 775.562 77.573 752.111 77.0879 731.363C76.6029 710.615 56.9712 685.732 39.3951 696.706C57.4597 661.846 66.4815 623.005 65.6323 583.749C45.0844 573.435 23.1675 566.114 0.547363 562.008C73.7852 466.587 171.112 400.578 263.15 323.155" fill="white"/>
</svg>
