<svg width="43" height="25" viewBox="0 0 43 25" fill="none" xmlns="http://www.w3.org/2000/svg">
<path d="M42.2612 11.5543C42.1744 11.4444 40.091 8.83074 36.5191 6.20656C31.746 2.69979 26.5524 0.846191 21.4999 0.846191C16.4475 0.846191 11.2539 2.69979 6.48066 6.20656C2.90884 8.83065 0.825368 11.4444 0.738482 11.5543L0 12.4883L0.738576 13.4224C0.825462 13.5324 2.90893 16.1461 6.48076 18.7703C11.254 22.277 16.4476 24.1306 21.5 24.1306C26.5524 24.1306 31.746 22.277 36.5191 18.7703C40.091 16.1461 42.1744 13.5324 42.2612 13.4224L43 12.4883L42.2612 11.5543ZM21.4999 20.6443C17.0027 20.6443 13.3439 16.9856 13.3439 12.4883C13.3439 11.7837 13.4337 11.0998 13.6025 10.4471L11.7404 10.1337C11.558 10.8892 11.4612 11.6776 11.4612 12.4883C11.4612 15.3933 12.7021 18.0136 14.681 19.8484C12.1336 18.9074 9.96749 17.587 8.33266 16.3928C6.30727 14.9135 4.78936 13.4173 3.92398 12.4883C4.78973 11.559 6.30746 10.0631 8.33266 8.58383C9.96749 7.38964 12.1337 6.06922 14.681 5.12816L15.9301 6.53622C17.389 5.17015 19.3483 4.33236 21.4999 4.33236C25.997 4.33236 29.6557 7.99107 29.6557 12.4883C29.6557 16.9856 25.997 20.6443 21.4999 20.6443ZM34.6671 16.3928C33.032 17.587 30.866 18.9074 28.3187 19.8484C30.2975 18.0137 31.5384 15.3934 31.5384 12.4882C31.5384 9.58306 30.2975 6.96284 28.3187 5.12807C30.8661 6.06913 33.032 7.38955 34.6671 8.58373C36.6924 10.0631 38.2104 11.5592 39.0757 12.4881C38.21 13.4176 36.6923 14.9137 34.6671 16.3928Z" fill="#2E1113"/>
<path d="M16.3097 10.9028C16.1567 11.4045 16.0737 11.9366 16.0737 12.4883C16.0737 15.485 18.503 17.9144 21.4998 17.9144C24.4965 17.9144 26.9258 15.4851 26.9258 12.4883C26.9258 9.49158 24.4965 7.06226 21.4998 7.06226C20.0402 7.06226 18.7162 7.63968 17.7408 8.57725L20.4173 11.5941L16.3097 10.9028Z" fill="#2E1113"/>
</svg>
