<svg width="140" height="49" viewBox="0 0 140 49" fill="none" xmlns="http://www.w3.org/2000/svg">
<path d="M68.8404 20.1913C68.5502 18.4612 68.1579 16.7503 67.6656 15.0678C67.6656 15.0678 66.8598 14.282 66.3418 12.2332C65.8238 10.1845 64.1886 10.5826 63.3354 10.6204C62.4822 10.6581 61.5985 11.0699 60.3459 12.9745C58.3991 15.936 58.7512 16.6018 57.6983 17.5832C56.6453 18.5647 57.4714 18.448 55.8091 19.7589C54.5801 20.7267 54.2043 23.877 53.2665 24.9957C52.4302 25.9909 51.7091 29.0348 51.6007 29.8C51.4924 30.5653 50.2465 31.8179 51.4924 34.1411C51.9698 35.0231 52.3557 35.4452 52.9279 35.6133C54.1637 35.9805 55.6906 34.6868 56.2831 33.2592C56.642 32.3944 56.4693 31.9345 56.6047 30.5962C56.713 29.5324 56.6047 29.0828 57.3495 27.4184C57.6881 27.4837 58.7275 27.1885 59.2861 27.566C59.7771 27.9092 63.6875 27.8165 64.5474 27.6518L64.6456 28.218L65.1128 34.3196C65.1128 34.3196 65.6342 36.4472 69.6293 35.0437C70.1371 34.8652 69.9239 34.6044 70.0187 32.8268C70.1135 31.0492 69.1181 22.2435 68.8404 20.2016V20.1913ZM64.3138 22.8852C63.7044 22.8028 60.5896 22.343 60.5896 22.343C60.5896 22.343 61.1245 19.7177 61.7204 18.8427C62.3163 17.9676 63.0273 15.6135 63.3252 15.3046C63.6232 14.9958 64.9232 22.9641 64.3138 22.8852Z" fill="white"/>
<path d="M97.8317 42.8988H97.0394L96.0237 41.7045H95.3839V42.8988H94.7067V39.323H96.3826C96.5442 39.3086 96.7069 39.3286 96.8604 39.3817C97.0139 39.4348 97.1547 39.5198 97.2739 39.6312C97.3931 39.7427 97.488 39.8782 97.5526 40.0289C97.6172 40.1797 97.6499 40.3425 97.6489 40.5069C97.667 40.7732 97.5855 41.0367 97.4204 41.2447C97.2553 41.4527 97.019 41.5899 96.7584 41.629L97.8283 42.8473L97.8317 42.8988ZM95.3737 39.9578V41.0971H96.3894C96.5385 41.0971 96.6814 41.0371 96.7868 40.9303C96.8922 40.8234 96.9514 40.6786 96.9514 40.5275C96.9514 40.3764 96.8922 40.2315 96.7868 40.1247C96.6814 40.0178 96.5385 39.9578 96.3894 39.9578H95.3737Z" fill="white"/>
<path d="M102.572 42.8988H99.9376V39.3298H102.572V39.9818H100.598V40.802H102.504V41.43H100.598V42.2364H102.572V42.8988Z" fill="white"/>
<path d="M106.736 40.1912C106.638 40.0625 106.511 39.9594 106.365 39.8902C106.22 39.821 106.06 39.7877 105.9 39.7931C105.405 39.7931 105.168 40.0024 105.168 40.2667C105.168 40.5309 105.531 40.6647 105.954 40.7162C106.689 40.8089 107.373 41.001 107.373 41.8555C107.373 42.6482 106.678 42.9914 105.893 42.9914C105.175 42.9914 104.62 42.7683 104.359 42.1129L104.915 41.8212C105.004 42.0053 105.147 42.1579 105.323 42.2594C105.499 42.3609 105.701 42.4067 105.903 42.3909C106.323 42.3909 106.716 42.2399 106.716 41.8555C106.716 41.4712 106.377 41.3785 105.9 41.3305C105.179 41.2412 104.515 41.0491 104.515 40.2461C104.515 39.5117 105.229 39.2166 105.869 39.2166C106.418 39.2166 106.987 39.3744 107.251 39.9269L106.736 40.1912Z" fill="white"/>
<path d="M109.776 39.9406H108.663V39.3298H111.561V39.9406H110.443V42.8988H109.776V39.9406Z" fill="white"/>
<path d="M115.373 42.2124H113.531L113.23 42.8988H112.509L114.083 39.3298H114.807L116.388 42.8988H115.664L115.373 42.2124ZM114.452 40.0642L113.798 41.5844H115.099L114.452 40.0642Z" fill="white"/>
<path d="M120.773 39.3333V41.3923C120.773 42.4493 120.133 42.9915 119.246 42.9915C119.036 43.0059 118.825 42.9742 118.628 42.8988C118.431 42.8233 118.252 42.7058 118.103 42.5541C117.955 42.4024 117.841 42.2201 117.768 42.0197C117.695 41.8192 117.666 41.6053 117.682 41.3923V39.3333H118.342V41.3923C118.326 41.5202 118.338 41.6502 118.377 41.773C118.416 41.8957 118.481 42.0082 118.568 42.1023C118.655 42.1964 118.762 42.2698 118.88 42.3174C118.999 42.3649 119.126 42.3853 119.253 42.3772C119.801 42.3772 120.113 42.0066 120.113 41.3923V39.3333H120.773Z" fill="white"/>
<path d="M125.933 42.8988H125.144L124.128 41.7046H123.492V42.8988H122.814V39.323H124.49C124.652 39.3087 124.815 39.3287 124.969 39.3817C125.122 39.4348 125.263 39.5197 125.383 39.6311C125.502 39.7425 125.597 39.8779 125.662 40.0287C125.727 40.1795 125.761 40.3424 125.76 40.5069C125.777 40.773 125.695 41.0361 125.531 41.2439C125.366 41.4517 125.13 41.5892 124.87 41.6291L125.936 42.8473L125.933 42.8988ZM123.478 39.9578V41.0971H124.494C124.643 41.0971 124.786 41.0371 124.891 40.9303C124.997 40.8235 125.056 40.6786 125.056 40.5275C125.056 40.3764 124.997 40.2315 124.891 40.1247C124.786 40.0178 124.643 39.9578 124.494 39.9578H123.478Z" fill="white"/>
<path d="M130.077 42.2124H128.235L127.934 42.8988H127.212L128.794 39.3298H129.518L131.099 42.8988H130.375L130.077 42.2124ZM129.156 40.0642L128.502 41.5844H129.809L129.156 40.0642Z" fill="white"/>
<path d="M134.651 39.3229H135.314V42.8988H134.905V42.9056L133.049 40.4931V42.8988H132.386V39.3298H132.924L134.651 41.5432V39.3229Z" fill="white"/>
<path d="M138.219 39.9406H137.102V39.3298H140V39.9406H138.883V42.8988H138.219V39.9406Z" fill="white"/>
<path d="M97.5778 46.4437C97.5797 46.5921 97.5366 46.7376 97.4542 46.8604C97.3719 46.9831 97.2543 47.0773 97.1174 47.13C97.2793 47.1903 97.4197 47.2983 97.5205 47.4402C97.6213 47.5822 97.6778 47.7514 97.6828 47.9262C97.6828 48.7223 97.0937 48.9763 96.3624 48.9763H94.6932V45.4073H96.3624C97.0598 45.4073 97.5778 45.723 97.5778 46.4368V46.4437ZM95.3467 46.8315H96.3624C96.7822 46.8315 96.9176 46.653 96.9176 46.4506C96.9176 46.2481 96.7856 46.0113 96.3624 46.0113H95.3467V46.8315ZM95.3467 48.3414H96.3624C96.6366 48.3414 97.0226 48.2522 97.0226 47.9124C97.0226 47.5727 96.6366 47.4251 96.3624 47.4251H95.3467V48.3414Z" fill="white"/>
<path d="M101.922 48.3036H100.083L99.7785 48.99H99.0607L100.642 45.421H101.366L102.944 48.99H102.233L101.922 48.3036ZM101.004 46.1554L100.347 47.6756H101.658L101.004 46.1554Z" fill="white"/>
<path d="M107.65 48.9763H106.861L105.845 47.7821H105.209V48.9763H104.532V45.4005H106.208C106.369 45.3862 106.532 45.4062 106.686 45.4592C106.84 45.5123 106.981 45.5972 107.1 45.7086C107.22 45.82 107.315 45.9555 107.38 46.1062C107.445 46.257 107.478 46.4199 107.477 46.5844C107.496 46.8507 107.414 47.1142 107.249 47.3222C107.084 47.5302 106.847 47.6675 106.587 47.7066L107.653 48.9248L107.65 48.9763ZM105.195 46.0353V47.1747H106.211C106.36 47.1747 106.503 47.1146 106.609 47.0078C106.714 46.901 106.773 46.7561 106.773 46.605C106.773 46.4539 106.714 46.309 106.609 46.2022C106.503 46.0954 106.36 46.0353 106.211 46.0353H105.195Z" fill="white"/>
<path d="M135.995 0.514053C133.256 0.20177 132.609 2.05831 130.869 1.63965C129.129 1.22098 126.942 5.43509 125.509 9.18935C124.077 12.9436 122.124 16.5057 121.944 22.6175C121.765 28.7294 121.23 30.8948 124.775 32.2743C128.32 33.6538 132.074 31.0663 132.562 30.03C133.049 28.9936 132.843 27.669 131.817 28.0739C130.791 28.4788 129.623 29.7623 128.516 29.148C127.409 28.5338 125.469 27.6552 125.587 26.0595C125.706 24.4638 125.824 24.3437 125.882 23.4823C125.963 22.3293 124.822 22.017 125.882 20.3938C126.61 19.2957 128.431 19.1035 130.385 16.8729C133.161 13.7089 134.962 13.7844 138.229 8.53733C141.395 3.48246 138.73 0.826336 135.995 0.514053ZM135.054 5.66158C134.671 6.94503 133.628 7.64166 132.494 8.7501C131.36 9.85853 128.888 12.5249 129.244 9.93403C129.599 7.3431 132.843 4.54971 132.843 4.54971C132.843 4.54971 135.436 4.37127 135.054 5.65128V5.66158Z" fill="white"/>
<path d="M27.5355 14.8825C27.5355 14.8825 26.4623 21.3135 27.2376 23.7019C28.0129 26.0904 26.8448 29.3265 26.1101 32.1473C25.4736 34.5941 25.3382 36.7561 25.9747 39.0107C26.0729 39.3538 25.8494 40.0745 25.9747 40.4314C26.9904 43.1047 29.1979 41.5192 29.8581 40.301C31.661 36.8191 32.4811 32.9004 32.228 28.9764C31.8894 23.0396 31.1412 22.6312 34.2357 21.2997C37.3302 19.9682 39.0873 19.8996 39.1043 21.3684C39.1212 22.8371 36.2671 29.4328 38.0886 34.3093C39.9101 39.1857 44.7854 38.4479 45.1172 37.5419C45.449 36.6359 43.9491 35.802 43.1874 33.743C42.4256 31.684 43.7257 25.507 43.922 23.0705C44.1184 20.634 45.0156 15.5345 41.7044 14.4501C38.3933 13.3657 34.08 15.6478 33.4062 14.4158C32.7325 13.1838 32.3499 10.1639 33.1286 7.27445C33.9073 4.38497 35.116 1.59158 33.1861 0.359604C31.9504 -0.415957 29.7091 0.0953645 28.6054 1.58128C27.9892 2.40489 28.6562 4.00405 28.023 4.80707C27.2579 5.79882 27.5355 14.8825 27.5355 14.8825Z" fill="white"/>
<path d="M18.5838 14.8207C18.5184 14.4153 18.4777 14.0061 18.462 13.5956C18.4417 12.0857 17.8051 9.13443 16.1868 7.6691C15.8372 7.33793 15.4222 7.08565 14.9694 6.92889C14.5165 6.77214 14.036 6.71447 13.5595 6.7597C10.2078 7.08571 3.64298 9.76586 2.80672 17.5764C1.95015 25.5653 6.88982 30.7609 8.99908 32.9812C9.24284 33.242 9.49 33.4925 9.73038 33.7362C10.5057 34.5289 11.6771 35.7231 11.5857 36.1383C11.5586 36.2653 11.2471 36.6119 10.2315 36.9963C8.99451 37.4174 7.70814 37.6712 6.40567 37.7512C4.23208 37.9777 2.00432 38.2111 0.551881 40.603C-0.409643 42.2056 0.0982045 43.2419 0.484168 43.7189C1.23578 44.6455 2.73901 44.9475 4.0865 44.9475C4.84669 44.9625 5.60439 44.8547 6.33118 44.6283C7.60419 44.1582 14.0843 40.3971 15.3065 38.3655C16.9554 35.6202 16.5829 32.9709 14.2299 30.7197L14.0031 30.5001C11.6331 28.2283 7.19453 24.0005 7.57033 19.3849C7.96984 14.68 12.1545 12.8887 12.8012 12.9196C12.873 12.9352 12.9406 12.9667 12.9991 13.0118C13.0576 13.0568 13.1056 13.1144 13.1397 13.1804C13.3093 13.5043 13.4105 13.8605 13.4367 14.2262C13.4629 14.592 13.4137 14.9592 13.2921 15.3046C13.1515 15.7355 12.9725 16.1524 12.7571 16.5503C12.2696 17.5112 11.7178 18.6093 12.3238 20.4384L12.361 20.5482L12.4186 20.6477C12.5134 20.7987 13.3666 22.1336 14.7885 22.1954C15.7467 22.2297 16.6269 21.715 17.409 20.6477C19.0849 18.4 18.7971 16.3307 18.5838 14.8207Z" fill="white"/>
<path d="M89.5267 13.1495C89.3801 13.1416 89.241 13.0815 89.1338 12.9798C89.0266 12.8781 88.9584 12.7413 88.941 12.5935C88.8124 11.5881 88.2266 9.95114 85.8025 9.95114C82.3051 9.95114 76.922 13.4309 76.7188 19.704C76.5157 25.9771 81.4283 26.4267 84.5397 25.7403C84.5397 25.7403 84.5972 26.9277 82.8468 28.4273C81.0965 29.927 74.5689 33.7464 74.0442 41.3854C73.5194 49.0243 81.2048 47.3119 82.3221 45.3421C84.1571 42.1163 89.1848 38.1115 89.5233 31.0182C89.8619 23.925 89.1171 19.0829 89.9939 17.2435C90.8708 15.4041 90.4646 13.8324 89.9939 13.3554C89.8706 13.2277 89.703 13.1538 89.5267 13.1495ZM82.5963 39.4979C81.9192 40.1019 80.179 41.7663 79.1328 41.9379C77.9106 42.1369 77.1386 41.2138 77.9377 38.9729C78.5601 37.574 79.3565 36.2616 80.3076 35.0676C81.6076 33.6481 83.2086 32.5463 84.99 31.8453C84.99 31.8453 84.3196 37.9468 82.5963 39.4979ZM86.1309 18.1357C85.4538 19.8516 81.7567 22.8405 80.7477 21.6841C79.7388 20.5276 79.5492 17.6587 81.5806 15.6134C83.612 13.5681 85.3488 13.6333 85.8194 13.8976C85.8025 13.9079 86.8148 16.4302 86.1411 18.1357H86.1309Z" fill="white"/>
<path d="M112.979 18.5922C110.843 12.4632 112.065 13.2078 111.147 9.80019C110.23 6.39252 109.011 6.89012 106.932 7.94365C104.854 8.99717 105.893 10.7302 105.893 10.7302C105.893 10.7302 101.373 17.0102 98.1703 21.9381C97.6252 22.7788 96.9379 23.2181 96.7449 24.3883C96.5181 25.761 95.1435 26.4233 95.0826 27.0753C94.7778 30.4177 95.8443 31.9998 98.0856 31.914C99.8292 31.8453 101.339 26.9929 102.257 25.4452C103.174 23.8975 109.925 25.4658 109.925 25.4658C109.925 25.4658 109.986 25.0952 110.602 28.623C111.219 32.1507 114.448 32.1507 115.793 31.0252C117.137 29.8996 115.119 24.7109 112.979 18.5922ZM107.789 21.6807C106.871 21.1865 105.832 21.5571 104.674 21.866C103.516 22.1748 103.939 21.3718 104.674 19.7075C105.094 18.7535 106.242 17.2778 106.726 16.3444C106.755 16.2676 106.8 16.1979 106.858 16.14C106.916 16.0821 106.985 16.0372 107.061 16.0083C107.137 15.9795 107.218 15.9673 107.3 15.9726C107.381 15.9779 107.46 16.0005 107.532 16.039C107.704 16.1139 107.852 16.2356 107.96 16.3906C108.068 16.5457 108.132 16.728 108.144 16.9175C108.268 17.9299 108.65 18.8919 109.255 19.7075C110.047 20.6512 108.703 22.1851 107.789 21.6875V21.6807Z" fill="white"/>
</svg>
