<svg width="41" height="37" viewBox="0 0 41 37" fill="none" xmlns="http://www.w3.org/2000/svg">
<path d="M37.3385 36.7641C38.2601 36.7641 39.0587 36.4224 39.7375 35.7477L28.1218 22.7027C27.8431 22.9268 27.5729 23.1448 27.3178 23.352C26.4485 24.0712 25.743 24.6325 25.2012 25.0346C24.6595 25.4377 23.9389 25.8485 23.0392 26.268C22.139 26.688 21.3003 26.8973 20.5223 26.8973H20.4995H20.4767C19.6986 26.8973 18.86 26.6881 17.9598 26.268C17.0596 25.8485 16.3389 25.4377 15.7978 25.0346C15.2561 24.6325 14.551 24.0713 13.6812 23.352C13.4389 23.1525 13.1701 22.9335 12.8795 22.6992L1.26147 35.7477C1.94026 36.4224 2.73934 36.7641 3.66087 36.7641H37.3385V36.7641Z" fill="#CBCB90"/>
<path d="M2.31104 14.4886C1.44184 13.8379 0.671047 13.0926 0 12.2531V32.0996L10.2381 20.6024C8.1899 18.9967 5.5509 16.9611 2.31104 14.4886Z" fill="#CBCB90"/>
<path d="M38.7117 14.4886C35.5954 16.8572 32.9468 18.8963 30.7656 20.607L40.9996 32.1001V12.2531C40.3435 13.0757 39.5809 13.8205 38.7117 14.4886Z" fill="#CBCB90"/>
<path d="M37.339 0.588501H3.6614C2.48649 0.588501 1.5832 1.03403 0.950417 1.92418C0.317109 2.81474 0.000976562 3.92849 0.000976562 5.26417C0.000976562 6.34306 0.420502 7.51206 1.25918 8.77151C2.09786 10.0304 2.99028 11.0193 3.936 11.7386C4.45445 12.1499 6.01792 13.3705 8.62641 15.3999C10.0345 16.4957 11.2591 17.4508 12.3114 18.275C13.2084 18.9768 13.9819 19.5846 14.6206 20.089C14.6939 20.1467 14.8092 20.2393 14.9622 20.3622C15.1271 20.4952 15.3358 20.664 15.5932 20.8727C16.0888 21.2753 16.5006 21.6007 16.8286 21.8493C17.1561 22.0979 17.5529 22.3757 18.0185 22.6842C18.4836 22.9922 18.9223 23.2238 19.3341 23.3779C19.746 23.5318 20.1272 23.6091 20.478 23.6091H20.5008H20.5236C20.8742 23.6091 21.2556 23.5318 21.6675 23.3779C22.0792 23.2238 22.5176 22.9927 22.9831 22.6842C23.4482 22.3757 23.8445 22.0974 24.173 21.8493C24.501 21.6007 24.9128 21.2753 25.4085 20.8727C25.6654 20.664 25.8741 20.4951 26.0389 20.3626C26.1921 20.2392 26.3073 20.1472 26.3811 20.089C26.8786 19.7002 27.6539 19.0949 28.6963 18.2821C30.5931 16.8021 33.3866 14.6239 37.0885 11.7386C38.2018 10.8653 39.132 9.81153 39.8796 8.57866C40.6258 7.3458 40.9999 6.05259 40.9999 4.69944C40.9999 3.56889 40.6372 2.60151 39.9133 1.79579C39.1886 0.991069 38.3304 0.588501 37.339 0.588501Z" fill="#CBCB90"/>
</svg>
