<svg width="2156" height="3003" viewBox="0 0 2156 3003" fill="none" xmlns="http://www.w3.org/2000/svg">
<g opacity="0.5">
<path opacity="0.2" d="M882.001 1777.11L882.008 1777.11L882.015 1777.11C888.17 1778.93 893.368 1783.11 896.503 1788.77L896.506 1788.77C902.574 1799.47 905.526 1819.84 900.797 1844.79C896.072 1869.71 883.688 1899.13 859.168 1927.89C846.817 1942.37 836.336 1964.58 826.304 1993.61C816.268 2022.65 806.664 2058.57 796.089 2100.54C792.626 2114.28 789.058 2128.68 785.337 2143.69C766.33 2220.37 743.313 2313.23 709.715 2418.41C669.57 2544.08 594.82 2630.78 517.98 2698.34C482.11 2729.88 445.79 2757.25 412.316 2782.47C409.934 2784.27 407.565 2786.05 405.212 2787.82C369.818 2814.52 337.944 2838.93 313.698 2863.51L314.054 2863.86L313.697 2863.51C299.063 2878.39 269.876 2888.85 235.664 2891.91C201.477 2894.97 162.383 2890.63 128.021 2876.02C93.6659 2861.42 64.0602 2836.57 48.7805 2798.61C33.499 2760.64 32.5163 2709.49 55.564 2642.21C135.38 2409.24 348.911 2322.25 455.021 2279.03C471.493 2272.32 485.376 2266.66 495.769 2261.68C534.445 2243.13 556.153 2223.03 568.197 2207.53C574.218 2199.78 577.821 2193.19 579.92 2188.52C580.97 2186.19 581.643 2184.34 582.055 2183.07C582.261 2182.43 582.402 2181.94 582.492 2181.61C582.536 2181.44 582.568 2181.31 582.589 2181.23C582.6 2181.18 582.608 2181.15 582.613 2181.13L582.619 2181.1L582.62 2181.09L582.621 2181.09C582.621 2181.09 582.621 2181.09 582.133 2180.98L582.621 2181.09L582.747 2180.51L582.155 2180.49C523.09 2177.84 450.679 2160.68 401.489 2116.35C376.903 2094.19 358.112 2065.24 349.679 2027.9C341.244 1990.56 343.161 1944.79 360.047 1889C393.812 1777.44 467.272 1703.38 547.958 1661.41C628.66 1619.44 716.557 1609.58 779.159 1626.37C822.527 1638 845.463 1659.86 856.95 1683.41C868.448 1706.99 868.511 1732.32 865.992 1750.95C865.177 1756.54 866.335 1762.23 869.263 1767.02C872.191 1771.81 876.703 1775.38 882.001 1777.11ZM380.322 2656.99L380.324 2656.99C399.621 2647.15 419.239 2626.43 437.799 2600.97C456.368 2575.49 473.918 2545.2 489.062 2516.15C504.207 2487.1 516.952 2459.27 525.91 2438.7C530.389 2428.42 533.922 2419.95 536.336 2414.06C537.542 2411.11 538.469 2408.8 539.094 2407.23C539.248 2406.85 539.384 2406.5 539.501 2406.21C539.622 2405.9 539.723 2405.65 539.803 2405.44C539.883 2405.24 539.943 2405.09 539.983 2404.98L540.028 2404.87L540.04 2404.84L540.043 2404.83C540.043 2404.83 540.044 2404.83 539.578 2404.65L540.044 2404.83L540.344 2404.06L539.521 2404.15C468.789 2412.2 400.675 2436.4 340.315 2474.93L340.3 2474.94L340.286 2474.95C294.645 2508.72 253.416 2548.24 217.603 2592.53L217.591 2592.55L217.58 2592.56C192.447 2629.01 184.5 2657.51 188.691 2677.54C192.898 2697.65 209.284 2709.05 232.31 2711.37L232.36 2710.87L232.31 2711.37C242.199 2712.35 254.521 2710.38 267.877 2706.65C281.242 2702.91 295.685 2697.41 309.832 2691.32C332.423 2681.6 354.293 2670.35 369.845 2662.35C373.77 2660.33 377.292 2658.52 380.322 2656.99ZM742.413 1768.22L742.903 1768.07L742.292 1767.48C734.99 1760.34 715.829 1752.05 686.972 1752.28C658.088 1752.5 619.442 1761.25 573.099 1788.25C526.709 1815.28 498.3 1855.09 484.632 1894.56C470.971 1934.02 472.023 1973.21 484.636 1998.99C491.04 2012.07 506.1 2017.2 525.451 2016.82C544.827 2016.43 568.688 2010.52 593.006 2001.29C617.331 1992.06 642.146 1979.5 663.435 1965.8C684.577 1952.2 702.277 1937.44 712.56 1923.66L712.596 1923.67L712.925 1923.76L713.127 1923.49C733.504 1895.97 740.639 1857.06 742.784 1825.08C743.858 1809.07 743.684 1794.78 743.285 1784.47C743.086 1779.32 742.831 1775.16 742.648 1772.29C742.556 1770.85 742.483 1769.74 742.444 1768.98C742.426 1768.65 742.416 1768.4 742.413 1768.22ZM742.417 1767.96C742.417 1767.96 742.417 1767.96 742.417 1767.96C742.417 1767.96 742.417 1767.96 742.417 1767.96Z" stroke="#4D1C1C"/>
<path opacity="0.2" d="M1737.05 2453.36L1737.05 2453.36C1752.51 2441.21 1765.32 2422.17 1776.57 2399.52C1787.83 2376.87 1797.51 2350.66 1806.74 2324.18C1808.95 2317.83 1811.14 2311.47 1813.31 2305.14C1820.21 2285.07 1827 2265.3 1834.18 2247.32C1843.61 2223.68 1853.72 2203.07 1865.64 2188.88L1865.64 2188.88C1876.17 2176.37 1886.36 2157.38 1895.81 2135.31C1905.26 2113.24 1913.95 2088.11 1921.5 2063.34C1936.59 2013.8 1947.08 1965.72 1949.81 1946.42C1951.13 1937.11 1955.76 1926.41 1961.12 1913.99C1961.37 1913.41 1961.63 1912.81 1961.88 1912.22C1967.58 1899.02 1973.99 1883.85 1978.26 1866.23C1986.8 1831.03 1986.81 1785.99 1955.35 1727.42C1931.21 1682.89 1911.76 1661.72 1883.01 1653.29L1883.01 1653.29C1851.96 1644.08 1817.17 1655.68 1786.35 1678.67C1755.54 1701.65 1728.79 1735.95 1713.83 1771.93C1704.78 1793.7 1702.43 1810.37 1701.49 1830.06C1701.22 1835.8 1701.06 1841.8 1700.9 1848.27C1700.49 1863.96 1700.02 1882.37 1697.59 1906.32C1696.59 1916.16 1695.95 1924.98 1695.35 1933.33C1694.31 1947.73 1693.37 1960.74 1690.82 1975.25C1686.79 1998.21 1678.72 2024.94 1659.86 2067.01L1659.7 2067.37L1659.31 2067.3C1655.11 2066.49 1648.68 2066.79 1640.88 2067.43C1638.68 2067.61 1636.37 2067.82 1633.98 2068.03C1627.94 2068.57 1621.36 2069.16 1614.61 2069.49C1595.78 2070.43 1575.41 2069.4 1561.13 2059.77L1561.12 2059.76C1558.11 2057.66 1552.4 2055.85 1544.53 2054.34C1536.68 2052.83 1526.76 2051.62 1515.41 2050.69C1492.7 2048.82 1464.3 2048.04 1435.3 2048.06C1377.28 2048.11 1316.98 2051.36 1295.27 2055.51L1294.77 2055.6L1294.68 2055.1L1289.72 2026.5L1289.71 2026.47L1289.71 2026.45L1266.07 1718.25L1266.06 1718.22C1266.05 1718.17 1266.03 1718.09 1266 1718C1265.95 1717.8 1265.86 1717.51 1265.74 1717.13C1265.5 1716.37 1265.13 1715.26 1264.57 1713.87C1263.47 1711.1 1261.66 1707.2 1258.86 1702.75C1253.27 1693.84 1243.71 1682.68 1227.86 1673.72C1196.17 1655.81 1139.2 1646.63 1038.19 1682.06C1031.8 1684.3 1027.78 1686.77 1025.19 1690.54C1022.59 1694.33 1021.39 1699.52 1020.83 1707.32C1020.38 1713.67 1020.36 1721.68 1020.33 1732C1020.33 1734.36 1020.32 1736.85 1020.31 1739.47C1020.25 1753.48 1020.02 1771.15 1018.82 1793.61C1017.62 1816.02 1019.87 1860.63 1024.14 1916.58C1028.4 1972.52 1034.69 2039.77 1041.56 2107.43C1055.31 2242.76 1071.41 2379.76 1078.44 2431.33L1078.44 2431.36L1078.44 2431.39L1078.44 2431.87C1093.11 2519.2 1112.95 2605.56 1137.83 2690.48C1137.84 2690.49 1137.85 2690.5 1137.86 2690.51C1137.94 2690.59 1138.06 2690.71 1138.21 2690.87C1138.52 2691.19 1138.98 2691.67 1139.56 2692.32C1140.74 2693.62 1142.44 2695.58 1144.56 2698.26C1148.81 2703.61 1154.74 2711.83 1161.48 2723.28C1174.98 2746.19 1191.74 2782.03 1204.86 2833.82C1211.4 2859.63 1221.45 2877.7 1233.49 2890.26C1245.54 2902.83 1259.6 2909.92 1274.21 2913.73C1288.82 2917.55 1303.98 2918.09 1318.19 2917.56C1325.3 2917.29 1332.17 2916.75 1338.61 2916.22C1339.31 2916.17 1340 2916.11 1340.68 2916.05C1346.34 2915.58 1351.66 2915.14 1356.49 2914.93C1377.99 2913.98 1399.86 2908.33 1424.28 2890.92C1448.7 2873.51 1475.69 2844.31 1507.37 2796.23M1737.05 2453.36L1507.37 2796.23M1737.05 2453.36C1694.96 2486.5 1684.32 2501.63 1677.55 2514.73C1676.58 2516.61 1675.69 2518.43 1674.8 2520.26C1672.6 2524.8 1670.4 2529.32 1666.93 2534.62C1662.07 2542.03 1654.72 2550.93 1641.42 2563.3C1615.04 2587.86 1606.02 2608.53 1591.83 2641.1L1591.27 2642.37C1576.76 2675.67 1556.6 2721.45 1507.37 2796.23M1737.05 2453.36L1507.79 2796.5L1507.37 2796.23M1495.45 2323.21C1495.52 2322.72 1495.52 2322.72 1495.52 2322.72L1495.52 2322.72L1495.49 2322.71L1495.41 2322.7L1495.07 2322.65L1493.75 2322.46L1488.69 2321.71C1484.32 2321.07 1478.04 2320.14 1470.41 2319.02C1455.16 2316.78 1434.49 2313.75 1412.86 2310.58C1369.6 2304.26 1322.49 2297.41 1307.06 2295.33L1307.06 2295.33C1305.95 2295.18 1304.94 2295.5 1304.07 2296.23C1303.2 2296.94 1302.48 2298.03 1301.85 2299.43C1300.61 2302.23 1299.74 2306.41 1299.18 2311.72C1298.05 2322.36 1298.15 2337.73 1299.18 2356.2C1301.25 2393.16 1307.06 2442.63 1314.3 2491.73C1321.54 2540.83 1330.21 2589.58 1338.02 2625.08C1341.93 2642.82 1345.62 2657.27 1348.81 2666.8C1350.4 2671.56 1351.88 2675.13 1353.21 2677.28C1353.87 2678.34 1354.54 2679.12 1355.23 2679.49C1355.59 2679.68 1355.97 2679.77 1356.36 2679.71C1356.75 2679.64 1357.09 2679.43 1357.38 2679.13C1359.32 2677.12 1361.56 2673.5 1364.05 2668.67C1366.54 2663.82 1369.31 2657.71 1372.29 2650.69C1377.2 2639.15 1382.7 2625.13 1388.57 2610.17C1389.84 2606.93 1391.13 2603.64 1392.44 2600.33C1407.09 2563.1 1423.61 2522.37 1438.64 2500.33C1446.22 2489.22 1453.58 2472.6 1460.36 2453.94C1467.15 2435.27 1473.36 2414.53 1478.63 2395.18C1483.9 2375.83 1488.23 2357.87 1491.24 2344.74C1492.74 2338.17 1493.92 2332.82 1494.72 2329.1C1495.12 2327.25 1495.42 2325.8 1495.63 2324.82C1495.73 2324.32 1495.81 2323.95 1495.86 2323.7L1495.92 2323.41L1495.94 2323.34L1495.94 2323.32L1495.94 2323.31C1495.94 2323.31 1495.94 2323.31 1495.45 2323.21ZM1495.45 2323.21L1495.52 2322.72L1496.05 2322.8L1495.94 2323.31L1495.45 2323.21Z" stroke="#4D1C1C"/>
<path opacity="0.2" d="M1365.59 461.229L1365.59 461.216C1370.31 424.445 1370.02 369.064 1359.99 312.568C1349.95 256.066 1330.16 198.509 1295.93 157.336L1295.92 157.327C1281.24 138.84 1262.84 123.733 1241.95 113.001C1221.06 102.268 1198.14 96.1545 1174.71 95.0623C1009.47 87.7441 671.773 172.73 577.194 546.859C480.414 929.454 684.558 1216.32 771.928 1339.09L772.039 1339.25L772.041 1339.25C782.098 1353.63 792.391 1367.53 802.407 1381.06L802.408 1381.06L803.072 1381.96C819.086 1403.79 839.007 1430.93 854.116 1455.12C861.774 1467.38 868.207 1478.9 872.268 1488.59C874.299 1493.43 875.743 1497.83 876.448 1501.65C877.152 1505.46 877.128 1508.74 876.168 1511.31C875.575 1512.93 873.992 1515.04 871.202 1517.46C868.397 1519.9 864.336 1522.69 858.724 1525.64C847.501 1531.56 830.047 1538.17 803.975 1544.02L803.967 1544.02L803.959 1544.02C740.813 1555.97 676.416 1559.43 612.437 1554.31C505.075 1550.29 395.304 1546.27 308.271 1652.45C279.396 1688.06 269.368 1719.29 268.464 1744.81C267.56 1770.34 275.781 1790.21 283.489 1803.1C298.507 1828.14 323.722 1846.93 353.405 1860.64C383.086 1874.35 417.197 1882.94 449.952 1887.6L449.962 1887.6C486.797 1893.58 524.357 1893.58 561.235 1887.6C593.79 1880.57 695.367 1842.51 798.028 1794.88C849.357 1771.07 900.938 1744.88 944.276 1718.99C987.63 1693.09 1022.68 1667.53 1041 1645C1090.55 1583.94 1115.34 1520.6 1115.42 1456.84C1115.49 1393.07 1090.85 1328.82 1041.43 1265.95L1041.42 1265.95L1031.9 1253.69L1031.9 1253.69L1030.3 1251.64C980.557 1188.25 909.882 1098.18 857.541 996.455C804.637 893.64 770.424 778.852 795.551 667.634L795.551 667.632C821.56 554.341 888.648 483.109 953.14 440.954C985.384 419.878 1016.98 406.067 1042.48 397.899C1055.23 393.815 1066.46 391.139 1075.49 389.672C1084.5 388.208 1091.37 387.939 1095.36 388.703L1095.4 388.711L1095.44 388.726C1098.9 390.011 1102.04 392.051 1104.62 394.703C1107.21 397.354 1109.19 400.551 1110.42 404.067L1365.59 461.229ZM1365.59 461.229C1363.52 481.342 1362.67 501.56 1363.05 521.77M1365.59 461.229L1363.05 521.77M1363.05 521.77C1363 596.738 1362.7 699.283 1265.77 796.958L1265.76 796.961C1220.4 843.432 1174.16 862.29 1127.99 854.03C1093.76 847.635 1068.58 826.79 1051.51 806.511C1034.45 786.248 1025.5 766.586 1023.72 762.58C1023.72 762.577 1023.72 762.574 1023.71 762.571L1021.63 757.391L1020.58 751.839C1012.17 705.3 1016.56 669.668 1026.83 640.263C1037.1 610.848 1053.26 587.64 1068.45 565.935C1081.69 548.035 1093.3 528.953 1103.13 508.927L1363.05 521.77Z" stroke="#4D1C1C"/>
<path opacity="0.3" d="M1126.1 1379.7L1126.54 1379.94L1126.56 1379.9L1126.58 1379.85L1126.1 1379.7ZM1126.1 1379.7C1126.58 1379.85 1126.58 1379.85 1126.58 1379.85L1126.58 1379.83L1126.6 1379.77L1126.67 1379.55C1126.73 1379.35 1126.82 1379.05 1126.95 1378.66C1127.19 1377.87 1127.55 1376.7 1128.03 1375.17C1128.98 1372.11 1130.39 1367.62 1132.2 1361.89C1135.81 1350.44 1141.03 1334.04 1147.44 1314.26C1160.27 1274.7 1177.91 1221.6 1197.1 1167.47C1216.3 1113.34 1237.06 1058.19 1256.14 1014.5C1265.68 992.651 1274.8 973.682 1283.1 959.146C1287.25 951.878 1291.18 945.726 1294.85 940.879C1298.53 936.028 1301.93 932.513 1304.99 930.489M1126.1 1379.7C1126.54 1379.94 1126.54 1379.94 1126.54 1379.94L1126.53 1379.95L1126.51 1379.99L1126.43 1380.14C1126.36 1380.27 1126.25 1380.47 1126.11 1380.73C1125.83 1381.26 1125.41 1382.04 1124.87 1383.06C1123.78 1385.1 1122.19 1388.11 1120.15 1391.99C1116.09 1399.75 1110.28 1410.97 1103.31 1424.8C1089.35 1452.47 1070.73 1490.63 1052.04 1532.54C1033.36 1574.45 1014.61 1620.12 1000.42 1662.83C986.216 1705.55 976.58 1745.27 976.083 1775.29C975.084 1835.64 948.738 1898.01 913.046 1959.84C888.554 2002.26 859.634 2044.46 831.446 2085.6C818.557 2104.41 805.82 2123 793.73 2141.28C726.922 2242.38 687.244 2338.29 681.048 2450.38C680.823 2454.74 679.3 2459.83 677.174 2465.27C675.252 2470.19 672.82 2475.43 670.37 2480.72C670.109 2481.28 669.847 2481.84 669.586 2482.41C666.873 2488.26 664.202 2494.13 662.217 2499.67C660.23 2505.21 658.946 2510.37 658.976 2514.81C660.091 2549.01 668.697 2572.23 681.669 2587.16C694.635 2602.09 712.017 2608.78 730.819 2609.82C768.464 2611.91 811.694 2591.32 836.036 2568.87C971.718 2438.94 1069.69 2273.94 1119.17 2092.04L1119.17 2092.03C1133.18 2042.01 1143.72 2000.11 1152.56 1964.93C1155.86 1951.83 1158.92 1939.66 1161.84 1928.35C1172.58 1886.71 1181.39 1856.75 1192.83 1834.98C1204.3 1813.18 1218.42 1799.59 1239.77 1790.68C1261.09 1781.79 1289.6 1777.59 1329.81 1774.51C1410.23 1768.33 1470.69 1771.28 1508.31 1784.19C1527.12 1790.64 1540.28 1799.6 1547.34 1811.23C1554.41 1822.87 1555.3 1837.09 1549.75 1853.91C1546.97 1862.34 1540.91 1873.68 1532.48 1887.55C1524.04 1901.42 1513.2 1917.85 1500.84 1936.46C1499.36 1938.68 1497.86 1940.94 1496.34 1943.22C1472.44 1979.18 1443.51 2022.69 1415.39 2071.24C1355.55 2174.52 1299.36 2300.55 1302.72 2425.2C1306.08 2549.81 1365.73 2622.62 1428.14 2659.81C1459.35 2678.41 1491.25 2688.09 1517.15 2690.89C1530.1 2692.29 1541.54 2691.97 1550.63 2690.18C1559.73 2688.39 1566.4 2685.15 1569.93 2680.79C1577.1 2671.93 1579.11 2661.51 1578.02 2649.16C1576.92 2636.79 1572.72 2622.54 1567.51 2606.06C1566.81 2603.86 1566.1 2601.62 1565.37 2599.34C1555.23 2567.52 1542.61 2527.94 1541.44 2478.75C1540.81 2452.33 1550.05 2416.26 1564.94 2375.38C1579.85 2334.49 1600.44 2288.73 1622.56 2242.92C1642.27 2202.11 1663.19 2161.24 1682.41 2123.72C1684.76 2119.12 1687.1 2114.56 1689.4 2110.06C1710.45 2068.91 1728.89 2032.51 1740.57 2005.65C1745.38 1994.57 1750.97 1982.33 1756.98 1969.18C1780.14 1918.46 1809.52 1854.13 1824.73 1790.34C1843.89 1710.01 1840.53 1630.75 1774.22 1580.61C1707.78 1530.37 1616.93 1514.36 1541.15 1502.61C1537.06 1501.98 1533.02 1501.36 1529.02 1500.75C1496.02 1495.68 1466.43 1491.13 1443.81 1484.45C1431.13 1480.7 1420.6 1476.27 1412.87 1470.67C1405.13 1465.07 1400.19 1458.27 1398.74 1449.82C1393.03 1416.53 1397.61 1364.11 1413.61 1305.16C1429.62 1246.19 1457.08 1180.64 1497.19 1121.08C1508.9 1103.69 1520.99 1086.54 1532.89 1069.67C1561.73 1028.77 1589.42 989.485 1607.83 952.265C1633.83 899.719 1641.2 851.493 1607.25 808.779C1585.41 781.722 1547.21 765.258 1505.32 761.847C1463.43 758.436 1417.91 768.082 1381.49 793.148L1381.48 793.149C1371.41 800.031 1364.16 810.34 1358.32 822.4C1352.54 834.312 1348.16 847.887 1343.77 861.488L1343.6 862.006C1339.16 875.765 1334.69 889.531 1328.75 901.52C1322.81 913.511 1315.38 923.77 1304.99 930.489M1304.99 930.489C1304.99 930.489 1304.98 930.489 1304.98 930.49L1304.71 930.07M1304.99 930.489C1304.99 930.488 1304.99 930.488 1304.99 930.487L1304.71 930.07M1304.71 930.07C1325.42 916.682 1334.35 889.029 1343.3 861.317C1352.13 833.961 1360.98 806.546 1381.2 792.736L1304.71 930.07Z" stroke="#4D1C1C"/>
</g>
</svg>
