<svg width="1256" height="1030" viewBox="0 0 1256 1030" fill="none" xmlns="http://www.w3.org/2000/svg">
<mask id="mask0" mask-type="alpha" maskUnits="userSpaceOnUse" x="0" y="0" width="1256" height="1030">
<rect width="1256" height="1030" fill="#CFD6D9"/>
</mask>
<g mask="url(#mask0)">
<rect width="935" height="1030" fill="#CFD6D9"/>
<rect width="935" height="317" fill="#246046"/>
<path d="M1199.5 235.5C1258 175 1226 -44.0002 1226 -44.0002C1226 -44.0002 1206.19 -158.979 1236 -197.5C1265.81 -236.021 816.308 -124.522 749.808 -78.5215C696.608 -41.7215 713 -50.0001 641.308 19.4784C569.617 88.957 506.308 151.479 438.808 165.479C371.308 179.479 -12 214.5 -65.5 235.5C-108.3 252.3 -55 676 -27.5 884.5L395.308 858.479L455.308 853.479C647.808 824.479 715 988 783 1113.5H1001C1036.17 1064.83 1132 1016 1132 876.5C1132 835.991 1126.5 726.5 1088 663.5C1056 596.5 956.588 467.957 1028.81 373.478C1101.03 279 1141 296 1199.5 235.5Z" fill="#2B1726" stroke="#92594F" stroke-width="42"/>
</g>
</svg>
