<svg width="41" height="42" viewBox="0 0 41 42" fill="none" xmlns="http://www.w3.org/2000/svg">
<path d="M32.5117 0.679932H22.9023C18.2665 0.679932 14.4941 4.91628 14.4941 10.1222C14.4941 14.8711 17.632 18.8124 21.7012 19.4684V23.6112C21.7012 24.1565 21.9932 24.6492 22.4425 24.8573C22.8856 25.0649 23.4053 24.9536 23.7517 24.5649L28.2044 19.5645H32.5117C37.1475 19.5645 41 15.3282 41 10.1222C41 4.91628 37.1475 0.679932 32.5117 0.679932ZM22.9023 11.4709C22.2388 11.4709 21.7012 10.867 21.7012 10.122C21.7012 9.37709 22.2388 8.77314 22.9023 8.77314C23.5657 8.77314 24.1035 9.37709 24.1035 10.122C24.1035 10.867 23.5657 11.4709 22.9023 11.4709ZM27.707 11.4709C27.0435 11.4709 26.5059 10.867 26.5059 10.122C26.5059 9.37709 27.0435 8.77314 27.707 8.77314C28.3704 8.77314 28.9082 9.37709 28.9082 10.122C28.9082 10.867 28.3704 11.4709 27.707 11.4709ZM32.5117 11.4709C31.8482 11.4709 31.3105 10.867 31.3105 10.122C31.3105 9.37709 31.8482 8.77314 32.5117 8.77314C33.1751 8.77314 33.7129 9.37709 33.7129 10.122C33.7129 10.867 33.1751 11.4709 32.5117 11.4709Z" fill="#CBCB90"/>
<path d="M26.9863 41.1464C28.9734 41.1464 30.5898 39.3312 30.5898 37.0998V31.7043C30.5898 31.1234 30.259 30.6083 29.7687 30.4252L22.5786 27.7275C22.2266 27.5945 21.8419 27.655 21.5323 27.8842L18.4754 30.1723C15.2378 28.4388 11.3962 24.1247 9.85249 20.489L11.89 17.0562C12.0952 16.7098 12.1469 16.2764 12.0296 15.8813L9.62723 7.80701C9.46427 7.25649 9.00559 6.88501 8.48828 6.88501H3.60352C1.61646 6.88501 0 8.68126 0 10.9127C0 26.4537 13.1471 41.1464 26.9863 41.1464Z" fill="#CBCB90"/>
</svg>
