<svg width="24" height="32" viewBox="0 0 24 32" fill="none" xmlns="http://www.w3.org/2000/svg">
<path d="M11.5892 0C5.19888 0 0 5.19888 0 11.5891C0 19.5196 10.3712 31.1621 10.8128 31.6539C11.2275 32.1158 11.9516 32.115 12.3656 31.6539C12.8072 31.1621 23.1784 19.5196 23.1784 11.5891C23.1783 5.19888 17.9795 0 11.5892 0ZM11.5892 17.42C8.37407 17.42 5.75844 14.8043 5.75844 11.5891C5.75844 8.37401 8.37414 5.75838 11.5892 5.75838C14.8043 5.75838 17.4199 8.37407 17.4199 11.5892C17.4199 14.8043 14.8043 17.42 11.5892 17.42Z" fill="white"/>
</svg>
