<svg width="31" height="24" viewBox="0 0 31 24" fill="none" xmlns="http://www.w3.org/2000/svg">
<path d="M3.11998 23.08C4.55998 21.64 5.67998 20.44 6.55998 19.48C7.43998 18.6 8.39998 17.4 9.59998 15.88C11.92 12.92 13.04 10.12 13.04 7.32001C13.04 3.24001 10.48 0.76001 6.71998 0.76001C3.11998 0.76001 0.47998 3.32001 0.47998 6.92001C0.47998 10.52 3.11998 13 6.71998 13C6.95998 13.24 7.03998 13.56 7.03998 13.96C7.03998 14.84 6.47998 16.12 5.43998 17.72C4.39998 19.4 3.27998 20.84 2.07998 22.04L3.11998 23.08Z" fill="#2E1113"/>
<path d="M20.62 23.08C22.06 21.64 23.18 20.44 24.06 19.48C24.94 18.6 25.9 17.4 27.1 15.88C29.42 12.92 30.54 10.12 30.54 7.32001C30.54 3.24001 27.98 0.76001 24.22 0.76001C20.62 0.76001 17.98 3.32001 17.98 6.92001C17.98 10.52 20.62 13 24.22 13C24.46 13.24 24.54 13.56 24.54 13.96C24.54 14.84 23.98 16.12 22.94 17.72C21.9 19.4 20.78 20.84 19.58 22.04L20.62 23.08Z" fill="#2E1113"/>
</svg>
