<svg width="33" height="32" viewBox="0 0 33 32" fill="none" xmlns="http://www.w3.org/2000/svg">
<path d="M19.3729 29.2423C19.1071 29.3086 18.8361 29.3674 18.5671 29.4169C17.864 29.5477 17.3991 30.224 17.5291 30.9277C17.5934 31.274 17.79 31.5624 18.057 31.7506C18.3321 31.9443 18.6823 32.0318 19.0392 31.9654C19.3595 31.9059 19.6823 31.836 19.9991 31.7569C20.6935 31.5841 21.1165 30.8807 20.9433 30.1867C20.7705 29.4921 20.0677 29.0694 19.3729 29.2423Z" fill="white"/>
<path d="M28.9555 11.8735C29.0462 12.1471 29.2195 12.3704 29.4384 12.5247C29.763 12.7533 30.1877 12.8302 30.5929 12.6962C31.2724 12.4706 31.6405 11.7379 31.4158 11.0588C31.3134 10.7492 31.1997 10.4387 31.0787 10.1363C30.8129 9.47181 30.0591 9.14829 29.3943 9.41409C28.7301 9.67975 28.4065 10.4337 28.6725 11.0984C28.7742 11.3526 28.8695 11.6134 28.9555 11.8735Z" fill="white"/>
<path d="M23.5836 27.3922C23.355 27.5431 23.1191 27.6892 22.8814 27.826C22.2613 28.1837 22.049 28.9763 22.4065 29.5961C22.5036 29.7647 22.6329 29.9025 22.7818 30.0078C23.1815 30.2891 23.7244 30.3312 24.1764 30.0708C24.459 29.9078 24.7399 29.7345 25.0122 29.5545C25.609 29.1601 25.7733 28.3562 25.3788 27.759C24.9843 27.1617 24.1807 26.9976 23.5836 27.3922Z" fill="white"/>
<path d="M32.2215 15.4927C32.1933 14.7775 31.5909 14.2208 30.8754 14.2487C30.1609 14.2769 29.6038 14.8796 29.6319 15.5945C29.6426 15.8679 29.6454 16.1453 29.6391 16.4184C29.629 16.8669 29.8484 17.2667 30.1893 17.507C30.3924 17.65 30.6389 17.7365 30.9061 17.7426C31.6213 17.7585 32.214 17.1912 32.2299 16.4757C32.2371 16.1494 32.2343 15.8188 32.2215 15.4927Z" fill="white"/>
<path d="M28.744 23.9834C28.1705 23.5531 27.3591 23.6699 26.9296 24.2424C26.7651 24.4616 26.5919 24.6781 26.4145 24.8866C25.9509 25.4312 26.0164 26.2493 26.561 26.7132C26.5921 26.7395 26.6235 26.7637 26.656 26.7864C27.1975 27.1681 27.95 27.0804 28.3877 26.5667C28.5996 26.318 28.806 26.0593 29.0026 25.7974C29.4322 25.225 29.316 24.413 28.744 23.9834Z" fill="white"/>
<path d="M30.6488 19.2991C29.9659 19.085 29.2387 19.4651 29.0248 20.148C28.9429 20.4088 28.8521 20.671 28.7541 20.9277C28.539 21.4928 28.7451 22.1146 29.2177 22.4479C29.3044 22.5088 29.3998 22.5604 29.5036 22.5996C30.1722 22.8547 30.9208 22.5193 31.1757 21.8504C31.292 21.5452 31.4 21.2333 31.4976 20.9232C31.7114 20.2402 31.3315 19.5132 30.6488 19.2991Z" fill="white"/>
<path d="M13.7194 29.4286C12.5608 29.2206 11.4495 28.8664 10.3957 28.3723C10.3832 28.3658 10.372 28.3584 10.3589 28.3524C10.1106 28.2355 9.86269 28.1103 9.62239 27.9795C9.62155 27.9785 9.62003 27.9779 9.61871 27.9774C9.17782 27.7346 8.74753 27.4659 8.3295 27.1717C2.23389 22.8777 0.768264 14.4252 5.06246 8.32962C5.99622 7.00465 7.1262 5.89926 8.38597 5.02315C8.40149 5.01234 8.41701 5.0016 8.43239 4.99073C12.8716 1.93198 18.8994 1.72584 23.6131 4.86898L22.6007 6.33177C22.3193 6.73892 22.4924 7.03562 22.9852 6.99127L27.3828 6.59757C27.8762 6.55322 28.1712 6.12646 28.0385 5.65002L26.8576 1.39518C26.7254 0.918189 26.3869 0.861094 26.1052 1.26817L25.0904 2.73443C21.6312 0.412301 17.4821 -0.47316 13.364 0.240946C12.9492 0.312731 12.5403 0.400591 12.1369 0.502863C12.1338 0.503417 12.1313 0.503764 12.1288 0.504318C12.1132 0.508129 12.0974 0.513187 12.0823 0.517414C8.53113 1.42934 5.43282 3.5005 3.22197 6.45559C3.20333 6.4777 3.18414 6.49931 3.16654 6.52336C3.09302 6.62237 3.02006 6.72368 2.94862 6.82498C2.8318 6.991 2.71664 7.16117 2.60647 7.33135C2.59268 7.35186 2.58215 7.37272 2.57009 7.39344C0.745676 10.2205 -0.134311 13.489 0.0166034 16.8164C0.0169498 16.8274 0.0163262 16.8384 0.0166034 16.8496C0.0312236 17.1747 0.0569996 17.5042 0.0919912 17.8286C0.0938621 17.8495 0.0985045 17.8694 0.102038 17.8903C0.138208 18.2165 0.183593 18.5435 0.24048 18.8704C0.818639 22.2059 2.39208 25.2073 4.74982 27.5428C4.7553 27.5482 4.76098 27.5542 4.76652 27.5599C4.76846 27.562 4.77061 27.5631 4.77248 27.5652C5.40593 28.1899 6.09496 28.7678 6.83685 29.2903C8.77836 30.6584 10.9403 31.5627 13.2621 31.9794C13.9665 32.106 14.6395 31.637 14.7659 30.9329C14.8922 30.2283 14.4236 29.5548 13.7194 29.4286Z" fill="white"/>
<path d="M15.3217 5.64789C14.7423 5.64789 14.2729 6.11768 14.2729 6.69632V17.1416L23.8259 22.08C23.9797 22.1596 24.1443 22.1971 24.3063 22.1971C24.6858 22.1971 25.0522 21.9905 25.2386 21.63C25.5043 21.1154 25.3032 20.4833 24.7887 20.2176L16.3694 15.8649V6.69632C16.3693 6.11768 15.9005 5.64789 15.3217 5.64789Z" fill="white"/>
</svg>
