<svg width="36" height="22" viewBox="0 0 36 22" fill="none" xmlns="http://www.w3.org/2000/svg">
<path d="M22.0607 0.333817C23.0654 0.475895 24.0494 0.728275 25.0217 1.02704C26.7189 1.5497 28.3205 2.27579 29.8268 3.21774C29.9316 3.28276 30.0715 3.32403 30.1949 3.32403C31.9641 3.33133 33.7326 3.32878 35.5004 3.33024C35.6428 3.33024 35.7845 3.34521 35.9266 3.35325C35.9266 3.38795 35.9317 3.40256 35.9259 3.41059C35.8433 3.53769 35.7597 3.66297 35.6768 3.78971C35.0767 4.71011 34.5639 5.67288 34.2611 6.73719C34.2282 6.85151 34.2213 6.9472 34.2987 7.05933C35.8736 9.32089 36.3762 11.8038 35.7181 14.4803C35.141 16.8276 33.7954 18.6579 31.7508 19.9537C30.2895 20.8803 28.6752 21.3215 26.9505 21.331C26.2259 21.3354 25.5049 21.2379 24.797 21.0546C23.0724 20.6071 21.5939 19.7474 20.3755 18.4453C20.2148 18.2744 20.0635 18.0958 19.8923 17.9025C19.248 18.8628 18.6139 19.8073 17.9645 20.7766C17.3177 19.8102 16.6924 18.8748 16.0686 17.9431C16.0255 17.9657 16.013 17.9683 16.0046 17.9763C15.9904 17.988 15.9783 18.0023 15.967 18.0158C14.4933 19.7561 12.6393 20.823 10.3807 21.1798C9.12428 21.3789 7.87991 21.3073 6.65964 20.9709C4.93024 20.4957 3.46051 19.5834 2.27312 18.2371C1.11276 16.9208 0.391045 15.3926 0.120037 13.6552C-0.19005 12.0335 0.187607 10.4699 0.281838 10.0904C0.555037 8.98742 1.03131 7.97462 1.68509 7.04326C1.73111 6.97715 1.74718 6.86027 1.72526 6.78138C1.45864 5.80364 0.999168 4.91428 0.461171 4.06254C0.324571 3.84596 0.160944 3.64544 0.00973531 3.43762C0.00973531 3.41388 0.00973531 3.38941 0.00973531 3.3653C0.0400501 3.36895 0.0699997 3.3748 0.0995841 3.3748C1.90971 3.37553 3.71947 3.37626 5.52959 3.37261C5.60848 3.37261 5.69614 3.3401 5.76335 3.297C7.03511 2.48106 8.39015 1.83458 9.81385 1.33128C10.8405 0.968967 11.8888 0.686272 12.9578 0.479182C13.9929 0.279031 15.0335 0.138049 16.085 0.0686536C18.6486 -0.128575 20.6976 0.142797 22.0607 0.333817ZM19.7914 12.2885C19.7914 16.2634 23.0165 19.5107 26.9772 19.4954C30.9528 19.4811 34.1632 16.3251 34.1603 12.3064C34.1574 8.16491 30.7979 5.05161 26.823 5.13233C22.8989 5.21378 19.8272 8.37675 19.7914 12.2885ZM9.01288 5.10493C5.14646 5.07133 1.7753 8.29822 1.84287 12.4086C1.90569 16.2418 5.06501 19.4913 9.09323 19.4566C13.032 19.423 16.1979 16.2067 16.2052 12.3118C16.2114 8.31027 13.0068 5.10493 9.01288 5.10493ZM9.36935 3.2298C11.5535 3.36311 13.4721 4.12427 15.093 5.59837C16.7107 7.06955 17.6584 8.90488 18.0029 11.0631C18.3572 8.93045 19.2801 7.11229 20.8674 5.65572C22.4573 4.19768 24.3504 3.43251 26.4987 3.2707C23.9493 2.13737 21.2612 1.65598 18.4941 1.60266C15.3494 1.54093 12.2905 2.00442 9.36935 3.2298Z" fill="white"/>
<path d="M26.9625 7.75364C29.4224 7.74962 31.4148 9.73141 31.4148 12.1887C31.4148 14.6556 29.4563 16.5625 27.1458 16.6505C24.5654 16.7495 22.5007 14.6935 22.5015 12.1997C22.5037 9.67735 24.583 7.712 26.9625 7.75364ZM29.864 12.1997C29.8629 10.5963 28.5666 9.29312 26.9742 9.29312C25.3635 9.29312 24.0523 10.5894 24.0457 12.188C24.0399 13.7797 25.3576 15.1041 26.9534 15.1085C28.5516 15.1147 29.8647 13.8002 29.864 12.1997Z" fill="white"/>
<path d="M8.91793 7.75364C11.3764 7.75108 13.3717 9.73652 13.3655 12.1935C13.3585 14.6804 11.3983 16.5457 9.12831 16.649C6.53767 16.7674 4.44741 14.7023 4.45216 12.1949C4.45727 9.65471 6.55082 7.71127 8.91793 7.75364ZM11.8161 12.1898C11.8114 10.5766 10.5067 9.29057 8.87812 9.29349C7.30723 9.29641 5.99091 10.6222 5.99456 12.199C5.99858 13.794 7.31344 15.1055 8.91355 15.1099C10.5038 15.1136 11.8201 13.7892 11.8161 12.1898Z" fill="white"/>
<path d="M26.9647 10.7238C27.7799 10.723 28.4483 11.3918 28.4406 12.2022C28.4326 13.0145 27.7755 13.6727 26.9738 13.6731C26.1484 13.6731 25.4847 13.0207 25.4866 12.2125C25.488 11.3739 26.1327 10.7245 26.9647 10.7238Z" fill="white"/>
<path d="M8.91022 10.7106C9.73786 10.7099 10.403 11.371 10.4062 12.1961C10.4095 13.0142 9.73822 13.6859 8.91461 13.6877C8.07127 13.6895 7.42078 13.0379 7.42151 12.1902C7.42151 11.3578 8.07054 10.7117 8.91022 10.7106Z" fill="white"/>
</svg>
