<svg width="1080" height="780" viewBox="0 0 1080 780" fill="none" xmlns="http://www.w3.org/2000/svg">
<path d="M867.181 243.745C837.124 220.492 829.067 123 792.926 111.797C792.926 111.797 601.955 57.5629 563.119 25.0007C508.05 -21.0956 422.269 2.32752 367.184 48.4936C312.098 94.6597 150.438 55.9367 86.7858 111.797C23.134 167.658 55.5501 299.006 23.1339 323.589C-9.28232 348.172 -1.06798 384.789 8.63687 417.91C21.2446 460.884 37.2017 508.201 76.1929 529.252C104.844 544.705 142.924 543.833 164.12 568.791C173.413 579.744 177.759 594.028 183.942 607.074C212.92 668.222 279.857 698.987 341.625 724.922C416.67 756.455 516.139 761.234 597.11 767.705C638.798 771.036 660.734 793.622 693.868 767.705C730.265 739.241 749.383 687.633 792.926 672.721C835.971 657.984 894.269 682.61 922.593 646.56C929.464 637.839 933.226 626.573 941.831 619.701C958.75 606.184 987.83 614.626 1001.16 597.464C1010.71 585.151 1034.35 525.625 1034.35 525.625C1044.7 490.332 1014.2 469.99 1014.83 440.356C1012.41 423.944 1046.41 427.044 1063.24 423.944C1139.18 381.707 936.386 302.085 867.937 243.64" fill="white"/>
</svg>
