<svg width="825" height="915" viewBox="0 0 825 915" fill="none" xmlns="http://www.w3.org/2000/svg">
<path d="M671.367 285.931C648.097 258.654 641.859 144.289 613.879 131.147C613.879 131.147 466.031 67.5257 435.964 29.3278C393.33 -24.7468 326.919 2.73036 284.272 56.8867C241.625 111.043 116.468 65.618 67.1891 131.147C17.9102 196.676 43.0066 350.757 17.9102 379.595C-7.18631 408.432 -0.826794 451.387 6.68665 490.24C16.4475 540.652 28.8014 596.159 58.9881 620.854C81.1694 638.981 110.651 637.958 127.061 667.236C134.255 680.084 137.62 696.84 142.407 712.144C164.841 783.875 216.664 819.966 264.484 850.389C322.584 887.38 399.592 892.986 462.28 900.577C494.554 904.484 511.537 930.979 537.189 900.577C565.368 867.187 580.169 806.647 613.879 789.154C647.205 771.866 692.338 800.754 714.267 758.465C719.586 748.235 722.499 735.018 729.161 726.957C742.26 711.101 764.773 721.003 775.093 700.871C782.487 686.427 778.803 665.66 779.082 647.287C779.361 628.915 805.122 633.586 800.785 616.598C790.384 585.729 781.064 552.289 785.678 516.571C796.932 481.886 825 455.838 825 427.954C813.914 280.225 724.945 354.368 671.952 285.808" fill="white"/>
</svg>
