<svg width="890" height="615" viewBox="0 0 890 615" fill="none" xmlns="http://www.w3.org/2000/svg">
<path d="M175.378 192.183C200.148 173.849 206.787 96.9811 236.57 88.148C236.57 88.148 393.944 45.3861 425.948 19.7121C471.329 -16.6331 542.019 1.83516 587.413 38.2354C632.808 74.6355 766.028 44.1039 818.482 88.148C870.936 132.192 844.223 235.755 870.936 255.138C897.649 274.52 890.88 303.392 882.883 329.506C872.493 363.389 859.343 400.697 827.211 417.295C803.601 429.479 772.22 428.791 754.753 448.47C747.095 457.106 743.514 468.368 738.418 478.654C714.539 526.867 659.377 551.125 608.476 571.573C546.633 596.436 464.663 600.204 397.937 605.306C363.583 607.932 345.506 625.74 318.201 605.306C288.207 582.863 272.453 542.172 236.57 530.415C201.098 518.795 153.056 538.212 129.715 509.788C124.053 502.912 120.953 494.028 113.861 488.61C99.9188 477.953 75.9545 484.609 64.9703 471.077C57.1002 461.369 37.6231 414.435 37.6231 414.435C29.0911 386.608 54.2235 370.569 53.703 347.204C55.7019 334.264 27.6777 336.707 13.8145 334.264C-48.7701 300.961 118.348 238.182 174.756 192.101" fill="white"/>
</svg>
