<svg width="1080" height="780" viewBox="0 0 1080 780" fill="none" xmlns="http://www.w3.org/2000/svg">
<path d="M212.819 243.745C242.876 220.492 250.933 123 287.074 111.797C287.074 111.797 478.045 57.5629 516.881 25.0007C571.95 -21.0956 657.731 2.32752 712.816 48.4936C767.902 94.6597 929.562 55.9367 993.214 111.797C1056.87 167.658 1024.45 299.006 1056.87 323.589C1089.28 348.172 1081.07 384.789 1071.36 417.91C1058.76 460.884 1042.8 508.201 1003.81 529.252C975.156 544.705 937.076 543.833 915.88 568.791C906.587 579.744 902.241 594.028 896.058 607.074C867.08 668.222 800.143 698.987 738.375 724.922C663.33 756.455 563.861 761.234 482.89 767.705C441.202 771.036 419.266 793.622 386.132 767.705C349.735 739.241 330.617 687.633 287.074 672.721C244.029 657.984 185.731 682.61 157.407 646.56C150.536 637.839 146.774 626.573 138.169 619.701C121.25 606.184 92.1695 614.626 78.8404 597.464C69.2901 585.151 45.6549 525.625 45.6549 525.625C35.3016 490.332 65.7993 469.99 65.1677 440.356C67.5934 423.944 33.5865 427.044 16.7637 423.944C-59.1817 381.707 143.614 302.085 212.063 243.64" fill="white"/>
</svg>
