<svg width="826" height="916" viewBox="0 0 826 916" fill="none" xmlns="http://www.w3.org/2000/svg">
<path d="M153.803 286.01C177.074 258.733 183.311 144.368 211.291 131.226C211.291 131.226 359.14 67.6048 389.207 29.4069C431.841 -24.6677 498.252 2.80946 540.899 56.9658C583.546 111.122 708.703 65.6971 757.982 131.226C807.26 196.755 782.164 350.837 807.261 379.674C832.357 408.512 825.997 451.467 818.484 490.319C808.723 540.731 796.369 596.238 766.183 620.933C744.001 639.06 714.519 638.037 698.109 667.315C690.915 680.163 687.551 696.92 682.763 712.223C660.329 783.954 608.507 820.045 560.686 850.468C502.587 887.459 425.578 893.065 362.891 900.656C330.616 904.563 313.634 931.059 287.982 900.656C259.803 867.266 245.002 806.726 211.291 789.233C177.966 771.945 132.832 800.833 110.904 758.544C105.584 748.314 102.672 735.097 96.0097 727.036C82.911 711.18 60.3973 721.082 50.0779 700.95C42.6841 686.506 46.3677 665.739 46.0885 647.367C45.8092 628.994 20.0482 633.665 24.3859 616.677C34.7871 585.808 44.1065 552.368 39.4926 516.651C28.2387 481.965 0.170654 455.917 0.170654 428.033C11.2569 280.304 100.225 354.447 153.218 285.888" fill="white"/>
</svg>
