<svg width="901" height="641" fill="none" xmlns="http://www.w3.org/2000/svg"><path d="M722.668 440.949c-25.048 19.08-31.762 99.073-61.88 108.265 0 0-159.142 44.5-191.506 71.218-45.89 37.822-117.374 18.603-163.279-19.277-45.905-37.879-180.622-6.107-233.665-51.941-53.043-45.835-26.03-153.608-53.043-173.778-27.014-20.17-20.168-50.215-12.081-77.391 10.506-35.261 23.804-74.086 56.297-91.358 23.875-12.679 55.609-11.964 73.273-32.442 7.743-8.987 11.365-20.707 16.518-31.412 24.148-50.172 79.929-75.416 131.402-96.696 62.538-25.873 145.429-29.794 212.904-35.103 34.74-2.734 53.02-21.266 80.632 0 30.331 23.354 46.263 65.7 82.548 77.935 35.871 12.092 84.453-8.114 108.056 21.465 5.726 7.156 8.861 16.4 16.032 22.038 14.099 11.091 38.333 4.165 49.44 18.246 7.959 10.104 27.655 58.945 27.655 58.945 8.628 28.958-16.787 45.65-16.261 69.964-2.021 13.466 26.318 10.923 40.337 13.466 63.288 34.657-105.709 99.988-162.75 147.942" fill="#fff"/></svg>