<svg width="875" height="520" fill="none" xmlns="http://www.w3.org/2000/svg"><path d="M80.243 37.43c67.47-42.413 114.822-4.564 145.319-11.901 0 0 141.482 21.326 174.254 0 46.47-30.19 277.682-35.614 324.166-5.378 46.484 30.235 24.072 25.638 77.784 62.223 53.713 36.585 26.358 122.609 53.713 138.709 27.354 16.1 20.422 40.082 12.233 61.773-10.639 28.146-24.104 59.135-57.007 72.922-24.176 10.12-56.311 9.549-74.197 25.895-7.841 7.173-11.508 16.528-16.726 25.072-24.453 40.048-80.937 60.197-133.059 77.183-63.327 20.652-147.263 23.782-215.59 28.019-35.178 2.182-53.689 16.974-81.648 0-30.714-18.641-46.846-52.441-83.59-62.207-36.323-9.652-85.517 6.477-109.418-17.134-5.798-5.711-8.972-13.09-16.234-17.591-14.277-8.852-38.816-3.324-50.064-14.563-8.059-8.065-4.044-19.659-4.348-29.916-.305-10.258-12.712-63.318-12.712-63.318-14.634-18.064-15.138-51.837-4.037-62.44 40.846-51.456-38.896-130.771 4.038-166.507" fill="#fff"/></svg>