<svg width="900" height="640" fill="none" xmlns="http://www.w3.org/2000/svg"><path d="M177.349 199.996c25.048-19.08 31.762-99.073 61.879-108.265 0 0 159.143-44.5 191.506-71.218C476.625-17.309 548.109 1.91 594.014 39.79c45.904 37.88 180.621 6.107 233.664 51.941 53.044 45.835 26.03 153.608 53.044 173.778 27.013 20.171 20.168 50.216 12.081 77.391-10.507 35.261-23.804 74.086-56.297 91.358-23.876 12.679-55.61 11.964-73.273 32.442-7.744 8.987-11.365 20.708-16.518 31.412-24.148 50.172-79.929 75.416-131.402 96.696-62.538 25.873-145.429 29.794-212.905 35.103-34.74 2.734-53.02 21.266-80.631 0-30.332-23.354-46.263-65.699-82.549-77.935-35.871-12.092-84.452 8.114-108.056-21.465-5.725-7.156-8.86-16.4-16.031-22.038-14.1-11.091-38.333-4.165-49.44-18.246-7.96-10.103-27.655-58.945-27.655-58.945-8.628-28.958 16.787-45.649 16.26-69.964 2.022-13.466-26.317-10.923-40.336-13.466-63.288-34.656 105.708-99.988 162.749-147.942" fill="#fff"/></svg>