<svg width="104" height="94" fill="none" xmlns="http://www.w3.org/2000/svg"><path d="M97.772 0H5.607A5.613 5.613 0 000 5.607v20.302a1.53 1.53 0 003.059 0V5.607a2.552 2.552 0 012.548-2.548h92.165a2.551 2.551 0 012.549 2.548v61.172a2.551 2.551 0 01-2.549 2.548H66.111a14.632 14.632 0 000-4.282h19.835a1.53 1.53 0 001.529-1.53 7.043 7.043 0 017.035-7.034 1.53 1.53 0 001.529-1.53V28.938a1.53 1.53 0 10-3.059 0v24.601a10.117 10.117 0 00-8.448 8.449H65.307c-2.099-5.478-7.41-9.38-13.617-9.38-6.207 0-11.519 3.902-13.618 9.38H18.847a10.117 10.117 0 00-8.448-8.449v-34.69a10.117 10.117 0 008.448-8.449h65.685a10.118 10.118 0 008.448 8.448v2.958a1.53 1.53 0 003.059 0v-4.371a1.53 1.53 0 00-1.53-1.53 7.043 7.043 0 01-7.034-7.034 1.53 1.53 0 00-1.53-1.53h-68.51a1.53 1.53 0 00-1.53 1.53 7.043 7.043 0 01-7.034 7.035 1.53 1.53 0 00-1.53 1.529v37.518c0 .845.685 1.53 1.53 1.53a7.043 7.043 0 017.035 7.034c0 .845.684 1.53 1.529 1.53H37.27a14.649 14.649 0 000 4.282H5.607a2.552 2.552 0 01-2.548-2.55V33.02a1.53 1.53 0 10-3.059 0v33.759a5.613 5.613 0 005.607 5.607h32.465a14.574 14.574 0 002.097 3.72V92.47a1.528 1.528 0 002.107 1.415l9.414-3.842 9.413 3.842a1.533 1.533 0 001.43-.146c.424-.284.678-.76.678-1.27v-4.374a1.53 1.53 0 00-3.059 0v2.098l-7.884-3.218c-.37-.15-.786-.15-1.156 0l-7.885 3.218V79.047a14.498 14.498 0 008.463 2.718 14.5 14.5 0 008.462-2.718v1.903a1.53 1.53 0 103.059 0v-4.844a14.57 14.57 0 002.096-3.72h32.465a5.613 5.613 0 005.607-5.607V5.607A5.613 5.613 0 0097.772 0zM51.69 78.707c-6.353 0-11.521-5.168-11.521-11.52 0-6.353 5.168-11.521 11.52-11.521 6.353 0 11.522 5.168 11.522 11.52 0 6.353-5.169 11.52-11.521 11.52z" fill="#CBCB90"/><path d="M65.148 20.187a1.53 1.53 0 100-3.06H38.232a1.53 1.53 0 100 3.06h26.916zm10.195 5.097H28.037a1.53 1.53 0 100 3.059h47.306a1.53 1.53 0 100-3.059zm0 8.156H28.037a1.53 1.53 0 100 3.059h47.306a1.53 1.53 0 100-3.059zm0 9.38h-7.341a1.53 1.53 0 100 3.058h7.34a1.53 1.53 0 100-3.058zm-47.306 0a1.53 1.53 0 100 3.058h7.34a1.53 1.53 0 100-3.058h-7.34zM51.69 59.132c-4.442 0-8.055 3.613-8.055 8.055 0 4.44 3.613 8.054 8.055 8.054 4.441 0 8.054-3.613 8.054-8.054 0-4.442-3.613-8.055-8.054-8.055zm0 13.05a5.002 5.002 0 01-4.996-4.995 5.001 5.001 0 014.996-4.996 5.001 5.001 0 014.995 4.996 5.002 5.002 0 01-4.995 4.995zm-5.2-27.832c0 2.866 2.333 5.198 5.2 5.198s5.2-2.332 5.2-5.199-2.333-5.2-5.2-5.2a5.205 5.205 0 00-5.2 5.2zm7.341 0c0 1.18-.96 2.14-2.141 2.14-1.18 0-2.141-.96-2.141-2.14 0-1.182.96-2.142 2.141-2.142 1.18 0 2.141.96 2.141 2.141z" fill="#CBCB90"/></svg>