<svg width="96" height="94" fill="none" xmlns="http://www.w3.org/2000/svg"><path d="M68.378 37.561a17.988 17.988 0 00-7.231-5.676 7.914 7.914 0 00.957-3.783v-9.18a7.033 7.033 0 00-7.025-7.026h-12.42l3.521 9.16v7.046a7.92 7.92 0 00.958 3.783 17.986 17.986 0 00-7.231 5.676 17.636 17.636 0 00-3.562 10.68v4.59h2.81v-4.59c0-6.361 3.918-11.92 9.832-14.074l.085.07.027.021c.082.067.164.132.248.195l.09.066a7.73 7.73 0 00.672.444l.059.033a7.9 7.9 0 002.883.991l.108.014c.08.01.16.02.242.027.061.006.123.01.184.014.06.004.12.01.18.012a7.922 7.922 0 00.755 0c.06-.002.12-.008.18-.012.061-.004.123-.008.184-.014a6.34 6.34 0 00.241-.027l.108-.014c.097-.013.193-.028.288-.045l.044-.008a7.9 7.9 0 002.552-.937l.059-.034a8.2 8.2 0 00.673-.444c.03-.022.059-.043.088-.066.084-.063.167-.128.248-.195l.027-.022.085-.069c5.915 2.155 9.833 7.713 9.833 14.074h2.81a17.64 17.64 0 00-3.562-10.68zm-9.084-9.46c0 1.412-.57 2.691-1.492 3.623l-.026.026c-.054.055-.11.108-.167.16l-.007.006a5.132 5.132 0 01-3.46 1.338 5.131 5.131 0 01-3.46-1.338l-.006-.006a5.038 5.038 0 01-.168-.16l-.025-.026a5.135 5.135 0 01-1.492-3.622V22.2h10.303v5.9zm0-8.71H48.551l-1.8-4.684h8.328a4.22 4.22 0 014.215 4.215v.468z" fill="#CBCB90"/><path d="M44.776 47.024h-2.81v5.807h2.81v-5.807zM14.707 86.319h-2.81V94h2.81v-7.681zm21.544 0h-2.81V94h2.81v-7.681zm26.229 0h-2.811V94h2.81v-7.681zm21.544 0h-2.81V94h2.81v-7.681z" fill="#CBCB90"/><path d="M38.31 76.856a17.986 17.986 0 00-7.232-5.676 7.915 7.915 0 00.912-2.94h.046V58.217a7.033 7.033 0 00-7.026-7.025H12.59l.994 2.583c.102.267.201.534.298.802l.118.342c.054.153.108.307.16.461.05.15.097.302.146.453.037.117.076.234.112.352.055.176.107.353.158.53.027.091.055.182.081.274.057.198.11.396.163.594a37.46 37.46 0 01.22.858l.039.162c.055.23.107.461.158.692l.025.117c.053.243.102.488.15.732l.016.08c.048.254.095.51.139.765l.008.048c.045.265.087.53.126.797l.003.019c.243 1.65.377 3.32.401 5.002v.05c.003.165.006.328.006.492 0 .052.003.103.004.155l.01.688h.032c.11 1.036.42 2.033.912 2.94a17.986 17.986 0 00-7.231 5.677 17.636 17.636 0 00-3.562 10.68V94h2.81v-6.463c0-6.564 4.172-12.273 10.402-14.27h9.17c6.231 1.997 10.403 7.706 10.403 14.27V94h2.81v-6.463a17.63 17.63 0 00-3.562-10.68zm-10.093-6.399H19.93a5.121 5.121 0 01-.939-2.217h10.165a5.122 5.122 0 01-.939 2.217zm1.009-5.027H18.873a40.544 40.544 0 00-1.138-7.8l-.044-.176a37.31 37.31 0 00-.328-1.224 34.935 34.935 0 00-.219-.74 39.91 39.91 0 00-.129-.411l-.106-.334c-.074-.227-.15-.454-.229-.68l-.02-.063h8.35a4.22 4.22 0 014.216 4.215v7.213zm56.856 11.426a17.984 17.984 0 00-7.231-5.676 7.919 7.919 0 00.912-2.94h.046V58.217a7.033 7.033 0 00-7.026-7.025h-12.42l.994 2.583c.102.267.201.534.298.802l.12.344c.053.153.107.306.158.46.05.151.098.303.147.456.037.116.075.231.111.347.055.178.107.356.16.534l.08.271c.056.198.11.396.162.594.02.071.04.142.058.212.056.214.109.429.161.644.014.055.028.11.04.165.055.229.107.458.157.688l.027.121c.052.242.101.485.148.728l.017.084c.049.253.095.506.138.76l.01.054a38.492 38.492 0 01.24 1.63v.007c.173 1.382.27 2.776.29 4.18v.018c.002.174.005.348.005.523 0 .055.003.11.004.164l.01.68h.032c.11 1.035.42 2.031.912 2.94a17.987 17.987 0 00-7.231 5.675 17.637 17.637 0 00-3.562 10.68V94h2.81v-6.463c0-6.564 4.172-12.273 10.402-14.27h9.17c6.231 1.997 10.403 7.706 10.403 14.27V94h2.81v-6.463c0-3.888-1.232-7.581-3.562-10.68zM75.99 70.457h-8.287a5.125 5.125 0 01-.938-2.217h10.164a5.123 5.123 0 01-.939 2.217zM77 65.43H66.646a40.548 40.548 0 00-1.136-7.789c-.015-.063-.03-.127-.047-.19a39.506 39.506 0 00-.429-1.57c-.038-.129-.076-.258-.116-.387l-.135-.43-.1-.315c-.081-.25-.165-.499-.251-.747h8.351A4.22 4.22 0 0177 58.217v7.213zM3.747 83.228H0v2.81h3.747v-2.81zm92.173 0h-3.747v2.81h3.747v-2.81zm-45.15 0h-5.62v2.81h5.62v-2.81z" fill="#CBCB90"/><path fill-rule="evenodd" clip-rule="evenodd" d="M.094 0h90.674v47.585H77.182V45.15h11.15V2.435H2.53V45.15h30.534v2.435H.093V0z" fill="#CBCB90"/><path d="M70.629 10.772a3.188 3.188 0 003.185-3.185 3.188 3.188 0 00-3.185-3.184 3.188 3.188 0 00-3.185 3.184 3.188 3.188 0 003.185 3.185zm0-4.384a1.201 1.201 0 010 2.4 1.201 1.201 0 010-2.4zM11.722 40.213a1.405 1.405 0 102.81 0v-3.104a1.405 1.405 0 10-2.81 0v3.104zm1.405-6.853c.776 0 1.405-.63 1.405-1.405V28.85a1.405 1.405 0 10-2.81 0v3.104c0 .776.629 1.405 1.405 1.405zm3.052-8.47a1.048 1.048 0 01-1.487 0l-1.578-1.578-1.578 1.578a1.048 1.048 0 01-1.486 0 1.05 1.05 0 010-1.486l1.578-1.578-1.578-1.579a1.051 1.051 0 011.486-1.486l1.578 1.578 1.578-1.578a1.05 1.05 0 111.486 1.486L14.6 21.826l1.578 1.578a1.05 1.05 0 010 1.486zm12.943 9.404a.992.992 0 00-1.403 0l-1.49 1.49-1.491-1.49a.992.992 0 10-1.404 1.403l1.49 1.49-1.49 1.491a.993.993 0 001.404 1.404l1.49-1.49 1.49 1.49a.99.99 0 001.404 0 .992.992 0 000-1.404l-1.49-1.49 1.49-1.49a.993.993 0 000-1.404zm53.215-3.006a.963.963 0 00-1.363 0l-1.446 1.446-1.447-1.446a.963.963 0 10-1.362 1.362l1.446 1.447-1.446 1.446a.963.963 0 101.362 1.363l1.447-1.447 1.446 1.447a.96.96 0 001.363 0 .963.963 0 000-1.363l-1.447-1.446 1.447-1.447a.963.963 0 000-1.362z" fill="#CBCB90"/><path fill-rule="evenodd" clip-rule="evenodd" d="M70.168 12.5a.937.937 0 011.324 0l3.271 3.411a.937.937 0 01-1.324 1.325l-1.672-1.811v12.49h-6.571V26.04h4.697V15.425l-1.81 1.81a.937.937 0 01-1.326-1.324l3.41-3.41zM41.59 27.915H22.106v-1.873H41.59v1.873z" fill="#CBCB90"/></svg>