<svg width="88" height="94" fill="none" xmlns="http://www.w3.org/2000/svg"><path d="M85.072 8.837a2.849 2.849 0 002.845-2.846V2.846A2.849 2.849 0 0085.071 0H2.847A2.849 2.849 0 000 2.846V5.99a2.849 2.849 0 002.846 2.846h.195v8.035a1.377 1.377 0 102.754 0V8.837h76.326v55.035H5.796V22.38a1.377 1.377 0 10-2.754 0v41.492h-.196A2.849 2.849 0 000 66.718v3.145a2.849 2.849 0 002.846 2.846h8.88L6.692 90.305a2.874 2.874 0 00.472 2.542A2.874 2.874 0 009.477 94h5.961a2.91 2.91 0 002.786-2.1l1.14-3.983h18.655v3.185A2.9 2.9 0 0040.917 94H47a2.9 2.9 0 002.898-2.898v-3.185h18.655l1.14 3.982A2.91 2.91 0 0072.479 94h5.96c.919 0 1.762-.42 2.315-1.153.552-.733.724-1.66.472-2.542L76.19 72.709h8.881a2.849 2.849 0 002.846-2.846v-3.145a2.849 2.849 0 00-2.846-2.846h-.196V8.837h.197zm-69.634 82.41h-5.96c-.019 0-.072 0-.116-.058a.135.135 0 01-.023-.126l5.242-18.318h6.26l-5.265 18.397a.145.145 0 01-.138.104zm31.706-.145c0 .08-.065.144-.144.144h-6.083a.144.144 0 01-.144-.144v-3.185h6.37v3.185zm-26.992-5.939l.953-3.329h45.707l.953 3.33H20.152zm26.992-12.418v6.335h-6.37v-6.335h6.37zm31.411 18.444c-.043.057-.097.057-.115.057h-5.96a.144.144 0 01-.14-.104l-5.264-18.397h6.26l5.242 18.318a.135.135 0 01-.023.126zm-12.53-12.11H49.897v-6.37H64.2l1.823 6.37zm19.138-12.361v3.145a.092.092 0 01-.091.092H31.897a1.377 1.377 0 100 2.754h6.123v6.37H21.893l1.823-6.37h2.673a1.377 1.377 0 100-2.754H2.846a.092.092 0 01-.092-.091v-3.146c0-.05.041-.092.092-.092H85.07c.051 0 .092.041.092.092zM2.846 6.083a.092.092 0 01-.092-.092V2.846c0-.051.041-.092.092-.092H85.07c.05 0 .092.041.092.092V5.99c0 .05-.041.092-.092.092H2.846z" fill="#CBCB90"/><path d="M18.25 56.125a4.423 4.423 0 004.418 4.418 4.423 4.423 0 004.418-4.418 4.423 4.423 0 00-4.418-4.419 4.424 4.424 0 00-4.418 4.419zm4.418-1.665c.918 0 1.664.747 1.664 1.665 0 .917-.746 1.664-1.664 1.664a1.666 1.666 0 01-1.665-1.664c0-.918.747-1.665 1.665-1.665zM65.25 21.11a4.423 4.423 0 004.418-4.418 4.423 4.423 0 00-4.418-4.418 4.423 4.423 0 00-4.419 4.418 4.423 4.423 0 004.419 4.419zm0-6.082c.917 0 1.664.746 1.664 1.664 0 .918-.747 1.665-1.664 1.665a1.666 1.666 0 01-1.665-1.665c0-.918.747-1.664 1.665-1.664zM21.29 47a1.377 1.377 0 002.754 0v-3.042a1.377 1.377 0 10-2.753 0V47zm1.378-7.748c.76 0 1.376-.616 1.376-1.377v-3.041a1.377 1.377 0 10-2.753 0v3.041c0 .76.616 1.377 1.377 1.377zm-4.015-9.528a1.373 1.373 0 001.947 0l2.068-2.067 2.068 2.067a1.373 1.373 0 001.947 0 1.377 1.377 0 000-1.947l-2.067-2.068 2.067-2.067a1.377 1.377 0 10-1.947-1.948l-2.068 2.068-2.067-2.068a1.377 1.377 0 10-1.948 1.948l2.068 2.067-2.068 2.068a1.376 1.376 0 000 1.947zm26.279 11.74a1.377 1.377 0 00-1.947 0l-2.068 2.068-2.068-2.068a1.377 1.377 0 10-1.947 1.947l2.068 2.068-2.068 2.068a1.377 1.377 0 101.947 1.947l2.068-2.068 2.068 2.068a1.373 1.373 0 001.948 0 1.377 1.377 0 000-1.947l-2.068-2.068 2.068-2.068a1.377 1.377 0 000-1.947zm24.333 0a1.377 1.377 0 00-1.948 0l-2.067 2.068-2.068-2.068a1.377 1.377 0 10-1.948 1.947l2.068 2.068-2.068 2.068a1.377 1.377 0 101.948 1.947l2.068-2.068 2.068 2.068a1.373 1.373 0 001.948 0 1.377 1.377 0 000-1.947l-2.069-2.068 2.068-2.068a1.377 1.377 0 000-1.947zm-40.514-8.007a1.377 1.377 0 100 2.754h36.498c.761 0 1.377-.617 1.377-1.377V28.96l.691.69a1.374 1.374 0 001.948 0 1.377 1.377 0 000-1.947l-3.042-3.04a1.377 1.377 0 00-1.947 0l-3.042 3.04a1.377 1.377 0 101.948 1.947l.69-.69v4.496h-35.12z" fill="#CBCB90"/></svg>