<svg width="98" height="94" fill="none" xmlns="http://www.w3.org/2000/svg"><path d="M5.193 58.015c.317.86.817 1.634 1.457 2.268a6.226 6.226 0 004.413 1.839c1.715 0 3.28-.704 4.414-1.839a6.234 6.234 0 001.838-4.413v-3.478a7.165 7.165 0 01-3.376-.548c-.08.392-.172.774-.29 1.15-.446 1.451-1.193 2.774-2.376 3.725-1.199.968-2.79 1.527-4.897 1.42a10.654 10.654 0 01-1.183-.124zm36.846-9.316h12.504l2.226-3.93H44.915c-.79 0-1.51.328-2.032.85a2.857 2.857 0 00-.844 2.026V48.7zm12.504 2.844H42.039v4.327c0 1.715.704 3.28 1.838 4.413a6.217 6.217 0 008.827 0 6.235 6.235 0 001.839-4.413v-4.327zm38.974 9.493a6.772 6.772 0 011.99 1.602 6.662 6.662 0 011.59 4.322v9.59c0 .785-.633 1.42-1.418 1.42a1.423 1.423 0 01-1.425-1.42v-9.59a3.84 3.84 0 00-.914-2.489 3.906 3.906 0 00-1.967-1.247 9.007 9.007 0 01-5.333 1.742 9.037 9.037 0 01-5.494-1.855 2.6 2.6 0 00-1.806 1.027L71.1 74.255c-.268.355-.688.57-1.134.57h-9.789a2.611 2.611 0 00-2.623 2.618c0 .726.295 1.382.768 1.855a2.616 2.616 0 001.855.769h11.692c.468 0 .828-.049 1.275-.275.827-.414 1.601-1.671 2.166-2.424l5.059-6.693a1.417 1.417 0 011.988-.28c.624.474.748 1.366.275 1.99L77.82 78.76v12.396h16.434v-8.165a1.422 1.422 0 012.844 0v9.59c0 .785-.635 1.419-1.42 1.419H1.426A1.423 1.423 0 010 92.58v-9.59a1.422 1.422 0 012.844 0v8.166h16.439V78.76l-4.817-6.376a1.417 1.417 0 01.28-1.988 1.417 1.417 0 011.99.28l4.945 6.547c.451.596.903 1.198 1.354 1.8.258.34.575.597.925.77.392.198.758.273 1.188.273h11.778a2.61 2.61 0 002.618-2.623c0-.72-.29-1.376-.763-1.855a2.63 2.63 0 00-1.855-.763h-9.794a1.42 1.42 0 01-1.134-.57l-7.64-10.117a2.63 2.63 0 00-1.806-1.027 9.042 9.042 0 01-5.488 1.855 9.054 9.054 0 01-5.338-1.736 3.898 3.898 0 00-1.946 1.215 3.85 3.85 0 00-.936 2.515v9.59a1.423 1.423 0 01-2.844 0v-9.59c0-1.66.619-3.193 1.635-4.37a6.846 6.846 0 011.951-1.554 9.02 9.02 0 01-1.618-5.166v-8.224a5.7 5.7 0 011.677-4.043 5.712 5.712 0 014.037-1.677h6.758c1.575 0 3.005.645 4.042 1.677a5.7 5.7 0 011.677 4.042v8.225a9.036 9.036 0 01-1.473 4.951c.769.387 1.42.92 1.94 1.608l7.21 9.547h5.693v-5.768c0-1.634.865-3.113 2.268-4.365 1.086-.968 2.516-1.812 4.097-2.478a9.03 9.03 0 01-.699-3.495v-8.225c0-1.575.645-3.005 1.678-4.042a5.724 5.724 0 014.042-1.677h16.056l-3.579 8.198v5.746a9.1 9.1 0 01-.629 3.317c1.699.667 3.236 1.527 4.398 2.527 1.489 1.28 2.408 2.806 2.408 4.494v5.768h5.693l7.209-9.547a5.444 5.444 0 011.946-1.602 9.028 9.028 0 01-1.478-4.957v-8.225a5.724 5.724 0 015.72-5.72h6.757a5.723 5.723 0 015.72 5.72v8.225c0 1.85-.565 3.645-1.618 5.166zm-1.612-3.021c-.409.065-.807.107-1.183.123-2.102.108-3.693-.451-4.892-1.419-1.188-.951-1.935-2.273-2.381-3.725-.114-.376-.21-.758-.285-1.15a7.192 7.192 0 01-3.382.548v3.478c0 1.715.705 3.28 1.839 4.413a6.238 6.238 0 004.419 1.839 6.232 6.232 0 004.413-1.839 6.29 6.29 0 001.452-2.268zm-12.123-8.472c1.898.269 3.285-.833 3.532-1.048.28-.237.543-.382.925-.398a1.415 1.415 0 011.483 1.349c.049.925.178 1.86.441 2.715.29.951.747 1.79 1.441 2.349.683.548 1.645.86 2.984.795.516-.027 1.08-.107 1.704-.247v-7.413c0-.79-.328-1.505-.85-2.027a2.862 2.862 0 00-2.026-.85h-6.758c-.79 0-1.505.329-2.026.85a2.861 2.861 0 00-.85 2.027v1.898zm-62.466 0v-1.898c0-.79-.323-1.505-.845-2.027a2.874 2.874 0 00-2.031-.85H7.682c-.785 0-1.505.329-2.027.85a2.857 2.857 0 00-.844 2.027v7.413c.619.14 1.183.22 1.7.248 1.338.064 2.3-.248 2.983-.796.693-.559 1.15-1.398 1.446-2.35.263-.854.392-1.79.435-2.714a1.418 1.418 0 011.484-1.35c.366.017.645.151.914.388.199.177 1.607 1.333 3.543 1.059zm24.1 12.267c-1.484.576-2.796 1.307-3.732 2.145-.811.72-1.311 1.495-1.311 2.253v5.768h.553c1.506 0 2.877.613 3.866 1.602a5.448 5.448 0 011.602 3.865c0 .952-.248 1.844-.672 2.624h13.654a5.464 5.464 0 01-.666-2.624c0-1.51.612-2.876 1.602-3.865a5.448 5.448 0 013.865-1.602h.548v-5.768c0-.785-.537-1.591-1.408-2.339-1.022-.876-2.441-1.634-4.022-2.209a9.07 9.07 0 01-7.005 3.306 9.057 9.057 0 01-6.423-2.672 9.515 9.515 0 01-.452-.484zM11.853 10.53a1.422 1.422 0 010-2.843h26.33a1.423 1.423 0 010 2.844h-26.33zm0 14.967c-.785 0-1.42-.64-1.42-1.424 0-.785.635-1.425 1.42-1.425h13.165c.785 0 1.425.64 1.425 1.425 0 .784-.64 1.424-1.425 1.424H11.854zm0-7.483a1.422 1.422 0 010-2.844h26.33a1.423 1.423 0 010 2.844h-26.33zM39.64 33.18c.2.554.516 1.048.92 1.451a3.975 3.975 0 002.832 1.178h8.36c.785 0 1.419.634 1.419 1.424 0 .785-.634 1.42-1.42 1.42h-8.359a6.794 6.794 0 01-4.843-2.022 6.913 6.913 0 01-1.86-3.451h-19.83l-6.44 6.44a1.42 1.42 0 01-1.011.42 1.422 1.422 0 01-1.425-1.42v-5.558a8.57 8.57 0 01-4.666-2.414 8.576 8.576 0 01-2.532-6.09V8.622c0-2.371.968-4.527 2.532-6.09A8.598 8.598 0 019.407 0h31.224c2.376 0 4.531.973 6.09 2.532a8.594 8.594 0 012.532 6.09v2.635h24.16c1.886 0 3.596.769 4.838 2.01a6.822 6.822 0 012.01 4.839v13.697a6.822 6.822 0 01-2.01 4.838 6.857 6.857 0 01-3.42 1.86v5.591c0 .36-.134.726-.413 1.006a1.425 1.425 0 01-2.011 0l-6.445-6.446h-7.769a1.422 1.422 0 110-2.844h8.36c.398 0 .752.162 1.01.425l4.425 4.424v-3.424c0-.79.64-1.425 1.424-1.425a4 4 0 002.828-1.177 3.99 3.99 0 001.177-2.828V18.106a3.99 3.99 0 00-1.177-2.828 4 4 0 00-2.828-1.177H49.253v10.456a8.576 8.576 0 01-2.532 6.09 8.577 8.577 0 01-6.09 2.532h-.99zm-23.374-2.844H40.63c1.592 0 3.032-.65 4.08-1.698a5.764 5.764 0 001.7-4.08V8.622a5.76 5.76 0 00-1.7-4.08 5.753 5.753 0 00-4.08-1.7H9.408a5.75 5.75 0 00-4.08 1.7 5.763 5.763 0 00-1.7 4.08v15.934c0 1.585.651 3.031 1.7 4.08a5.754 5.754 0 004.08 1.698c.785 0 1.419.64 1.419 1.425v3.424l4.435-4.429c.28-.28.64-.42 1.005-.42zm58.71 52.575h-52.85v8.246h52.85V82.91z" fill="#CBCB90"/></svg>