<svg width="40" height="40" fill="none" xmlns="http://www.w3.org/2000/svg"><g clip-path="url(#clip0)" fill="#fff"><path d="M35.094 3.438H31.37V2.343A2.346 2.346 0 0029.026 0a2.346 2.346 0 00-2.344 2.344v1.094H13.557V2.343A2.346 2.346 0 0011.213 0 2.346 2.346 0 008.87 2.344v1.122a.78.78 0 00-.209-.029H5.55a3.91 3.91 0 00-3.907 3.907V20.65a.781.781 0 001.563 0v-9.167H31.37a.781.781 0 000-1.562H3.205V7.344A2.346 2.346 0 015.549 5H8.66c.073 0 .142-.01.209-.029v1.006a2.346 2.346 0 002.344 2.343 2.346 2.346 0 002.343-2.343V5h13.125v.977a2.346 2.346 0 002.344 2.343 2.346 2.346 0 002.344-2.343V5h3.724a2.346 2.346 0 012.343 2.344V37.03c0 .775-.63 1.407-1.406 1.407a1.408 1.408 0 01-1.407-1.407v-2.02a.781.781 0 00-.781-.782h-9.088a.781.781 0 000 1.563h8.307v1.24c0 .508.128.988.355 1.407H1.969a1.408 1.408 0 01-1.407-1.407v-1.24H18.05a.781.781 0 000-1.563h-7.806a6.392 6.392 0 002.232-4.853 6.413 6.413 0 00-6.406-6.406 6.413 6.413 0 00-6.407 6.406 6.39 6.39 0 002.232 4.853H-.219A.781.781 0 00-1 35.01v2.021A2.972 2.972 0 001.969 40H36.03A2.973 2.973 0 0039 37.03V7.345a3.91 3.91 0 00-3.906-3.907zm-23.1 2.539a.782.782 0 01-1.562 0V2.344a.782.782 0 011.563 0v3.633zm17.813 0a.782.782 0 01-1.562 0V2.344a.782.782 0 011.562 0v3.633zM1.225 29.375a4.85 4.85 0 014.844-4.844 4.85 4.85 0 014.843 4.844 4.85 4.85 0 01-4.843 4.844 4.85 4.85 0 01-4.844-4.844z"/><path d="M35.587 10.15a.787.787 0 00-.553-.228.787.787 0 00-.552.229.787.787 0 00-.229.552.787.787 0 00.781.781.787.787 0 00.553-.229.787.787 0 00.229-.552.787.787 0 00-.23-.552zM22.332 34.457a.786.786 0 00-1.105 0 .789.789 0 00-.229.552c0 .207.084.407.23.553a.786.786 0 001.104 0 .79.79 0 00.229-.553.788.788 0 00-.23-.552zM16.675 23.75a2.972 2.972 0 00-2.969 2.969 2.972 2.972 0 002.97 2.968 2.972 2.972 0 002.968-2.968 2.972 2.972 0 00-2.969-2.969zm0 4.375a1.407 1.407 0 010-2.813 1.408 1.408 0 010 2.813zm7.292-4.375a2.972 2.972 0 00-2.969 2.969 2.972 2.972 0 002.969 2.968 2.972 2.972 0 002.969-2.968 2.972 2.972 0 00-2.97-2.969zm0 4.375a1.407 1.407 0 010-2.813 1.408 1.408 0 010 2.813zm7.292-4.375a2.972 2.972 0 00-2.97 2.969 2.972 2.972 0 002.97 2.968 2.972 2.972 0 002.968-2.968 2.972 2.972 0 00-2.968-2.969zm0 4.375a1.408 1.408 0 010-2.813c.775 0 1.406.631 1.406 1.407 0 .775-.631 1.406-1.406 1.406zm-21.875-12.5a2.972 2.972 0 00-2.969 2.969 2.972 2.972 0 002.969 2.968 2.972 2.972 0 002.968-2.968 2.972 2.972 0 00-2.968-2.969zm0 4.375a1.407 1.407 0 010-2.813 1.408 1.408 0 010 2.813zm14.583-4.375a2.972 2.972 0 00-2.969 2.969 2.972 2.972 0 002.969 2.968 2.972 2.972 0 002.969-2.968 2.972 2.972 0 00-2.97-2.969zm0 4.375a1.407 1.407 0 010-2.813 1.408 1.408 0 010 2.813zm7.292-4.375a2.972 2.972 0 00-2.97 2.969 2.972 2.972 0 002.97 2.968 2.972 2.972 0 002.968-2.968 2.972 2.972 0 00-2.968-2.969zm0 4.375a1.408 1.408 0 010-2.813c.775 0 1.406.631 1.406 1.407 0 .775-.631 1.406-1.406 1.406zm-14.584-4.375a2.972 2.972 0 00-2.969 2.969 2.972 2.972 0 002.97 2.968 2.972 2.972 0 002.968-2.968 2.972 2.972 0 00-2.969-2.969zm0 4.375a1.407 1.407 0 010-2.813 1.408 1.408 0 010 2.813zm-7.823 7.471a.781.781 0 00-1.105 0l-2.544 2.544-.87-.87a.781.781 0 00-1.105 1.106l1.422 1.422a.781.781 0 001.105 0l3.097-3.097a.781.781 0 000-1.105z"/></g><defs><clipPath id="clip0"><path fill="#fff" d="M0 0h40v40H0z"/></clipPath></defs></svg>