<svg width="623" height="704" fill="none" xmlns="http://www.w3.org/2000/svg"><mask id="a" fill="#fff"><path fill-rule="evenodd" clip-rule="evenodd" d="M493.866.385c-3.46.727-7.537 2.11-14.569 4.944-11.834 4.77-16.321 6.123-26.506 7.998-8.777 1.615-18.82 2.466-36.001 3.05-19.579.665-21.463.805-35.953 2.685-11.363 1.474-13.55 1.625-20.914 1.45-6.931-.164-9.482-.445-16.215-1.783-7.193-1.43-8.809-1.59-16.214-1.607-6.943-.017-8.847.139-12.219 1.001-2.197.562-10.446 2.322-18.329 3.912-7.884 1.59-16.924 3.523-20.09 4.293-8.68 2.115-19.507 5.802-25.001 8.514-4.457 2.2-5.472 2.97-11.045 8.369-3.942 3.82-7.313 6.628-9.426 7.855-8.293 4.814-18.805 9.435-25.88 11.379-10.632 2.92-14.787 3.185-29.813 1.907-20.656-1.756-28.767-.777-39.694 4.792-2.078 1.06-4.519 2.608-5.424 3.442a53.35 53.35 0 01-3.136 2.652c-1.358 1.034-10.226 11.076-12.534 14.193-.528.714-2.598 2.68-4.599 4.37-4.867 4.112-8.967 10.689-11.863 19.03-1.596 4.594-3.58 17.444-3.607 23.347-.013 2.977-.277 5.318-.737 6.525-.394 1.035-.909 2.652-1.145 3.595-.236.942-1.47 3.225-2.742 5.074-1.383 2.01-3.018 5.291-4.068 8.165-.965 2.643-2.968 7.239-4.451 10.215-1.484 2.975-3.698 7.738-4.921 10.584a925.004 925.004 0 01-5.408 12.231c-1.751 3.881-3.338 7.585-3.526 8.232-.188.647-1.93 5.198-3.87 10.114-1.94 4.916-4.428 11.478-5.529 14.583-2.618 7.388-5.108 13.81-6.091 15.713-.434.84-1.177 2.94-1.652 4.667a103.333 103.333 0 01-2.055 6.434c-2.265 6.257-4.04 13.188-4.519 17.64-.264 2.458-.67 5.122-.9 5.92-.233.798-.567 2.809-.744 4.469-.178 1.66-1.032 5.876-1.899 9.369-3.436 13.85-3.73 18.836-2.45 41.396 1.554 27.363 1.891 37.08 1.553 44.767a3015.43 3015.43 0 00-.743 18.975c-.563 15.674-1.927 22.349-9.136 44.71-5.719 17.74-6.13 18.819-10.306 27.015-13.15 25.814-13.723 27.149-15.16 35.377-1.368 7.835-.611 13.821 3.377 26.731 1.774 5.741 1.817 6.052 1.83 13.171.011 6.744-.107 7.769-1.578 13.642-.874 3.493-2.704 9.545-4.066 13.449-3.196 9.162-4.158 13.864-3.84 18.766.318 4.937.79 6.352 3.74 11.213 4.466 7.359 11.443 14.004 19.358 18.434 7.309 4.091 19.255 7.934 31.448 10.116 6.34 1.135 12.115 3.11 15.099 5.165 5.14 3.539 8.048 8.887 14.075 25.878 1.88 5.302 7.222 18.595 9.109 22.666 2.722 5.875 4.998 9.161 9.223 13.321 5.717 5.627 10.269 8.023 17.454 9.185 6.158.996 11.771-.242 25.053-5.523 18.634-7.409 28.938-9.252 58.568-10.477 20.753-.859 28.399-1.434 41.593-3.131 14.257-1.833 21.317-1.947 28.11-.454 8.385 1.844 15.896 2.756 22.648 2.748 6.066-.006 7.692-.197 14.804-1.733 4.394-.948 11.691-2.45 16.214-3.337 24.406-4.783 40.846-9.858 48.517-14.977 1.362-.908 4.921-4.044 7.91-6.97 4.857-4.755 6.053-5.651 11.279-8.45 17.569-9.41 30.001-13.013 42.974-12.457 3.36.144 8.225.49 10.809.769 6.352.684 20.933.704 24.564.033 11.709-2.163 20.712-7.69 29.054-17.834 2.267-2.756 6.792-7.656 10.056-10.891 5.388-5.336 6.19-6.356 8.674-11.036 1.506-2.836 3.247-6.646 3.869-8.467 1.62-4.743 3.444-15.754 3.889-23.484.443-7.703 1.345-10.686 4.869-16.111 1.199-1.845 2.689-4.914 3.313-6.821.623-1.907 2.923-7.171 5.109-11.699 2.187-4.528 4.521-9.503 5.189-11.055a533.6 533.6 0 013.568-7.997c2.887-6.343 4.449-10.148 6.18-15.053.73-2.07 2.164-5.778 3.186-8.241 1.022-2.463 2.826-7.226 4.007-10.585 2.616-7.436 5.812-15.205 9.907-24.082 4.328-9.382 6.907-16.622 9.381-26.331 2.703-10.613 4.396-19.93 4.985-27.432.254-3.234.698-8.515.988-11.735.596-6.646.008-19.568-1.2-26.368-.39-2.199-.929-6.327-1.195-9.173-.267-2.846-.917-7.609-1.443-10.585-.788-4.447-1.006-8.256-1.226-21.404-.452-26.934.508-32.366 11.771-66.563 4.085-12.404 5.703-16.099 12.717-29.029 12.021-22.164 13.338-31.351 7.302-50.944-1.752-5.686-2.786-11.092-2.786-14.561 0-5.886 2.239-15.646 6.557-28.581 3.324-9.958 4.164-14.66 3.421-19.149-1.012-6.112-5.09-12.775-11.9-19.442-9.11-8.919-20.004-13.881-39.436-17.962-11.953-2.51-14.615-3.354-18.222-5.779-4.522-3.04-7.131-7.304-11.588-18.949-11.326-29.59-13.001-33.364-17.331-39.044C519.6 7.208 512.647 2.417 505.87.659c-2.876-.747-9.08-.888-12.004-.274z"/></mask><path clip-rule="evenodd" d="M493.866.385c-3.46.727-7.537 2.11-14.569 4.944-11.834 4.77-16.321 6.123-26.506 7.998-8.777 1.615-18.82 2.466-36.001 3.05-19.579.665-21.463.805-35.953 2.685-11.363 1.474-13.55 1.625-20.914 1.45-6.931-.164-9.482-.445-16.215-1.783-7.193-1.43-8.809-1.59-16.214-1.607-6.943-.017-8.847.139-12.219 1.001-2.197.562-10.446 2.322-18.329 3.912-7.884 1.59-16.924 3.523-20.09 4.293-8.68 2.115-19.507 5.802-25.001 8.514-4.457 2.2-5.472 2.97-11.045 8.369-3.942 3.82-7.313 6.628-9.426 7.855-8.293 4.814-18.805 9.435-25.88 11.379-10.632 2.92-14.787 3.185-29.813 1.907-20.656-1.756-28.767-.777-39.694 4.792-2.078 1.06-4.519 2.608-5.424 3.442a53.35 53.35 0 01-3.136 2.652c-1.358 1.034-10.226 11.076-12.534 14.193-.528.714-2.598 2.68-4.599 4.37-4.867 4.112-8.967 10.689-11.863 19.03-1.596 4.594-3.58 17.444-3.607 23.347-.013 2.977-.277 5.318-.737 6.525-.394 1.035-.909 2.652-1.145 3.595-.236.942-1.47 3.225-2.742 5.074-1.383 2.01-3.018 5.291-4.068 8.165-.965 2.643-2.968 7.239-4.451 10.215-1.484 2.975-3.698 7.738-4.921 10.584a925.004 925.004 0 01-5.408 12.231c-1.751 3.881-3.338 7.585-3.526 8.232-.188.647-1.93 5.198-3.87 10.114-1.94 4.916-4.428 11.478-5.529 14.583-2.618 7.388-5.108 13.81-6.091 15.713-.434.84-1.177 2.94-1.652 4.667a103.333 103.333 0 01-2.055 6.434c-2.265 6.257-4.04 13.188-4.519 17.64-.264 2.458-.67 5.122-.9 5.92-.233.798-.567 2.809-.744 4.469-.178 1.66-1.032 5.876-1.899 9.369-3.436 13.85-3.73 18.836-2.45 41.396 1.554 27.363 1.891 37.08 1.553 44.767a3015.43 3015.43 0 00-.743 18.975c-.563 15.674-1.927 22.349-9.136 44.71-5.719 17.74-6.13 18.819-10.306 27.015-13.15 25.814-13.723 27.149-15.16 35.377-1.368 7.835-.611 13.821 3.377 26.731 1.774 5.741 1.817 6.052 1.83 13.171.011 6.744-.107 7.769-1.578 13.642-.874 3.493-2.704 9.545-4.066 13.449-3.196 9.162-4.158 13.864-3.84 18.766.318 4.937.79 6.352 3.74 11.213 4.466 7.359 11.443 14.004 19.358 18.434 7.309 4.091 19.255 7.934 31.448 10.116 6.34 1.135 12.115 3.11 15.099 5.165 5.14 3.539 8.048 8.887 14.075 25.878 1.88 5.302 7.222 18.595 9.109 22.666 2.722 5.875 4.998 9.161 9.223 13.321 5.717 5.627 10.269 8.023 17.454 9.185 6.158.996 11.771-.242 25.053-5.523 18.634-7.409 28.938-9.252 58.568-10.477 20.753-.859 28.399-1.434 41.593-3.131 14.257-1.833 21.317-1.947 28.11-.454 8.385 1.844 15.896 2.756 22.648 2.748 6.066-.006 7.692-.197 14.804-1.733 4.394-.948 11.691-2.45 16.214-3.337 24.406-4.783 40.846-9.858 48.517-14.977 1.362-.908 4.921-4.044 7.91-6.97 4.857-4.755 6.053-5.651 11.279-8.45 17.569-9.41 30.001-13.013 42.974-12.457 3.36.144 8.225.49 10.809.769 6.352.684 20.933.704 24.564.033 11.709-2.163 20.712-7.69 29.054-17.834 2.267-2.756 6.792-7.656 10.056-10.891 5.388-5.336 6.19-6.356 8.674-11.036 1.506-2.836 3.247-6.646 3.869-8.467 1.62-4.743 3.444-15.754 3.889-23.484.443-7.703 1.345-10.686 4.869-16.111 1.199-1.845 2.689-4.914 3.313-6.821.623-1.907 2.923-7.171 5.109-11.699 2.187-4.528 4.521-9.503 5.189-11.055a533.6 533.6 0 013.568-7.997c2.887-6.343 4.449-10.148 6.18-15.053.73-2.07 2.164-5.778 3.186-8.241 1.022-2.463 2.826-7.226 4.007-10.585 2.616-7.436 5.812-15.205 9.907-24.082 4.328-9.382 6.907-16.622 9.381-26.331 2.703-10.613 4.396-19.93 4.985-27.432.254-3.234.698-8.515.988-11.735.596-6.646.008-19.568-1.2-26.368-.39-2.199-.929-6.327-1.195-9.173-.267-2.846-.917-7.609-1.443-10.585-.788-4.447-1.006-8.256-1.226-21.404-.452-26.934.508-32.366 11.771-66.563 4.085-12.404 5.703-16.099 12.717-29.029 12.021-22.164 13.338-31.351 7.302-50.944-1.752-5.686-2.786-11.092-2.786-14.561 0-5.886 2.239-15.646 6.557-28.581 3.324-9.958 4.164-14.66 3.421-19.149-1.012-6.112-5.09-12.775-11.9-19.442-9.11-8.919-20.004-13.881-39.436-17.962-11.953-2.51-14.615-3.354-18.222-5.779-4.522-3.04-7.131-7.304-11.588-18.949-11.326-29.59-13.001-33.364-17.331-39.044C519.6 7.208 512.647 2.417 505.87.659c-2.876-.747-9.08-.888-12.004-.274z" stroke="#91584E" stroke-width="20" mask="url(#a)"/></svg>