<svg width="13" height="16" fill="none" xmlns="http://www.w3.org/2000/svg"><path d="M3.042 10.294c0-.266-.174-.424-.48-.424-.126 0-.21.013-.255.025v.853a.913.913 0 00.206.017c.327 0 .53-.176.53-.471zm1.899-.416a1.2 1.2 0 00-.278.026v1.888c.052.013.137.013.214.013.557.004.92-.32.92-1.01.004-.6-.327-.917-.856-.917z" fill="#CBCB90"/><path d="M8.47 0H2.41C1.524 0 .804.765.804 1.703V8H.647C.29 8 0 8.307 0 8.686v4.162c0 .379.29.686.647.686h.157v.763c0 .94.72 1.703 1.606 1.703h8.268c.885 0 1.606-.764 1.606-1.703V4.03L8.47 0zM1.698 9.437c.19-.034.456-.06.831-.06.38 0 .65.077.832.232.174.145.29.385.29.668 0 .282-.088.522-.25.685-.21.21-.52.304-.884.304a1.51 1.51 0 01-.21-.013v1.032h-.61V9.437zm8.98 5.52H2.41c-.343 0-.622-.296-.622-.66v-.763h7.708c.357 0 .647-.307.647-.686V8.686c0-.379-.29-.686-.647-.686H1.788V1.703c0-.363.279-.66.622-.66l5.692-.005v2.23c0 .652.498 1.182 1.113 1.182l2.062-.007.023 9.854c0 .364-.279.66-.622.66zm-6.633-2.685V9.437c.226-.038.52-.06.832-.06.517 0 .852.099 1.114.309.283.222.46.578.46 1.088 0 .552-.19.933-.452 1.168-.286.253-.722.373-1.255.373a5.08 5.08 0 01-.699-.043zm4.407-1.678v.53h-.977v1.161h-.618V9.4h1.664v.535H7.475v.66h.977z" fill="#CBCB90"/></svg>