<svg width="32" height="42" fill="none" xmlns="http://www.w3.org/2000/svg"><path d="M7.926 26.817c0-.693-.453-1.106-1.252-1.106-.327 0-.548.035-.663.067V28c.137.033.305.044.537.044.852 0 1.378-.456 1.378-1.226zm4.947-1.082c-.358 0-.59.032-.726.066v4.92c.137.033.358.033.558.033 1.451.011 2.398-.836 2.398-2.632.01-1.562-.852-2.387-2.23-2.387z" fill="#CBCB90"/><path d="M22.064 0H6.278C3.97 0 2.094 1.992 2.094 4.436v16.405h-.408c-.931 0-1.686.8-1.686 1.787V33.47c0 .988.755 1.788 1.686 1.788h.408v1.988c0 2.447 1.877 4.436 4.184 4.436h21.54c2.305 0 4.182-1.99 4.182-4.436V10.499L22.064 0zM4.422 24.585c.494-.089 1.189-.155 2.167-.155.989 0 1.694.2 2.167.602.452.378.758 1.004.758 1.74 0 .735-.232 1.36-.653 1.784-.547.547-1.356.792-2.303.792-.211 0-.4-.011-.548-.033v2.689H4.422v-7.42zm23.396 14.38H6.278c-.893 0-1.62-.772-1.62-1.72v-1.988h20.08c.93 0 1.685-.8 1.685-1.788V22.63c0-.989-.755-1.788-1.686-1.788H4.657V4.436c0-.945.728-1.717 1.62-1.717l14.829-.016v5.812c0 1.698 1.299 3.077 2.901 3.077l5.37-.016.06 25.669c0 .948-.726 1.72-1.62 1.72zm-17.28-6.996v-7.384c.589-.1 1.356-.155 2.166-.155 1.347 0 2.22.256 2.904.802.736.58 1.199 1.506 1.199 2.834 0 1.439-.494 2.432-1.178 3.045-.747.658-1.883.97-3.271.97-.832 0-1.42-.056-1.82-.112zm11.48-4.372v1.383h-2.546v3.024h-1.609v-7.519h4.334v1.394h-2.725v1.718h2.546z" fill="#CBCB90"/></svg>