<svg width="2560" height="765" fill="none" xmlns="http://www.w3.org/2000/svg"><g clip-path="url(#clip0)"><path d="M2722.91 745.919c-229.96 55.809-245.16-28.621-485.17-28.621-240.02 0-240 29.233-480.01 29.233-240 0-240-29.233-480.01-29.233-240 0-240.01 29.233-480.014 29.233-240.004 0-240.015-29.233-480.019-29.233-240.004 0-255.214 84.449-485.171 28.621-68.717-16.645 23.153-72.17 23.153-130.446 0-58.275-36.001-58.239-36.001-116.478s36.001-58.239 36.001-116.478-36.001-58.239-36.001-116.478 36.001-58.239 36.001-116.478-91.882-113.81-23.153-130.492c229.957-55.8 245.156 28.622 485.16 28.622 240.003 0 240.015-29.234 480.018-29.234 240.006 0 240.006 29.234 480.006 29.234 240.01 0 240.01-29.234 480.02-29.234 240.02 0 240 29.234 480.02 29.234 240.01 0 255.2-84.413 485.17-28.622 68.72 16.682-23.15 72.244-23.15 130.483 0 58.239 36 58.239 36 116.478s-36 58.239-36 116.478 36 58.239 36 116.478-53.51 63.802-35.43 120.16c22.65 70.599 91.3 110.128 22.58 126.773z" fill="#fff"/></g><defs><clipPath id="clip0"><path fill="#fff" d="M0 0h2560v765H0z"/></clipPath></defs></svg>