<svg width="101" height="110" fill="none" xmlns="http://www.w3.org/2000/svg"><path d="M97.35 37.749L65.683 2.916C63.973 1.036 61.694 0 59.264 0c-2.43 0-4.71 1.035-6.42 2.915L2.652 58.13C.94 60.009 0 62.517 0 65.19s.941 5.18 2.65 7.06l3.906 4.296v.001l.002.002L32.8 105.416h-3.634c-1.15 0-2.083 1.026-2.083 2.292 0 1.265.933 2.292 2.083 2.292h41.667c1.15 0 2.083-1.026 2.083-2.292 0-1.265-.933-2.291-2.083-2.291l-22.162-.001L97.35 51.871c3.539-3.894 3.539-10.23 0-14.122zm-2.946 10.88l-50.195 55.215c-.92 1.012-2.15 1.57-3.465 1.572h-.016c-1.314-.002-2.544-.56-3.464-1.572L10.976 74.927 59.18 21.902c.814-.895.814-2.346 0-3.241-.813-.895-2.132-.895-2.946 0L8.03 71.686 5.597 69.01c-.922-1.014-1.43-2.37-1.43-3.82 0-1.449.508-2.806 1.43-3.82L55.79 6.156c.922-1.014 2.156-1.573 3.473-1.573 1.317 0 2.55.56 3.473 1.574l11.27 12.397L25.804 71.58c-.814.895-.814 2.346 0 3.241.407.447.94.671 1.473.671.533 0 1.066-.224 1.473-.671l48.205-53.026 17.45 19.194c1.914 2.107 1.914 5.534 0 7.64z" fill="#000"/><path d="M51.331 66.186c-.814-.894-2.132-.894-2.946 0L31.99 84.22c-.814.895-.814 2.345 0 3.24.406.448.94.672 1.473.672.533 0 1.066-.224 1.473-.671L51.33 69.427c.814-.895.814-2.346 0-3.24zm-6.726 17.119l-6.724 7.396c-.813.895-.813 2.346 0 3.242.407.447.94.67 1.473.67.534 0 1.066-.223 1.473-.67l6.724-7.397c.814-.895.814-2.346 0-3.241-.813-.895-2.132-.895-2.946 0zm6.19-6.805l-.884.971c-.814.895-.814 2.346 0 3.241.407.448.94.672 1.473.672.533 0 1.066-.224 1.473-.672l.884-.972c.813-.895.813-2.345 0-3.24s-2.133-.896-2.946 0zm28.714-41.31c-.39-.43-.92-.672-1.473-.672s-1.082.242-1.473.671l-8.84 9.723c-.39.43-.61 1.013-.61 1.62 0 .609.22 1.192.61 1.621l5.893 6.482c.407.447.94.671 1.473.671.534 0 1.067-.224 1.474-.671l8.838-9.723c.814-.895.814-2.346 0-3.24l-5.892-6.483zm-4.42 14.584l-2.946-3.241 5.893-6.482 2.946 3.241-5.893 6.482zM62.57 17.226c.533 0 1.066-.224 1.473-.672l.884-.972c.813-.896.813-2.347 0-3.241-.814-.895-2.134-.895-2.947 0l-.884.973c-.813.895-.813 2.346 0 3.24.408.448.94.672 1.474.672zM20.94 76.927l-.883.972c-.814.895-.814 2.346 0 3.241.407.448.94.671 1.473.671.533 0 1.066-.223 1.473-.67l.884-.973c.814-.895.814-2.346 0-3.24-.814-.896-2.133-.896-2.946 0z" fill="#000"/></svg>