<svg width="1431" height="1055" fill="none" xmlns="http://www.w3.org/2000/svg"><path d="M281.985 329.68c39.826-31.451 50.501-163.314 98.388-178.467 0 0 253.036-73.355 304.495-117.398 72.966-62.348 186.625-30.667 259.614 31.776 72.988 62.442 287.188 10.067 371.528 85.622 84.34 75.555 41.39 253.212 84.34 286.462s32.07 82.777 19.21 127.575c-16.71 58.125-37.85 122.125-89.52 150.598-37.96 20.901-88.41 19.721-116.5 53.478-12.31 14.815-18.07 34.135-26.26 51.78-38.4 82.707-127.09 124.319-208.933 159.398-99.435 42.646-231.231 49.116-338.518 57.866-55.237 4.51-84.302 35.05-128.204 0-48.227-38.499-73.558-108.302-131.252-128.471-57.035-19.934-134.279 13.375-171.809-35.385-9.104-11.795-14.088-27.034-25.49-36.329-22.418-18.282-60.949-6.864-78.61-30.077-12.655-16.654-43.971-97.167-43.971-97.167-13.718-47.735 26.691-75.25 25.854-115.331 3.214-22.198-41.845-18.006-64.135-22.198-100.628-57.129 168.076-164.823 258.772-243.873" fill="#fff"/></svg>