<svg width="1431" height="1055" fill="none" xmlns="http://www.w3.org/2000/svg"><path d="M264.167 323.294c40.415-30.804 51.249-159.953 99.844-174.794 0 0 256.783-71.846 309.003-114.982C747.061-27.546 862.403 3.483 936.472 64.64c74.068 61.157 291.438 9.86 377.028 83.86 85.59 74 42 248 85.59 280.565 43.58 32.566 32.54 81.074 19.49 124.949-16.95 56.929-38.41 119.611-90.84 147.498-38.52 20.471-89.72 19.315-118.23 52.378-12.49 14.509-18.33 33.432-26.65 50.714-38.96 81.004-128.97 121.76-212.021 156.116-100.907 41.77-203.893 84.03-312.768 92.6-56.054 4.42-116.312-1.59-160.864-35.92-48.941-37.711-74.647-106.077-133.196-125.831-57.879-19.523-136.267 13.1-174.353-34.657-9.238-11.552-14.296-26.477-25.867-35.581-22.75-17.905-61.852-6.723-79.774-29.458-12.842-16.311-6.444-39.762-6.93-60.51-.484-20.748-20.116-45.631-37.692-34.657a234.487 234.487 0 0026.237-112.957A241.05 241.05 0 00.547 562.008c73.238-95.421 170.565-161.43 262.603-238.853" fill="#fff"/></svg>