<svg width="140" height="49" fill="none" xmlns="http://www.w3.org/2000/svg"><path d="M68.84 20.191a44.398 44.398 0 00-1.174-5.123s-.806-.786-1.324-2.835-2.153-1.65-3.007-1.613c-.853.038-1.736.45-2.99 2.355-1.946 2.961-1.594 3.627-2.647 4.608-1.053.982-.227.865-1.889 2.176-1.229.968-1.605 4.118-2.542 5.237-.837.995-1.558 4.039-1.666 4.804-.109.765-1.355 2.018-.109 4.341.478.882.864 1.304 1.436 1.472 1.236.367 2.763-.926 3.355-2.354.359-.865.186-1.325.322-2.663.108-1.064 0-1.513.745-3.178.338.066 1.377-.23 1.936.148.491.343 4.401.25 5.261.086l.099.566.467 6.102s.521 2.127 4.516.724c.508-.179.295-.44.39-2.217.094-1.778-.9-10.583-1.179-12.625v-.01zm-4.526 2.694a743.39 743.39 0 01-3.724-.542s.534-2.625 1.13-3.5c.596-.875 1.307-3.23 1.605-3.538.298-.31 1.598 7.66.989 7.58zm33.518 20.014h-.793l-1.015-1.194h-.64v1.194h-.677v-3.576h1.676a1.149 1.149 0 01.89.308 1.182 1.182 0 01.376.876 1.07 1.07 0 01-.229.738 1.043 1.043 0 01-.662.384l1.07 1.218.004.052zm-2.458-2.941v1.14h1.015c.15 0 .292-.06.398-.168a.574.574 0 000-.805.558.558 0 00-.398-.167h-1.015zm7.198 2.941h-2.634v-3.57h2.634v.653h-1.974v.82h1.906v.628h-1.906v.806h1.974v.663zm4.164-2.708a1.01 1.01 0 00-.836-.398c-.495 0-.732.21-.732.474s.363.398.786.45c.735.092 1.419.284 1.419 1.139 0 .792-.695 1.135-1.48 1.135-.718 0-1.273-.223-1.534-.878l.556-.292a1.019 1.019 0 00.988.57c.42 0 .813-.151.813-.535 0-.385-.339-.477-.816-.526-.721-.089-1.385-.28-1.385-1.084 0-.734.714-1.03 1.354-1.03.549 0 1.118.158 1.382.71l-.515.265zm3.04-.251h-1.113v-.61h2.898v.61h-1.118v2.96h-.667v-2.96zm5.597 2.272h-1.842l-.301.687h-.721l1.574-3.57h.724l1.581 3.57h-.724l-.291-.687zm-.921-2.148l-.654 1.52h1.301l-.647-1.52zm6.321-.731v2.06c0 1.056-.64 1.599-1.527 1.599a1.452 1.452 0 01-1.143-.438 1.5 1.5 0 01-.421-1.162v-2.059h.66v2.06a.892.892 0 00.226.71.867.867 0 00.685.274c.548 0 .86-.37.86-.985v-2.059h.66zm5.16 3.566h-.789l-1.016-1.194h-.636v1.194h-.678v-3.576h1.676a1.158 1.158 0 011.172.706c.065.15.099.313.098.478a1.08 1.08 0 01-.229.737 1.048 1.048 0 01-.661.385l1.066 1.218-.003.052zm-2.455-2.941v1.14h1.016a.571.571 0 000-1.14h-1.016zm6.599 2.254h-1.842l-.301.687h-.722l1.582-3.57h.724l1.581 3.57h-.724l-.298-.687zm-.921-2.148l-.654 1.52h1.307l-.653-1.52zm5.495-.741h.663v3.576h-.409v.007l-1.856-2.413V42.9h-.663v-3.57h.538l1.727 2.214v-2.22zm3.568.617h-1.117v-.61H140v.61h-1.117v2.96h-.664v-2.96zm-40.641 6.504a.731.731 0 01-.124.416.716.716 0 01-.337.27.882.882 0 01.566.796c0 .796-.59 1.05-1.32 1.05h-1.67v-3.569h1.67c.697 0 1.215.316 1.215 1.03v.007zm-2.231.387h1.015c.42 0 .556-.178.556-.38 0-.203-.132-.44-.556-.44h-1.015v.82zm0 1.51h1.015c.275 0 .66-.089.66-.429 0-.34-.385-.487-.66-.487h-1.015v.916zm6.575-.037h-1.839l-.305.686h-.717l1.581-3.569h.724l1.578 3.569h-.711l-.311-.686zm-.918-2.149l-.657 1.52h1.311l-.654-1.52zm6.646 2.821h-.789l-1.016-1.194h-.636v1.194h-.677v-3.575h1.676a1.155 1.155 0 01.892.308 1.179 1.179 0 01.377.875c.019.267-.063.53-.228.738a1.044 1.044 0 01-.662.385l1.066 1.218-.003.051zm-2.455-2.94v1.139h1.016a.56.56 0 00.562-.57.56.56 0 00-.562-.57h-1.016zm30.8-45.522c-2.739-.312-3.386 1.544-5.126 1.126-1.74-.419-3.927 3.795-5.36 7.55-1.432 3.754-3.385 7.316-3.565 13.428-.179 6.111-.714 8.277 2.831 9.656 3.545 1.38 7.299-1.208 7.787-2.244.487-1.036.281-2.361-.745-1.956-1.026.405-2.194 1.688-3.301 1.074-1.107-.614-3.047-1.493-2.929-3.088.119-1.596.237-1.716.295-2.578.081-1.153-1.06-1.465 0-3.088.728-1.098 2.549-1.29 4.503-3.521 2.776-3.164 4.577-3.089 7.844-8.336 3.166-5.055.501-7.71-2.234-8.023zm-.941 5.148c-.383 1.283-1.426 1.98-2.56 3.088-1.134 1.109-3.606 3.775-3.25 1.184.355-2.59 3.599-5.384 3.599-5.384s2.593-.179 2.211 1.101v.01zM27.535 14.883s-1.073 6.43-.297 8.819c.775 2.388-.393 5.624-1.128 8.445-.636 2.447-.772 4.61-.135 6.864.098.343-.126 1.063 0 1.42 1.015 2.674 3.223 1.088 3.883-.13a21.612 21.612 0 002.37-11.325c-.339-5.936-1.087-6.345 2.008-7.676 3.094-1.332 4.851-1.4 4.868.068.017 1.47-2.837 8.065-1.015 12.941 1.821 4.877 6.696 4.139 7.028 3.233.332-.906-1.168-1.74-1.93-3.799-.761-2.059.539-8.236.735-10.673.196-2.436 1.094-7.536-2.218-8.62-3.31-1.084-7.624 1.198-8.298-.034-.673-1.232-1.056-4.252-.277-7.142.778-2.889 1.987-5.682.057-6.914-1.236-.776-3.477-.265-4.58 1.221-.617.824.05 2.423-.583 3.226-.765.992-.488 10.076-.488 10.076zm-8.951-.063a10.122 10.122 0 01-.122-1.224c-.02-1.51-.657-4.462-2.275-5.927a3.377 3.377 0 00-1.218-.74 3.343 3.343 0 00-1.41-.17c-3.351.327-9.916 3.007-10.752 10.817-.857 7.99 4.083 13.185 6.192 15.405.244.261.491.511.731.755.776.793 1.947 1.987 1.856 2.402-.027.127-.339.474-1.354.858a14.66 14.66 0 01-3.826.755c-2.174.227-4.402.46-5.854 2.852-.962 1.603-.454 2.639-.068 3.116.752.926 2.255 1.228 3.603 1.228a7.077 7.077 0 002.244-.319c1.273-.47 7.753-4.23 8.976-6.263 1.648-2.745 1.276-5.394-1.077-7.645l-.227-.22c-2.37-2.272-6.808-6.5-6.433-11.115.4-4.705 4.585-6.496 5.231-6.465a.497.497 0 01.339.26 2.666 2.666 0 01.152 2.125c-.14.43-.32.847-.535 1.245-.487.961-1.04 2.06-.433 3.888l.037.11.058.1c.094.15.948 1.486 2.37 1.547.958.035 1.838-.48 2.62-1.547 1.676-2.248 1.388-4.317 1.175-5.827zm70.943-1.67a.62.62 0 01-.393-.17.634.634 0 01-.193-.386c-.129-1.006-.714-2.643-3.139-2.643-3.497 0-8.88 3.48-9.083 9.753-.203 6.273 4.71 6.723 7.82 6.036 0 0 .058 1.188-1.692 2.687-1.75 1.5-8.278 5.32-8.803 12.958-.525 7.64 7.16 5.927 8.278 3.957 1.835-3.226 6.863-7.23 7.201-14.324.339-7.093-.406-11.935.47-13.774.878-1.84.472-3.412 0-3.889a.672.672 0 00-.466-.206zm-6.93 26.348c-.678.604-2.418 2.268-3.464 2.44-1.222.199-1.994-.724-1.195-2.965a18.032 18.032 0 012.37-3.905 12.615 12.615 0 014.682-3.223s-.67 6.102-2.394 7.653zm3.534-21.362c-.677 1.716-4.374 4.704-5.383 3.548-1.01-1.156-1.199-4.025.833-6.07 2.031-2.046 3.768-1.98 4.238-1.716-.017.01.996 2.532.322 4.238h-.01zm26.848.456c-2.136-6.129-.914-5.384-1.832-8.792-.917-3.407-2.136-2.91-4.215-1.856-2.078 1.053-1.039 2.786-1.039 2.786s-4.52 6.28-7.723 11.208c-.545.84-1.232 1.28-1.425 2.45-.227 1.373-1.602 2.035-1.662 2.687-.305 3.343.761 4.925 3.003 4.839 1.743-.069 3.253-4.921 4.171-6.469.917-1.547 7.668.02 7.668.02s.061-.37.677 3.158c.617 3.528 3.846 3.528 5.191 2.402 1.344-1.125-.674-6.314-2.814-12.433zm-5.19 3.089c-.918-.495-1.957-.124-3.115.185-1.158.309-.735-.494 0-2.159.42-.954 1.568-2.43 2.052-3.363a.577.577 0 01.806-.305 1.037 1.037 0 01.612.878 5.882 5.882 0 001.111 2.79c.792.944-.552 2.478-1.466 1.98v-.006z" fill="#fff"/></svg>