<svg width="2156" height="3003" fill="none" xmlns="http://www.w3.org/2000/svg"><g opacity=".5" stroke="#4D1C1C"><path opacity=".2" d="M882.001 1777.11h.014c6.155 1.82 11.353 6 14.488 11.66h.003c6.068 10.7 9.02 31.07 4.291 56.02-4.725 24.92-17.109 54.34-41.629 83.1-12.351 14.48-22.832 36.69-32.864 65.72-10.036 29.04-19.64 64.96-30.215 106.93-3.463 13.74-7.031 28.14-10.752 43.15-19.007 76.68-42.024 169.54-75.622 274.72-40.145 125.67-114.895 212.37-191.735 279.93-35.87 31.54-72.19 58.91-105.664 84.13-2.382 1.8-4.751 3.58-7.104 5.35-35.394 26.7-67.268 51.11-91.514 75.69l.356.35-.357-.35c-14.634 14.88-43.821 25.34-78.033 28.4-34.187 3.06-73.281-1.28-107.643-15.89-34.355-14.6-63.96-39.45-79.24-77.41-15.282-37.97-16.265-89.12 6.783-156.4 79.816-232.97 293.347-319.96 399.457-363.18 16.472-6.71 30.355-12.37 40.748-17.35 38.676-18.55 60.384-38.65 72.428-54.15 6.021-7.75 9.624-14.34 11.723-19.01 1.05-2.33 1.723-4.18 2.135-5.45a33.9 33.9 0 00.437-1.46l.097-.38.024-.1.006-.03.001-.01h.001l-.488-.11.488.11.126-.58-.592-.02c-59.065-2.65-131.476-19.81-180.666-64.14-24.586-22.16-43.377-51.11-51.81-88.45-8.435-37.34-6.518-83.11 10.368-138.9 33.765-111.56 107.225-185.62 187.911-227.59 80.702-41.97 168.599-51.83 231.201-35.04 43.368 11.63 66.304 33.49 77.791 57.04 11.498 23.58 11.561 48.91 9.042 67.54a24.14 24.14 0 003.271 16.07 23.469 23.469 0 0012.738 10.09zm-501.679 879.88h.002c19.297-9.84 38.915-30.56 57.475-56.02 18.569-25.48 36.119-55.77 51.263-84.82 15.145-29.05 27.89-56.88 36.848-77.45 4.479-10.28 8.012-18.75 10.426-24.64 1.206-2.95 2.133-5.26 2.758-6.83.154-.38.29-.73.407-1.02.121-.31.222-.56.302-.77.08-.2.14-.35.18-.46l.045-.11.012-.03.003-.01-.465-.18.466.18.3-.77-.823.09c-70.732 8.05-138.846 32.25-199.206 70.78l-.015.01-.014.01c-45.641 33.77-86.87 73.29-122.683 117.58l-.012.02-.011.01c-25.133 36.45-33.08 64.95-28.889 84.98 4.207 20.11 20.593 31.51 43.619 33.83l.05-.5-.05.5c9.889.98 22.211-.99 35.567-4.72 13.365-3.74 27.808-9.24 41.955-15.33 22.591-9.72 44.461-20.97 60.013-28.97 3.925-2.02 7.447-3.83 10.477-5.36zm362.091-888.77l.49-.15-.611-.59c-7.302-7.14-26.463-15.43-55.32-15.2-28.884.22-67.53 8.97-113.873 35.97-46.39 27.03-74.799 66.84-88.467 106.31-13.661 39.46-12.609 78.65.004 104.43 6.404 13.08 21.464 18.21 40.815 17.83 19.376-.39 43.237-6.3 67.555-15.53 24.325-9.23 49.14-21.79 70.429-35.49 21.142-13.6 38.842-28.36 49.125-42.14l.036.01.329.09.202-.27c20.377-27.52 27.512-66.43 29.657-98.41 1.074-16.01.9-30.3.501-40.61-.199-5.15-.454-9.31-.637-12.18-.092-1.44-.165-2.55-.204-3.31-.018-.33-.028-.58-.031-.76zm.004-.26s0 0 0 0 0 0 0 0zm994.633 685.4h0c15.46-12.15 28.27-31.19 39.52-53.84 11.26-22.65 20.94-48.86 30.17-75.34 2.21-6.35 4.4-12.71 6.57-19.04 6.9-20.07 13.69-39.84 20.87-57.82 9.43-23.64 19.54-44.25 31.46-58.44h0c10.53-12.51 20.72-31.5 30.17-53.57 9.45-22.07 18.14-47.2 25.69-71.97 15.09-49.54 25.58-97.62 28.31-116.92 1.32-9.31 5.95-20.01 11.31-32.43.25-.58.51-1.18.76-1.77 5.7-13.2 12.11-28.37 16.38-45.99 8.54-35.2 8.55-80.24-22.91-138.81-24.14-44.53-43.59-65.7-72.34-74.13h0c-31.05-9.21-65.84 2.39-96.66 25.38-30.81 22.98-57.56 57.28-72.52 93.26-9.05 21.77-11.4 38.44-12.34 58.13-.27 5.74-.43 11.74-.59 18.21-.41 15.69-.88 34.1-3.31 58.05-1 9.84-1.64 18.66-2.24 27.01-1.04 14.4-1.98 27.41-4.53 41.92-4.03 22.96-12.1 49.69-30.96 91.76l-.16.36-.39-.07c-4.2-.81-10.63-.51-18.43.13-2.2.18-4.51.39-6.9.6-6.04.54-12.62 1.13-19.37 1.46-18.83.94-39.2-.09-53.48-9.72l-.01-.01c-3.01-2.1-8.72-3.91-16.59-5.42-7.85-1.51-17.77-2.72-29.12-3.65-22.71-1.87-51.11-2.65-80.11-2.63-58.02.05-118.32 3.3-140.03 7.45l-.5.09-.09-.5-4.96-28.6-.01-.03v-.02l-23.64-308.2-.01-.03c-.01-.05-.03-.13-.06-.22-.05-.2-.14-.49-.26-.87-.24-.76-.61-1.87-1.17-3.26-1.1-2.77-2.91-6.67-5.71-11.12-5.59-8.91-15.15-20.07-31-29.03-31.69-17.91-88.66-27.09-189.67 8.34-6.39 2.24-10.41 4.71-13 8.48-2.6 3.79-3.8 8.98-4.36 16.78-.45 6.35-.47 14.36-.5 24.68 0 2.36-.01 4.85-.02 7.47-.06 14.01-.29 31.68-1.49 54.14-1.2 22.41 1.05 67.02 5.32 122.97 4.26 55.94 10.55 123.19 17.42 190.85 13.75 135.33 29.85 272.33 36.88 323.9v.54a2239.136 2239.136 0 0059.39 258.61l.03.03c.08.08.2.2.35.36.31.32.77.8 1.35 1.45 1.18 1.3 2.88 3.26 5 5.94 4.25 5.35 10.18 13.57 16.92 25.02 13.5 22.91 30.26 58.75 43.38 110.54 6.54 25.81 16.59 43.88 28.63 56.44 12.05 12.57 26.11 19.66 40.72 23.47 14.61 3.82 29.77 4.36 43.98 3.83 7.11-.27 13.98-.81 20.42-1.34.7-.05 1.39-.11 2.07-.17 5.66-.47 10.98-.91 15.81-1.12 21.5-.95 43.37-6.6 67.79-24.01 24.42-17.41 51.41-46.61 83.09-94.69m229.68-342.87l-229.68 342.87m229.68-342.87c-42.09 33.14-52.73 48.27-59.5 61.37-.97 1.88-1.86 3.7-2.75 5.53-2.2 4.54-4.4 9.06-7.87 14.36-4.86 7.41-12.21 16.31-25.51 28.68-26.38 24.56-35.4 45.23-49.59 77.8l-.56 1.27c-14.51 33.3-34.67 79.08-83.9 153.86m229.68-342.87l-229.26 343.14-.42-.27m-11.92-473.02l.07-.49h0l-.03-.01-.08-.01-.34-.05-1.32-.19-5.06-.75c-4.37-.64-10.65-1.57-18.28-2.69-15.25-2.24-35.92-5.27-57.55-8.44-43.26-6.32-90.37-13.17-105.8-15.25h0c-1.11-.15-2.12.17-2.99.9-.87.71-1.59 1.8-2.22 3.2-1.24 2.8-2.11 6.98-2.67 12.29-1.13 10.64-1.03 26.01 0 44.48 2.07 36.96 7.88 86.43 15.12 135.53 7.24 49.1 15.91 97.85 23.72 133.35 3.91 17.74 7.6 32.19 10.79 41.72 1.59 4.76 3.07 8.33 4.4 10.48.66 1.06 1.33 1.84 2.02 2.21.36.19.74.28 1.13.22.39-.07.73-.28 1.02-.58 1.94-2.01 4.18-5.63 6.67-10.46 2.49-4.85 5.26-10.96 8.24-17.98 4.91-11.54 10.41-25.56 16.28-40.52 1.27-3.24 2.56-6.53 3.87-9.84 14.65-37.23 31.17-77.96 46.2-100 7.58-11.11 14.94-27.73 21.72-46.39 6.79-18.67 13-39.41 18.27-58.76s9.6-37.31 12.61-50.44c1.5-6.57 2.68-11.92 3.48-15.64.4-1.85.7-3.3.91-4.28.1-.5.18-.87.23-1.12l.06-.29.02-.07v-.03l-.49-.1zm0 0l.07-.49.53.08-.11.51-.49-.1z"/><path opacity=".2" d="M1365.59 461.229v-.013c4.72-36.771 4.43-92.152-5.6-148.648-10.04-56.502-29.83-114.059-64.06-155.232l-.01-.009c-14.68-18.487-33.08-33.594-53.97-44.326a163.793 163.793 0 00-67.24-17.939c-165.24-7.318-502.937 77.668-597.516 451.797-96.78 382.595 107.364 669.461 194.734 792.231l.111.16h.002c10.057 14.38 20.35 28.28 30.366 41.81h.001l.664.9c16.014 21.83 35.935 48.97 51.044 73.16 7.658 12.26 14.091 23.78 18.152 33.47 2.031 4.84 3.475 9.24 4.18 13.06.704 3.81.68 7.09-.28 9.66-.593 1.62-2.176 3.73-4.966 6.15-2.805 2.44-6.866 5.23-12.478 8.18-11.223 5.92-28.677 12.53-54.749 18.38h-.016a720.706 720.706 0 01-191.522 10.29c-107.362-4.02-217.133-8.04-304.166 98.14-28.875 35.61-38.903 66.84-39.807 92.36-.904 25.53 7.317 45.4 15.025 58.29 15.018 25.04 40.233 43.83 69.916 57.54 29.681 13.71 63.792 22.3 96.547 26.96h.01a347.328 347.328 0 00111.273 0c32.555-7.03 134.132-45.09 236.793-92.72 51.329-23.81 102.91-50 146.248-75.89 43.354-25.9 78.404-51.46 96.724-73.99 49.55-61.06 74.34-124.4 74.42-188.16.07-63.77-24.57-128.02-73.99-190.89h-.01l-9.52-12.26h0l-1.6-2.05c-49.743-63.39-120.418-153.46-172.759-255.185-52.904-102.815-87.117-217.603-61.99-328.821v-.002c26.009-113.291 93.097-184.523 157.589-226.678 32.244-21.076 63.84-34.887 89.34-43.055 12.75-4.084 23.98-6.76 33.01-8.227 9.01-1.464 15.88-1.733 19.87-.969l.04.008.04.015a24.908 24.908 0 019.18 5.977 25.395 25.395 0 015.8 9.364l255.17 57.162zm0 0a499.616 499.616 0 00-2.54 60.541m2.54-60.541l-2.54 60.541m0 0c-.05 74.968-.35 177.513-97.28 275.188l-.01.003c-45.36 46.471-91.6 65.329-137.77 57.069-34.23-6.395-59.41-27.24-76.48-47.519-17.06-20.263-26.01-39.925-27.79-43.931 0-.003 0-.006-.01-.009l-2.08-5.18-1.05-5.552c-8.41-46.539-4.02-82.171 6.25-111.576 10.27-29.415 26.43-52.623 41.62-74.328a370.123 370.123 0 0034.68-57.008l259.92 12.843z"/><path opacity=".3" d="M1126.1 1379.7l.44.24.02-.04.02-.05-.48-.15zm0 0l.48.15v-.02l.02-.06.07-.22c.06-.2.15-.5.28-.89.24-.79.6-1.96 1.08-3.49.95-3.06 2.36-7.55 4.17-13.28 3.61-11.45 8.83-27.85 15.24-47.63 12.83-39.56 30.47-92.66 49.66-146.79 19.2-54.13 39.96-109.28 59.04-152.97 9.54-21.849 18.66-40.818 26.96-55.354 4.15-7.268 8.08-13.42 11.75-18.267 3.68-4.851 7.08-8.366 10.14-10.39M1126.1 1379.7l.44.24-.01.01-.02.04-.08.15-.32.59c-.28.53-.7 1.31-1.24 2.33-1.09 2.04-2.68 5.05-4.72 8.93-4.06 7.76-9.87 18.98-16.84 32.81-13.96 27.67-32.58 65.83-51.27 107.74-18.68 41.91-37.43 87.58-51.62 130.29-14.204 42.72-23.84 82.44-24.337 112.46-.999 60.35-27.345 122.72-63.037 184.55-24.492 42.42-53.412 84.62-81.6 125.76-12.889 18.81-25.626 37.4-37.716 55.68-66.808 101.1-106.486 197.01-112.682 309.1-.225 4.36-1.748 9.45-3.874 14.89-1.922 4.92-4.354 10.16-6.804 15.45-.261.56-.523 1.12-.784 1.69-2.713 5.85-5.384 11.72-7.369 17.26-1.987 5.54-3.271 10.7-3.241 15.14 1.115 34.2 9.721 57.42 22.693 72.35 12.966 14.93 30.348 21.62 49.15 22.66 37.645 2.09 80.875-18.5 105.217-40.95 135.682-129.93 233.654-294.93 283.134-476.83v-.01c14.01-50.02 24.55-91.92 33.39-127.1 3.3-13.1 6.36-25.27 9.28-36.58 10.74-41.64 19.55-71.6 30.99-93.37 11.47-21.8 25.59-35.39 46.94-44.3 21.32-8.89 49.83-13.09 90.04-16.17 80.42-6.18 140.88-3.23 178.5 9.68 18.81 6.45 31.97 15.41 39.03 27.04 7.07 11.64 7.96 25.86 2.41 42.68-2.78 8.43-8.84 19.77-17.27 33.64-8.44 13.87-19.28 30.3-31.64 48.91-1.48 2.22-2.98 4.48-4.5 6.76-23.9 35.96-52.83 79.47-80.95 128.02-59.84 103.28-116.03 229.31-112.67 353.96 3.36 124.61 63.01 197.42 125.42 234.61 31.21 18.6 63.11 28.28 89.01 31.08 12.95 1.4 24.39 1.08 33.48-.71 9.1-1.79 15.77-5.03 19.3-9.39 7.17-8.86 9.18-19.28 8.09-31.63-1.1-12.37-5.3-26.62-10.51-43.1-.7-2.2-1.41-4.44-2.14-6.72-10.14-31.82-22.76-71.4-23.93-120.59-.63-26.42 8.61-62.49 23.5-103.37 14.91-40.89 35.5-86.65 57.62-132.46 19.71-40.81 40.63-81.68 59.85-119.2 2.35-4.6 4.69-9.16 6.99-13.66 21.05-41.15 39.49-77.55 51.17-104.41 4.81-11.08 10.4-23.32 16.41-36.47 23.16-50.72 52.54-115.05 67.75-178.84 19.16-80.33 15.8-159.59-50.51-209.73-66.44-50.24-157.29-66.25-233.07-78-4.09-.63-8.13-1.25-12.13-1.86-33-5.07-62.59-9.62-85.21-16.3-12.68-3.75-23.21-8.18-30.94-13.78-7.74-5.6-12.68-12.4-14.13-20.85-5.71-33.29-1.13-85.71 14.87-144.66 16.01-58.97 43.47-124.52 83.58-184.08 11.71-17.39 23.8-34.54 35.7-51.41 28.84-40.9 56.53-80.185 74.94-117.405 26-52.546 33.37-100.772-.58-143.486-21.84-27.057-60.04-43.521-101.93-46.932-41.89-3.411-87.41 6.235-123.83 31.301l-.01.001c-10.07 6.882-17.32 17.191-23.16 29.251-5.78 11.912-10.16 25.487-14.55 39.088l-.17.518c-4.44 13.759-8.91 27.525-14.85 39.514-5.94 11.991-13.37 22.25-23.76 28.969m0 0l-.01.001-.27-.42m.28.419v-.002l-.28-.417m0 0c20.71-13.388 29.64-41.041 38.59-68.753 8.83-27.356 17.68-54.771 37.9-68.581l-76.49 137.334z"/></g></svg>