<svg width="32" height="29" fill="none" xmlns="http://www.w3.org/2000/svg"><path d="M25.375 0h-7.5a6.57 6.57 0 00-6.563 6.563c0 3.3 2.45 6.04 5.626 6.495v2.88a.937.937 0 001.6.662l3.475-3.475h3.362c3.618 0 6.625-2.944 6.625-6.563C32 2.945 28.993 0 25.375 0zm-7.5 7.5a.937.937 0 110-1.875.937.937 0 010 1.875zm3.75 0a.937.937 0 110-1.875.937.937 0 010 1.875zm3.75 0a.937.937 0 110-1.875.937.937 0 010 1.875z" fill="#fff"/><path d="M21.063 28.125a2.816 2.816 0 002.812-2.813v-3.75a.937.937 0 00-.64-.889L17.621 18.8a.939.939 0 00-.816.108l-2.386 1.59c-2.527-1.204-5.525-4.203-6.73-6.73l1.59-2.385c.16-.241.2-.542.109-.817L7.514 4.953a.936.936 0 00-.889-.64H2.812A2.804 2.804 0 000 7.111c0 10.801 10.261 21.013 21.063 21.013z" fill="#fff"/></svg>