<svg width="41" height="42" fill="none" xmlns="http://www.w3.org/2000/svg"><path d="M32.512.68h-9.61c-4.636 0-8.408 4.236-8.408 9.442 0 4.75 3.138 8.69 7.207 9.346v4.143c0 .546.292 1.038.741 1.246.444.208.963.097 1.31-.292l4.452-5h4.308c4.636 0 8.488-4.237 8.488-9.443C41 4.916 37.148.68 32.512.68zm-9.61 10.79c-.663 0-1.2-.603-1.2-1.348 0-.745.537-1.349 1.2-1.349.664 0 1.201.604 1.201 1.349s-.537 1.349-1.2 1.349zm4.805 0c-.663 0-1.201-.603-1.201-1.348 0-.745.538-1.349 1.201-1.349s1.201.604 1.201 1.349-.538 1.349-1.201 1.349zm4.805 0c-.664 0-1.201-.603-1.201-1.348 0-.745.537-1.349 1.2-1.349.664 0 1.202.604 1.202 1.349s-.538 1.349-1.201 1.349z" fill="#CBCB90"/><path d="M26.986 41.146c1.987 0 3.604-1.815 3.604-4.046v-5.396c0-.58-.331-1.096-.821-1.279l-7.19-2.698a1.092 1.092 0 00-1.047.157l-3.057 2.288c-3.237-1.733-7.079-6.047-8.623-9.683l2.038-3.433c.205-.346.257-.78.14-1.175L9.627 7.807c-.163-.55-.621-.922-1.139-.922H3.604C1.616 6.885 0 8.681 0 10.913c0 15.54 13.147 30.233 26.986 30.233z" fill="#CBCB90"/></svg>