<svg width="31" height="24" fill="none" xmlns="http://www.w3.org/2000/svg"><path d="M3.12 23.08c1.44-1.44 2.56-2.64 3.44-3.6.88-.88 1.84-2.08 3.04-3.6 2.32-2.96 3.44-5.76 3.44-8.56 0-4.08-2.56-6.56-6.32-6.56C3.12.76.48 3.32.48 6.92S3.12 13 6.72 13c.24.24.32.56.32.96 0 .88-.56 2.16-1.6 3.76-1.04 1.68-2.16 3.12-3.36 4.32l1.04 1.04zm17.5 0c1.44-1.44 2.56-2.64 3.44-3.6.88-.88 1.84-2.08 3.04-3.6 2.32-2.96 3.44-5.76 3.44-8.56 0-4.08-2.56-6.56-6.32-6.56-3.6 0-6.24 2.56-6.24 6.16S20.62 13 24.22 13c.24.24.32.56.32.96 0 .88-.56 2.16-1.6 3.76-1.04 1.68-2.16 3.12-3.36 4.32l1.04 1.04z" fill="#2E1113"/></svg>