<svg width="33" height="32" fill="none" xmlns="http://www.w3.org/2000/svg"><path d="M19.373 29.242c-.266.067-.537.125-.806.175a1.297 1.297 0 00-.51 2.334c.275.193.625.28.982.214.32-.06.643-.129.96-.208a1.295 1.295 0 10-.626-2.515zm9.583-17.369a1.295 1.295 0 102.46-.815 16.64 16.64 0 00-.337-.922 1.296 1.296 0 10-2.407.962c.102.255.197.515.284.775zm-5.372 15.519c-.229.151-.465.297-.703.434a1.296 1.296 0 001.295 2.245c.283-.163.564-.337.836-.517a1.296 1.296 0 00-1.428-2.162zm8.637-11.899a1.296 1.296 0 00-2.59.101c.012.274.014.551.008.824a1.294 1.294 0 001.267 1.325 1.296 1.296 0 001.324-1.267 16.95 16.95 0 00-.008-.983zm-3.477 8.49a1.295 1.295 0 00-1.814.26c-.165.219-.338.435-.515.644a1.296 1.296 0 001.973 1.68c.212-.249.418-.508.615-.77a1.296 1.296 0 00-.259-1.814zm1.905-4.683a1.296 1.296 0 00-1.624.848c-.082.26-.173.523-.27.78a1.297 1.297 0 002.42.922c.117-.305.225-.617.323-.927a1.296 1.296 0 00-.85-1.624zM13.72 29.429a13.376 13.376 0 01-3.324-1.057l-.037-.02a14.188 14.188 0 01-.74-.375 13.84 13.84 0 01-1.29-.805C2.234 22.878.77 14.425 5.063 8.33a13.466 13.466 0 013.324-3.307l.046-.032c4.44-3.059 10.467-3.265 15.181-.122l-1.012 1.463c-.282.407-.109.704.384.66l4.398-.394c.493-.045.788-.472.655-.948l-1.18-4.255c-.133-.477-.471-.534-.753-.127L25.09 2.734A16.003 16.003 0 0013.364.241c-.415.072-.824.16-1.227.262l-.008.001c-.016.004-.032.01-.047.013a15.978 15.978 0 00-8.86 5.939c-.019.022-.038.043-.055.067a15.248 15.248 0 00-.56.808c-.014.02-.025.042-.037.062a15.975 15.975 0 00-2.553 9.423v.034c.014.325.04.654.075.979.002.02.007.04.01.061a15.992 15.992 0 004.648 9.652l.017.018.005.005a16.333 16.333 0 002.065 1.725 15.978 15.978 0 006.425 2.69 1.295 1.295 0 10.457-2.551z" fill="#fff"/><path d="M15.322 5.648c-.58 0-1.05.47-1.05 1.048v10.446l9.554 4.938a1.048 1.048 0 00.963-1.862l-8.42-4.353V6.696c0-.578-.469-1.048-1.047-1.048z" fill="#fff"/></svg>