<svg width="36" height="22" fill="none" xmlns="http://www.w3.org/2000/svg"><path d="M22.06.334c1.005.142 1.99.394 2.962.693a20.264 20.264 0 014.805 2.19.736.736 0 00.368.107c1.77.007 3.538.005 5.305.006.143 0 .285.015.427.023 0 .035.005.05-.001.058l-.25.379c-.6.92-1.112 1.883-1.415 2.947-.033.115-.04.21.038.322 1.575 2.262 2.077 4.745 1.42 7.421-.578 2.348-1.924 4.178-3.968 5.474-1.462.926-3.076 1.367-4.8 1.377a8.38 8.38 0 01-2.154-.276c-1.725-.448-3.203-1.308-4.422-2.61-.16-.17-.311-.35-.483-.543l-1.927 2.875-1.896-2.834c-.043.023-.056.025-.064.033a.297.297 0 00-.038.04c-1.474 1.74-3.328 2.807-5.586 3.164a8.719 8.719 0 01-3.721-.21 8.872 8.872 0 01-4.387-2.733A8.867 8.867 0 01.12 13.655c-.31-1.621.068-3.185.162-3.565a9.064 9.064 0 011.403-3.047.352.352 0 00.04-.262C1.46 5.804 1 4.914.461 4.063c-.136-.217-.3-.418-.451-.625v-.073c.03.004.06.01.09.01 1.81 0 3.62.001 5.43-.002a.46.46 0 00.233-.076 19.504 19.504 0 014.05-1.966A22.012 22.012 0 0112.959.48c1.035-.2 2.075-.341 3.127-.41 2.564-.198 4.613.074 5.976.265zm-2.269 11.955c0 3.974 3.226 7.222 7.186 7.206 3.976-.014 7.186-3.17 7.183-7.189-.003-4.141-3.362-7.254-7.337-7.174-3.924.082-6.996 3.245-7.032 7.157zM9.013 5.105c-3.867-.034-7.238 3.193-7.17 7.304.063 3.833 3.222 7.082 7.25 7.048 3.939-.034 7.105-3.25 7.112-7.145a7.168 7.168 0 00-7.192-7.207zm.356-1.875c2.184.133 4.103.894 5.724 2.368 1.618 1.472 2.565 3.307 2.91 5.465.354-2.133 1.277-3.95 2.864-5.407 1.59-1.458 3.483-2.223 5.632-2.385-2.55-1.134-5.238-1.615-8.005-1.668-3.145-.062-6.204.401-9.125 1.627z" fill="#fff"/><path d="M26.962 7.754a4.435 4.435 0 014.453 4.435 4.456 4.456 0 11-8.913.01c.002-2.522 2.081-4.487 4.46-4.445zm2.902 4.446c-.001-1.604-1.297-2.907-2.89-2.907-1.61 0-2.922 1.296-2.928 2.895-.006 1.592 1.312 2.916 2.907 2.92a2.915 2.915 0 002.911-2.908zM8.918 7.754a4.434 4.434 0 014.448 4.44 4.453 4.453 0 01-4.238 4.455 4.458 4.458 0 01-4.676-4.454c.005-2.54 2.099-4.484 4.466-4.441zm2.898 4.436a2.907 2.907 0 00-2.938-2.897c-1.57.003-2.887 1.33-2.883 2.906a2.935 2.935 0 002.919 2.91c1.59.005 2.906-1.32 2.902-2.92z" fill="#fff"/><path d="M26.965 10.724a1.476 1.476 0 011.476 1.478 1.48 1.48 0 01-1.467 1.471c-.826 0-1.49-.652-1.487-1.46a1.465 1.465 0 011.478-1.49zM8.91 10.71a1.488 1.488 0 11.005 2.978 1.47 1.47 0 01-1.493-1.498c0-.832.649-1.478 1.488-1.48z" fill="#fff"/></svg>