<svg width="825" height="915" fill="none" xmlns="http://www.w3.org/2000/svg"><path d="M671.367 285.931c-23.27-27.277-29.508-141.642-57.488-154.784 0 0-147.848-63.621-177.915-101.82C393.33-24.746 326.919 2.73 284.272 56.888c-42.647 54.156-167.804 8.731-217.083 74.26-49.279 65.529-24.182 219.61-49.279 248.448C-7.186 408.432-.827 451.387 6.687 490.24c9.76 50.412 22.114 105.919 52.301 130.614 22.181 18.127 51.663 17.104 68.073 46.382 7.194 12.848 10.559 29.604 15.346 44.908 22.434 71.731 74.257 107.822 122.077 138.245 58.1 36.991 135.108 42.597 197.796 50.188 32.274 3.907 49.257 30.402 74.909 0 28.179-33.39 42.98-93.93 76.69-111.423 33.326-17.288 78.459 11.6 100.388-30.689 5.319-10.23 8.232-23.447 14.894-31.508 13.099-15.856 35.612-5.954 45.932-26.086 7.394-14.444 3.71-35.211 3.989-53.584.279-18.372 26.04-13.701 21.703-30.689-10.401-30.869-19.721-64.309-15.107-100.027C796.932 481.886 825 455.838 825 427.954c-11.086-147.729-100.055-73.586-153.048-142.146" fill="#fff"/></svg>