<svg width="1080" height="780" fill="none" xmlns="http://www.w3.org/2000/svg"><path d="M212.819 243.745c30.057-23.253 38.114-120.745 74.255-131.948 0 0 190.971-54.234 229.807-86.796 55.069-46.097 140.85-22.673 195.935 23.493 55.086 46.166 216.746 7.443 280.398 63.303 63.656 55.861 31.236 187.209 63.656 211.792 32.41 24.583 24.2 61.2 14.49 94.321-12.6 42.974-28.56 90.291-67.55 111.342-28.654 15.453-66.734 14.581-87.93 39.539-9.293 10.953-13.639 25.237-19.822 38.283-28.978 61.148-95.915 91.913-157.683 117.848-75.045 31.533-174.514 36.312-255.485 42.783-41.688 3.331-63.624 25.917-96.758 0-36.397-28.464-55.515-80.072-99.058-94.984-43.045-14.737-101.343 9.889-129.667-26.161-6.871-8.721-10.633-19.987-19.238-26.859-16.919-13.517-46-5.075-59.329-22.237-9.55-12.313-33.185-71.839-33.185-71.839-10.353-35.293 20.144-55.635 19.513-85.269 2.425-16.412-31.582-13.312-48.404-16.412-75.946-42.237 126.85-121.859 195.299-180.304" fill="#fff"/></svg>