<svg width="890" height="615" fill="none" xmlns="http://www.w3.org/2000/svg"><path d="M175.378 192.183c24.77-18.334 31.409-95.202 61.192-104.035 0 0 157.374-42.762 189.378-68.436 45.381-36.345 116.071-17.877 161.465 18.523 45.395 36.4 178.615 5.869 231.069 49.913 52.454 44.044 25.741 147.607 52.454 166.99 26.713 19.382 19.944 48.254 11.947 74.368-10.39 33.883-23.54 71.191-55.672 87.789-23.61 12.184-54.991 11.496-72.458 31.175-7.658 8.636-11.239 19.898-16.335 30.184-23.879 48.213-79.041 72.471-129.942 92.919-61.843 24.863-143.813 28.631-210.539 33.733-34.354 2.626-52.431 20.434-79.736 0-29.994-22.443-45.748-63.134-81.631-74.891-35.472-11.62-83.514 7.797-106.855-20.627-5.662-6.876-8.762-15.76-15.854-21.178-13.942-10.657-37.907-4.001-48.89-17.533-7.87-9.708-27.348-56.642-27.348-56.642-8.532-27.827 16.6-43.866 16.08-67.231 1.999-12.94-26.025-10.497-39.889-12.94-62.584-33.303 104.534-96.082 160.942-142.163" fill="#fff"/></svg>