<svg width="826" height="916" fill="none" xmlns="http://www.w3.org/2000/svg"><path d="M153.803 286.01c23.271-27.277 29.508-141.642 57.488-154.784 0 0 147.849-63.621 177.916-101.82 42.634-54.074 109.045-26.597 151.692 27.56 42.647 54.156 167.804 8.731 217.083 74.26 49.278 65.529 24.182 219.611 49.279 248.448 25.096 28.838 18.736 71.793 11.223 110.645-9.761 50.412-22.115 105.919-52.301 130.614-22.182 18.127-51.664 17.104-68.074 46.382-7.194 12.848-10.558 29.605-15.346 44.908-22.434 71.731-74.256 107.822-122.077 138.245-58.099 36.991-135.108 42.597-197.795 50.188-32.275 3.907-49.257 30.403-74.909 0-28.179-33.39-42.98-93.93-76.691-111.423-33.325-17.288-78.459 11.6-100.387-30.689-5.32-10.23-8.232-23.447-14.894-31.508-13.099-15.856-35.613-5.954-45.932-26.086-7.394-14.444-3.71-35.211-3.99-53.583-.279-18.373-26.04-13.702-21.702-30.69 10.401-30.869 19.72-64.309 15.107-100.026C28.239 481.965.17 455.917.17 428.033c11.086-147.729 100.054-73.586 153.047-142.145" fill="#fff"/></svg>