<svg width="24" height="24" fill="none" xmlns="http://www.w3.org/2000/svg"><path d="M12 0C5.409 0 0 5.409 0 12c0 2.175.586 4.293 1.699 6.146L0 24l5.854-1.699A11.92 11.92 0 0012 24c6.591 0 12-5.409 12-12S18.591 0 12 0zm7.503 17.07l-.559.559c-.79.79-2.606.727-3.773.502-3.882-.75-8.407-5.136-9.28-8.935-.432-1.881-.193-3.517.43-4.141l.56-.558a.79.79 0 011.116 0L10.23 6.73c.15.15.231.347.231.558 0 .212-.082.41-.23.558l-.559.559a1.582 1.582 0 000 2.234l3.688 3.64a1.578 1.578 0 002.234 0l.559-.559c.288-.29.826-.29 1.117 0l2.233 2.233a.79.79 0 010 1.117z" fill="#fff"/></svg>